G04 DipTrace Beta 3.0.9.0*
G04 Bottom.gbr*
%MOIN*%
G04 #@! TF.FileFunction,Copper,L2,Bot*
G04 #@! TF.Part,Single*
G04 #@! TA.AperFunction,Conductor*
%ADD13C,0.015748*%
G04 #@! TA.AperFunction,CopperBalancing*
%ADD14C,0.011811*%
G04 #@! TA.AperFunction,Conductor*
%ADD15C,0.019685*%
%ADD16C,0.007874*%
G04 #@! TA.AperFunction,ComponentPad*
%ADD17R,0.066929X0.066929*%
%ADD18C,0.066929*%
%ADD24R,0.074803X0.074803*%
%ADD25C,0.074803*%
G04 #@! TA.AperFunction,ViaPad*
%ADD41C,0.027559*%
%FSLAX26Y26*%
G04*
G70*
G90*
G75*
G01*
G04 Bottom*
%LPD*%
X1038386Y1166339D2*
D16*
X1043307D1*
Y2549213D1*
X1038386D1*
X1205709Y1023622D2*
Y1164370D1*
X1206295D1*
X1555118Y366142D2*
Y1023622D1*
X1200787Y2623031D2*
Y2024213D1*
X1206249Y2018751D1*
X1230315Y2642717D2*
X1392717D1*
X1486220Y2549213D1*
X1751969Y2145669D2*
Y2007874D1*
X759055Y3032972D2*
Y2760827D1*
X1209646Y3175000D2*
X1510039D1*
X2258858Y2426181D1*
Y2022638D1*
X1003937Y1368110D2*
Y2439085D1*
X998031Y2444991D1*
X515157D1*
X499409Y2460739D1*
Y2648618D1*
X679134Y2828343D1*
X1019685Y3000000D2*
X968504D1*
X950787Y2982283D1*
Y2660433D1*
X1793307Y1544094D2*
Y2783465D1*
X1578740Y2998031D1*
X1209646D1*
X1968114Y2037252D2*
Y1366535D1*
X1612598Y2037252D2*
X1687402D1*
X1241685Y2137795D2*
Y2037252D1*
X1047839Y2650591D2*
Y2709646D1*
X1063587Y2725394D1*
X1141732D1*
X1157480Y2709646D1*
Y2137795D1*
X1045276Y2615157D2*
X1074803D1*
X1086614Y2603346D1*
Y866535D1*
X1090551D1*
X913386Y2581693D2*
Y2688976D1*
X865161Y2737201D1*
Y2967028D1*
X915354Y2112205D2*
X481299D1*
X437992Y2155512D1*
Y2737205D1*
X669291Y2968504D1*
X1308657Y925591D2*
Y2112205D1*
X1493169Y866535D2*
X1308657D1*
X1051181Y901575D2*
X1043307D1*
X1066929Y925197D1*
Y2576772D1*
X1059055Y2584646D1*
X1020220D1*
X1468114Y900000D2*
X1208260D1*
X1975988D2*
X1724008D1*
X1191339Y366535D2*
Y849606D1*
X1106299Y934646D1*
Y2626969D1*
X1092520Y2640748D1*
X1086614D1*
X1193504Y2684059D2*
X1444878D1*
X1521654Y2607283D1*
Y600394D1*
X2064539Y366535D2*
Y600394D1*
X2468114Y2096457D2*
Y1866535D1*
X1309055Y2221264D2*
X1377161D1*
X1402563Y2195862D1*
Y2096457D1*
X1083268Y2699803D2*
X1131890Y2651181D1*
Y2221264D1*
X2504921Y2514764D2*
Y1368110D1*
X1061220Y2843504D2*
X1625000D1*
X1737205Y2731299D1*
Y2514764D1*
X1580319Y2458661D2*
Y2671650D1*
X1510827Y2741142D1*
X1033465D1*
X1028543Y2736220D1*
X2596067Y866535D2*
X2593504D1*
Y2458661D1*
X2596067D1*
X1653543Y2406496D2*
Y2696850D1*
X1577756Y2772638D1*
X1095079D1*
X1024213Y2843504D1*
X2544886Y366535D2*
Y2401575D1*
X2544291D1*
X1240157Y2480315D2*
D14*
X1338583Y2578740D1*
X350000Y2568751D2*
D15*
Y2505118D1*
X361369Y2493749D1*
X590551Y2610236D2*
D14*
X700000D1*
Y2607681D1*
X1067520Y3263587D2*
Y3023622D1*
X1226378Y2366535D2*
Y2266535D1*
X1151772Y3023622D2*
Y2954528D1*
X2391732Y600394D2*
Y580709D1*
X2431102Y541339D1*
X2436024D1*
X1938976Y1048228D2*
X1914370D1*
X1879921Y1082677D1*
Y1122047D1*
X1373031Y979331D2*
Y1126969D1*
X1387795Y1638780D2*
Y1515748D1*
X1894685Y1604331D2*
Y1579724D1*
X1929134Y1545276D1*
X1938976D1*
Y1540354D1*
X2386811Y1609252D2*
Y1560039D1*
X2406496Y1540354D1*
X2440945D1*
X1437008Y531496D2*
Y551181D1*
X1381890Y606299D1*
X1938976Y521654D2*
Y541339D1*
X1889764Y590551D1*
Y629921D1*
X700000Y2607681D2*
Y2635240D1*
X679134Y2656106D1*
Y2776772D1*
X1067520Y3023622D2*
Y2925787D1*
X1041732Y2900000D1*
X2391732Y1112205D2*
Y1062992D1*
X2411417Y1043307D1*
X2436024D1*
X476311Y2893634D2*
D13*
Y3007941D1*
X209252Y3275000D1*
X197047D1*
X1800000Y3450000D2*
D14*
Y3451969D1*
X1708661Y3543307D1*
D13*
X1100000D1*
Y3450000D1*
Y3543307D2*
X728346D1*
X570866Y3385827D1*
Y3102496D1*
X566795Y3098425D1*
X476311Y3007941D1*
X700787Y2370079D2*
D14*
X590551D1*
X661417Y3098425D2*
X566795D1*
X1325000Y3312500D2*
X1231249Y3406251D1*
X984843Y2559055D2*
Y2972441D1*
X1948819Y3307087D2*
X2027559Y3385827D1*
X2185039Y3366142D2*
X2303150D1*
X807087Y2854331D2*
Y3346457D1*
X925197Y2854331D2*
Y3324803D1*
X800000Y3450000D1*
X1015748Y2519685D2*
X885827D1*
X708661Y2696850D1*
Y3129921D1*
X649606Y3188976D1*
D41*
X1200787Y2623031D3*
X1206249Y2018751D3*
X1230315Y2642717D3*
X1486220Y2549213D3*
X1751969Y2145669D3*
Y2007874D3*
X1240157Y2480315D3*
X1338583Y2578740D3*
X350000Y2568751D3*
X361369Y2493749D3*
X476311Y2893634D3*
X700787Y2370079D3*
X590551D3*
X661417Y3098425D3*
X1325000Y3312500D3*
X1231249Y3406251D3*
X984843Y2559055D3*
Y2972441D3*
X1948819Y3307087D3*
X2027559Y3385827D3*
X2185039Y3366142D3*
X2303150D3*
X807087Y2854331D3*
Y3346457D3*
X925197Y2854331D3*
X1015748Y2519685D3*
X649606Y3188976D3*
X1038386Y2549213D3*
Y1166339D3*
X1206295Y1164370D3*
X1205709Y1023622D3*
X1555118D3*
Y366142D3*
X759055Y2760827D3*
Y3032972D3*
X1209646Y3175000D3*
X2258858Y2022638D3*
X679134Y2828343D3*
X1003937Y1368110D3*
X950787Y2660433D3*
X1019685Y3000000D3*
X1209646Y2998031D3*
X1793307Y1544094D3*
X1968114Y1366535D3*
Y2037252D3*
X1687402D3*
X1612598D3*
X1241685D3*
Y2137795D3*
X1157480D3*
X1047839Y2650591D3*
X1090551Y866535D3*
X1045276Y2615157D3*
X913386Y2581693D3*
X865161Y2967028D3*
X669291Y2968504D3*
X915354Y2112205D3*
X1308657D3*
Y925591D3*
Y866535D3*
X1493169D3*
X1020220Y2584646D3*
X1051181Y901575D3*
X1208260Y900000D3*
X1468114D3*
X1724008D3*
X1975988D3*
X1086614Y2640748D3*
X1191339Y366535D3*
X2064539D3*
Y600394D3*
X1521654D3*
X1193504Y2684059D3*
X2468114Y1866535D3*
Y2096457D3*
X1402563D3*
X1309055Y2221264D3*
X1131890D3*
X1083268Y2699803D3*
X2504921Y1368110D3*
Y2514764D3*
X1737205D3*
X1061220Y2843504D3*
X1028543Y2736220D3*
X1580319Y2458661D3*
X2596067D3*
Y866535D3*
X1024213Y2843504D3*
X1653543Y2406496D3*
X2544291Y2401575D3*
X2544886Y366535D3*
X679134Y2776772D3*
X590551Y2610236D3*
X1041732Y2900000D3*
X1151772Y2954528D3*
Y3023622D3*
X2436024Y541339D3*
X2391732Y600394D3*
X1879921Y1122047D3*
X1938976Y1048228D3*
X1373031Y1126969D3*
Y979331D3*
X700000Y2607681D3*
X1938976Y1540354D3*
X2391732Y1112205D3*
X2440945Y1540354D3*
X2386811Y1609252D3*
X1387795Y1638780D3*
Y1515748D3*
X1381890Y606299D3*
X1437008Y531496D3*
X1889764Y629921D3*
X1938976Y521654D3*
X1894685Y1604331D3*
X1067520Y3023622D3*
X1226378Y2266535D3*
X1067520Y3263587D3*
X2436024Y1043307D3*
X1226378Y2366535D3*
X33071Y3556430D2*
D14*
X3066937D1*
X33071Y3544751D2*
X3066937D1*
X33071Y3533071D2*
X3066937D1*
X33071Y3521391D2*
X3066937D1*
X33071Y3509711D2*
X3066937D1*
X33071Y3498031D2*
X3066937D1*
X33071Y3486352D2*
X751100D1*
X848896D2*
X867919D1*
X932081D2*
X967920D1*
X1032083D2*
X1167900D1*
X1232085D2*
X1867911D1*
X1932097D2*
X1967912D1*
X2032098D2*
X2067915D1*
X2132100D2*
X2167916D1*
X2232101D2*
X2267917D1*
X2332080D2*
X2367919D1*
X2432081D2*
X3066937D1*
X33071Y3474672D2*
X751100D1*
X848896D2*
X857976D1*
X942024D2*
X957978D1*
X1042025D2*
X1157980D1*
X1242029D2*
X1857969D1*
X1942016D2*
X1957970D1*
X2042017D2*
X2057971D1*
X2142020D2*
X2157974D1*
X2242021D2*
X2257975D1*
X2342022D2*
X2357976D1*
X2442024D2*
X3066937D1*
X33071Y3462992D2*
X751100D1*
X1047100D2*
X1152906D1*
X1247104D2*
X1852916D1*
X2447098D2*
X3066937D1*
X33071Y3451312D2*
X751100D1*
X1048877D2*
X1151130D1*
X1248879D2*
X1851117D1*
X2448875D2*
X3066937D1*
X33071Y3439633D2*
X751100D1*
X1047747D2*
X1152236D1*
X1247749D2*
X1852248D1*
X2447768D2*
X3066937D1*
X33071Y3427953D2*
X751100D1*
X943500D2*
X956501D1*
X1043501D2*
X1156504D1*
X1250172D2*
X1856492D1*
X1943492D2*
X1956493D1*
X2043493D2*
X2056495D1*
X2143496D2*
X2156497D1*
X2243497D2*
X2256499D1*
X2343499D2*
X2356500D1*
X2443500D2*
X3066937D1*
X33071Y3416273D2*
X751100D1*
X934942D2*
X965060D1*
X1034944D2*
X1165063D1*
X1258614D2*
X1865073D1*
X1934934D2*
X1965075D1*
X2034936D2*
X2065054D1*
X2134937D2*
X2165055D1*
X2234938D2*
X2265056D1*
X2334940D2*
X2365058D1*
X2434942D2*
X3066937D1*
X33071Y3404593D2*
X751100D1*
X875079D2*
X884159D1*
X915841D2*
X984160D1*
X1015843D2*
X1184164D1*
X1262583D2*
X1884151D1*
X1915857D2*
X1984152D1*
X2049560D2*
X2084155D1*
X2115836D2*
X2184156D1*
X2215839D2*
X2284157D1*
X2315840D2*
X2384159D1*
X2415841D2*
X3066937D1*
X33071Y3392913D2*
X827411D1*
X886752D2*
X1205409D1*
X1274255D2*
X1999262D1*
X2055858D2*
X2175551D1*
X2194522D2*
X2293661D1*
X2312633D2*
X3066937D1*
X33071Y3381234D2*
X839106D1*
X898448D2*
X1217428D1*
X1285928D2*
X1993287D1*
X2056390D2*
X2160234D1*
X2327950D2*
X3066937D1*
X33071Y3369554D2*
X790017D1*
X824144D2*
X850780D1*
X910121D2*
X1238282D1*
X1297623D2*
X1981615D1*
X2051568D2*
X2156035D1*
X2332148D2*
X3066937D1*
X33071Y3357874D2*
X780304D1*
X833879D2*
X862451D1*
X921793D2*
X1249954D1*
X1309295D2*
X1969942D1*
X2030829D2*
X2157073D1*
X2331110D2*
X3066937D1*
X33071Y3346194D2*
X777883D1*
X836302D2*
X874147D1*
X933466D2*
X1261627D1*
X1320969D2*
X1958247D1*
X2017588D2*
X2164156D1*
X2324029D2*
X3066937D1*
X33071Y3334514D2*
X780535D1*
X833625D2*
X885820D1*
X944030D2*
X1273323D1*
X1343529D2*
X1941845D1*
X2005916D2*
X3066937D1*
X33071Y3322835D2*
X400114D1*
X505777D2*
X785772D1*
X828412D2*
X897492D1*
X946522D2*
X1284996D1*
X1352249D2*
X1924451D1*
X1994243D2*
X3066937D1*
X33071Y3311155D2*
X400114D1*
X505777D2*
X785772D1*
X828412D2*
X903882D1*
X946522D2*
X1295815D1*
X1354186D2*
X1919907D1*
X1982547D2*
X3066937D1*
X33071Y3299475D2*
X400114D1*
X505777D2*
X785772D1*
X828412D2*
X903882D1*
X946522D2*
X1298999D1*
X1351004D2*
X1920668D1*
X1976988D2*
X3066937D1*
X33071Y3287795D2*
X400114D1*
X505777D2*
X785772D1*
X828412D2*
X903882D1*
X946522D2*
X1310579D1*
X1339423D2*
X1927289D1*
X1970344D2*
X3066937D1*
X33071Y3276115D2*
X400114D1*
X505777D2*
X785772D1*
X828412D2*
X903882D1*
X946522D2*
X3066937D1*
X33071Y3264436D2*
X400114D1*
X505777D2*
X785772D1*
X828412D2*
X903882D1*
X946522D2*
X3066937D1*
X33071Y3252756D2*
X400114D1*
X505777D2*
X785772D1*
X828412D2*
X903882D1*
X946522D2*
X3066937D1*
X33071Y3241076D2*
X400114D1*
X505777D2*
X785772D1*
X828412D2*
X903882D1*
X946522D2*
X3066937D1*
X33071Y3229396D2*
X400114D1*
X505777D2*
X785772D1*
X828412D2*
X903882D1*
X946522D2*
X3066937D1*
X33071Y3217717D2*
X785772D1*
X828412D2*
X903882D1*
X946522D2*
X3066937D1*
X33071Y3206037D2*
X626185D1*
X673024D2*
X785772D1*
X828412D2*
X903882D1*
X946522D2*
X3066937D1*
X33071Y3194357D2*
X620925D1*
X678306D2*
X785772D1*
X828412D2*
X903882D1*
X946522D2*
X1188201D1*
X1231094D2*
X3066937D1*
X33071Y3182677D2*
X621110D1*
X685572D2*
X785772D1*
X828412D2*
X903882D1*
X946522D2*
X1181510D1*
X1529253D2*
X3066937D1*
X33071Y3170997D2*
X626923D1*
X697245D2*
X785772D1*
X828412D2*
X903882D1*
X946522D2*
X1180726D1*
X1540925D2*
X3066937D1*
X33071Y3159318D2*
X649600D1*
X708941D2*
X785772D1*
X828412D2*
X903882D1*
X946522D2*
X1185224D1*
X1552598D2*
X3066937D1*
X33071Y3147638D2*
X661272D1*
X720613D2*
X785772D1*
X828412D2*
X903882D1*
X946522D2*
X1202387D1*
X1216907D2*
X1510512D1*
X1564294D2*
X3066937D1*
X33071Y3135958D2*
X672945D1*
X729056D2*
X785772D1*
X828412D2*
X903882D1*
X946522D2*
X1522185D1*
X1575967D2*
X3066937D1*
X33071Y3124278D2*
X684640D1*
X729979D2*
X785772D1*
X828412D2*
X903882D1*
X946522D2*
X1533881D1*
X1587639D2*
X3066937D1*
X33071Y3112598D2*
X687340D1*
X729979D2*
X785772D1*
X828412D2*
X903882D1*
X946522D2*
X1545554D1*
X1599335D2*
X3066937D1*
X33071Y3100919D2*
X687340D1*
X729979D2*
X785772D1*
X828412D2*
X903882D1*
X946522D2*
X1557226D1*
X1611008D2*
X3066937D1*
X33071Y3089239D2*
X687340D1*
X729979D2*
X785772D1*
X828412D2*
X903882D1*
X946522D2*
X1568921D1*
X1622680D2*
X3066937D1*
X33071Y3077559D2*
X687340D1*
X729979D2*
X785772D1*
X828412D2*
X903882D1*
X946522D2*
X1580594D1*
X1634375D2*
X3066937D1*
X33071Y3065879D2*
X687340D1*
X729979D2*
X785772D1*
X828412D2*
X903882D1*
X946522D2*
X1592266D1*
X1646049D2*
X3066937D1*
X33071Y3054199D2*
X687340D1*
X729979D2*
X739566D1*
X778538D2*
X785778D1*
X828412D2*
X903882D1*
X946522D2*
X1603962D1*
X1657720D2*
X3066937D1*
X33071Y3042520D2*
X687340D1*
X828412D2*
X903882D1*
X946522D2*
X1615635D1*
X1669416D2*
X3066937D1*
X33071Y3030840D2*
X687340D1*
X828412D2*
X903882D1*
X946522D2*
X1627307D1*
X1681089D2*
X3066937D1*
X33071Y3019160D2*
X687340D1*
X828412D2*
X903882D1*
X946522D2*
X998047D1*
X1041333D2*
X1190046D1*
X1229248D2*
X1639003D1*
X1692762D2*
X3066937D1*
X33071Y3007480D2*
X687340D1*
X729979D2*
X739705D1*
X778423D2*
X785769D1*
X828412D2*
X903882D1*
X1047885D2*
X1182064D1*
X1596175D2*
X1650676D1*
X1704434D2*
X3066937D1*
X33071Y2995801D2*
X661734D1*
X676853D2*
X687340D1*
X729979D2*
X739705D1*
X778423D2*
X785769D1*
X828412D2*
X903882D1*
X1048576D2*
X1180518D1*
X1607846D2*
X1662349D1*
X1716130D2*
X3066937D1*
X33071Y2984121D2*
X644824D1*
X729979D2*
X739705D1*
X778423D2*
X785769D1*
X828412D2*
X841759D1*
X888551D2*
X903882D1*
X1043963D2*
X1184117D1*
X1619543D2*
X1674045D1*
X1727803D2*
X3066937D1*
X33071Y2972441D2*
X640349D1*
X729979D2*
X739705D1*
X778423D2*
X785769D1*
X828412D2*
X836476D1*
X893857D2*
X903882D1*
X1025992D2*
X1197035D1*
X1222259D2*
X1577433D1*
X1631215D2*
X1685717D1*
X1739475D2*
X3066937D1*
X33071Y2960761D2*
X634675D1*
X729979D2*
X739705D1*
X778423D2*
X785769D1*
X828412D2*
X836661D1*
X893672D2*
X903882D1*
X1011505D2*
X1589130D1*
X1642888D2*
X1697390D1*
X1751171D2*
X3066937D1*
X33071Y2949081D2*
X622979D1*
X729979D2*
X739705D1*
X778423D2*
X785769D1*
X828412D2*
X842451D1*
X887882D2*
X903882D1*
X1006177D2*
X1600802D1*
X1654584D2*
X1709062D1*
X1762844D2*
X3066937D1*
X33071Y2937402D2*
X611306D1*
X665064D2*
X687340D1*
X729979D2*
X739705D1*
X778423D2*
X785769D1*
X828412D2*
X845797D1*
X884514D2*
X903882D1*
X1006177D2*
X1612475D1*
X1666256D2*
X1720757D1*
X1774516D2*
X3066937D1*
X33071Y2925722D2*
X599633D1*
X653392D2*
X687340D1*
X729979D2*
X739705D1*
X778423D2*
X785769D1*
X828412D2*
X845797D1*
X884514D2*
X903882D1*
X1006177D2*
X1624171D1*
X1677929D2*
X1732430D1*
X1786213D2*
X3066937D1*
X33071Y2914042D2*
X587937D1*
X641719D2*
X687340D1*
X729979D2*
X739705D1*
X778423D2*
X785769D1*
X828412D2*
X845797D1*
X884514D2*
X903882D1*
X1006177D2*
X1635843D1*
X1689625D2*
X1744102D1*
X1797885D2*
X3066937D1*
X33071Y2902362D2*
X576265D1*
X630046D2*
X687340D1*
X729979D2*
X739705D1*
X778423D2*
X785769D1*
X828412D2*
X845797D1*
X884514D2*
X903882D1*
X1006177D2*
X1647516D1*
X1701297D2*
X1755799D1*
X1809558D2*
X3066937D1*
X33071Y2890682D2*
X564592D1*
X618350D2*
X687340D1*
X729979D2*
X739705D1*
X778423D2*
X785769D1*
X828412D2*
X845797D1*
X884514D2*
X903882D1*
X1006177D2*
X1659211D1*
X1712970D2*
X1767471D1*
X1821253D2*
X3066937D1*
X33071Y2879003D2*
X552896D1*
X606678D2*
X687340D1*
X729979D2*
X739705D1*
X778423D2*
X785769D1*
X828412D2*
X845797D1*
X884514D2*
X903882D1*
X1006177D2*
X1670883D1*
X1724665D2*
X1779144D1*
X1832925D2*
X3066937D1*
X33071Y2867323D2*
X541224D1*
X595005D2*
X687340D1*
X729979D2*
X739705D1*
X833118D2*
X845797D1*
X884514D2*
X899176D1*
X1077181D2*
X1682556D1*
X1736339D2*
X1790840D1*
X1844598D2*
X3066937D1*
X33071Y2855643D2*
X529551D1*
X583310D2*
X671584D1*
X729979D2*
X739705D1*
X836278D2*
X845797D1*
X884514D2*
X896016D1*
X1639751D2*
X1694252D1*
X1748010D2*
X1802512D1*
X1856270D2*
X3066937D1*
X33071Y2843963D2*
X517856D1*
X571638D2*
X654675D1*
X729979D2*
X739705D1*
X834318D2*
X845797D1*
X884514D2*
X897976D1*
X1651424D2*
X1705925D1*
X1759684D2*
X1814185D1*
X1867966D2*
X3066937D1*
X33071Y2832283D2*
X506184D1*
X559965D2*
X650199D1*
X729979D2*
X739705D1*
X778423D2*
X788587D1*
X825575D2*
X845797D1*
X884514D2*
X906697D1*
X1663096D2*
X1717597D1*
X1771379D2*
X1825881D1*
X1879639D2*
X3066937D1*
X33071Y2820604D2*
X494510D1*
X548269D2*
X644501D1*
X729979D2*
X739705D1*
X778423D2*
X845797D1*
X884514D2*
X931427D1*
X1078566D2*
X1621010D1*
X1674791D2*
X1729293D1*
X1783051D2*
X1837552D1*
X1891311D2*
X3066937D1*
X33071Y2808924D2*
X482815D1*
X536597D2*
X632828D1*
X729979D2*
X739705D1*
X778423D2*
X845797D1*
X884514D2*
X931427D1*
X1085671D2*
X1632706D1*
X1686465D2*
X1740966D1*
X1794724D2*
X1849226D1*
X1903008D2*
X3066937D1*
X33071Y2797244D2*
X471142D1*
X524924D2*
X621156D1*
X674915D2*
X687340D1*
X729979D2*
X739705D1*
X778423D2*
X845797D1*
X884514D2*
X931427D1*
X1097366D2*
X1644378D1*
X1698136D2*
X1752638D1*
X1806420D2*
X1860898D1*
X1914680D2*
X3066937D1*
X33071Y2785564D2*
X459470D1*
X513228D2*
X609461D1*
X663241D2*
X687340D1*
X729979D2*
X739705D1*
X778423D2*
X845797D1*
X884514D2*
X931427D1*
X1591722D2*
X1656051D1*
X1709832D2*
X1764311D1*
X1812533D2*
X1872594D1*
X1926353D2*
X3066937D1*
X33071Y2773885D2*
X447797D1*
X501555D2*
X597787D1*
X651570D2*
X687340D1*
X785043D2*
X845797D1*
X884514D2*
X931427D1*
X1603395D2*
X1667723D1*
X1721505D2*
X1773954D1*
X1812672D2*
X1884266D1*
X1938049D2*
X3066937D1*
X33071Y2762205D2*
X436101D1*
X489883D2*
X586115D1*
X639874D2*
X687340D1*
X788227D2*
X845797D1*
X884514D2*
X931427D1*
X1615067D2*
X1679419D1*
X1733177D2*
X1773954D1*
X1812672D2*
X1895940D1*
X1949720D2*
X3066937D1*
X33071Y2750525D2*
X424429D1*
X478188D2*
X574420D1*
X628201D2*
X687340D1*
X786312D2*
X845797D1*
X884514D2*
X931427D1*
X1528331D2*
X1572982D1*
X1626764D2*
X1691092D1*
X1744874D2*
X1773954D1*
X1812672D2*
X1907635D1*
X1961394D2*
X3066937D1*
X33071Y2738845D2*
X418707D1*
X466514D2*
X562747D1*
X616529D2*
X687340D1*
X729979D2*
X740490D1*
X777638D2*
X845797D1*
X890396D2*
X931427D1*
X1540003D2*
X1584654D1*
X1638436D2*
X1702764D1*
X1754932D2*
X1773954D1*
X1812672D2*
X1919307D1*
X1973089D2*
X3066937D1*
X33071Y2727165D2*
X418639D1*
X457357D2*
X551075D1*
X604833D2*
X687340D1*
X729979D2*
X848818D1*
X902092D2*
X931427D1*
X1551698D2*
X1596350D1*
X1650109D2*
X1714461D1*
X1756570D2*
X1773954D1*
X1812672D2*
X1930980D1*
X1984761D2*
X3066937D1*
X33071Y2715486D2*
X418639D1*
X457357D2*
X539402D1*
X593160D2*
X687340D1*
X729979D2*
X859983D1*
X913765D2*
X931427D1*
X1175869D2*
X1509589D1*
X1563371D2*
X1608022D1*
X1661804D2*
X1717852D1*
X1756570D2*
X1773954D1*
X1812672D2*
X1942676D1*
X1996434D2*
X3066937D1*
X33071Y2703806D2*
X418639D1*
X457357D2*
X527706D1*
X581488D2*
X687340D1*
X731386D2*
X871678D1*
X925437D2*
X931436D1*
X1214577D2*
X1521285D1*
X1575043D2*
X1619696D1*
X1671516D2*
X1717852D1*
X1756570D2*
X1773954D1*
X1812672D2*
X1954348D1*
X2008130D2*
X3066937D1*
X33071Y2692126D2*
X418639D1*
X457357D2*
X516033D1*
X569791D2*
X687892D1*
X743059D2*
X883352D1*
X1463693D2*
X1532958D1*
X1586739D2*
X1631391D1*
X1672900D2*
X1717852D1*
X1756570D2*
X1773954D1*
X1812672D2*
X1966021D1*
X2019803D2*
X3066937D1*
X33071Y2680446D2*
X418639D1*
X457357D2*
X504361D1*
X558119D2*
X695390D1*
X754731D2*
X894033D1*
X1475365D2*
X1544630D1*
X1597398D2*
X1634182D1*
X1672900D2*
X1717852D1*
X1756570D2*
X1773954D1*
X1812672D2*
X1977717D1*
X2031475D2*
X3066937D1*
X33071Y2668766D2*
X418639D1*
X457357D2*
X492665D1*
X546446D2*
X707085D1*
X766404D2*
X894033D1*
X1487060D2*
X1556325D1*
X1599681D2*
X1634182D1*
X1672900D2*
X1717852D1*
X1756570D2*
X1773954D1*
X1812672D2*
X1989390D1*
X2043148D2*
X3066937D1*
X33071Y2657087D2*
X418639D1*
X457357D2*
X482146D1*
X534774D2*
X718759D1*
X778100D2*
X894033D1*
X1498734D2*
X1560963D1*
X1599681D2*
X1634182D1*
X1672900D2*
X1717852D1*
X1756570D2*
X1773954D1*
X1812672D2*
X2001062D1*
X2054844D2*
X3066937D1*
X33071Y2645407D2*
X418639D1*
X457357D2*
X480046D1*
X523079D2*
X730430D1*
X789772D2*
X894033D1*
X1510406D2*
X1560963D1*
X1599681D2*
X1634182D1*
X1672900D2*
X1717852D1*
X1756570D2*
X1773954D1*
X1812672D2*
X2012757D1*
X2066516D2*
X3066937D1*
X33071Y2633727D2*
X418639D1*
X457357D2*
X480046D1*
X518765D2*
X742104D1*
X801445D2*
X894033D1*
X932751D2*
X941092D1*
X1522102D2*
X1560963D1*
X1599681D2*
X1634182D1*
X1672900D2*
X1717852D1*
X1756570D2*
X1773954D1*
X1812672D2*
X2024430D1*
X2078189D2*
X3066937D1*
X33071Y2622047D2*
X418639D1*
X457357D2*
X480046D1*
X518765D2*
X753799D1*
X813140D2*
X894033D1*
X932751D2*
X963514D1*
X1250425D2*
X1386496D1*
X1533774D2*
X1560963D1*
X1599681D2*
X1634182D1*
X1672900D2*
X1717852D1*
X1756570D2*
X1773954D1*
X1812672D2*
X2036102D1*
X2089885D2*
X3066937D1*
X33071Y2610367D2*
X418639D1*
X457357D2*
X480046D1*
X518765D2*
X765472D1*
X824814D2*
X894033D1*
X932751D2*
X963514D1*
X1226965D2*
X1398169D1*
X1540741D2*
X1560963D1*
X1599681D2*
X1634182D1*
X1672900D2*
X1717852D1*
X1756570D2*
X1773954D1*
X1812672D2*
X2047776D1*
X2101558D2*
X3066937D1*
X33071Y2598688D2*
X418639D1*
X457357D2*
X480046D1*
X518765D2*
X777144D1*
X836486D2*
X889903D1*
X936857D2*
X963514D1*
X1220136D2*
X1317706D1*
X1359446D2*
X1409865D1*
X1541018D2*
X1560963D1*
X1599681D2*
X1634182D1*
X1672900D2*
X1717852D1*
X1756570D2*
X1773954D1*
X1812672D2*
X2059471D1*
X2113230D2*
X3066937D1*
X33071Y2587008D2*
X418639D1*
X457357D2*
X480046D1*
X518765D2*
X788840D1*
X848181D2*
X884689D1*
X942093D2*
X963514D1*
X1220136D2*
X1310625D1*
X1366551D2*
X1421538D1*
X1541018D2*
X1560963D1*
X1599681D2*
X1634182D1*
X1672900D2*
X1717852D1*
X1756570D2*
X1773954D1*
X1812672D2*
X2071144D1*
X2124925D2*
X3066937D1*
X33071Y2575328D2*
X418639D1*
X457357D2*
X480046D1*
X518765D2*
X800513D1*
X859854D2*
X884898D1*
X941862D2*
X960839D1*
X1220136D2*
X1305504D1*
X1367589D2*
X1433210D1*
X1541018D2*
X1560963D1*
X1599681D2*
X1634182D1*
X1672900D2*
X1717852D1*
X1756570D2*
X1773954D1*
X1812672D2*
X2082816D1*
X2136598D2*
X3066937D1*
X33071Y2563648D2*
X418639D1*
X457357D2*
X480046D1*
X518765D2*
X812185D1*
X871526D2*
X890756D1*
X936026D2*
X956017D1*
X1220136D2*
X1293831D1*
X1363391D2*
X1444906D1*
X1541018D2*
X1560963D1*
X1599681D2*
X1634182D1*
X1672900D2*
X1717852D1*
X1756570D2*
X1773954D1*
X1812672D2*
X2094512D1*
X2148270D2*
X3066937D1*
X33071Y2551969D2*
X418639D1*
X457357D2*
X480046D1*
X518765D2*
X823881D1*
X883222D2*
X956547D1*
X1220136D2*
X1282135D1*
X1348073D2*
X1456579D1*
X1541018D2*
X1560963D1*
X1599681D2*
X1634182D1*
X1672900D2*
X1717852D1*
X1756570D2*
X1773954D1*
X1812672D2*
X2106185D1*
X2159966D2*
X3066937D1*
X33071Y2540289D2*
X418639D1*
X457357D2*
X480046D1*
X518765D2*
X835554D1*
X894895D2*
X962845D1*
X1220136D2*
X1270462D1*
X1329803D2*
X1458470D1*
X1541018D2*
X1560963D1*
X1599681D2*
X1634182D1*
X1672900D2*
X1717852D1*
X1756570D2*
X1773954D1*
X1812672D2*
X2117857D1*
X2171639D2*
X2492165D1*
X2517688D2*
X3066937D1*
X33071Y2528609D2*
X418639D1*
X457357D2*
X480046D1*
X518765D2*
X847227D1*
X1220136D2*
X1258790D1*
X1318131D2*
X1466037D1*
X1541018D2*
X1560963D1*
X1599681D2*
X1634182D1*
X1672900D2*
X1711646D1*
X1762752D2*
X1773954D1*
X1812672D2*
X2129552D1*
X2183311D2*
X2479362D1*
X2530469D2*
X3066937D1*
X33071Y2516929D2*
X418639D1*
X457357D2*
X480046D1*
X518765D2*
X858923D1*
X1220136D2*
X1247094D1*
X1306436D2*
X1502301D1*
X1541018D2*
X1560963D1*
X1599681D2*
X1634182D1*
X1672900D2*
X1708070D1*
X1766327D2*
X1773954D1*
X1812672D2*
X2141226D1*
X2195007D2*
X2475786D1*
X2534043D2*
X3066937D1*
X33071Y2505249D2*
X418639D1*
X457357D2*
X480046D1*
X518765D2*
X870594D1*
X1220136D2*
X1226154D1*
X1294762D2*
X1502301D1*
X1541018D2*
X1560963D1*
X1599681D2*
X1634182D1*
X1672900D2*
X1709661D1*
X1764759D2*
X1773954D1*
X1812672D2*
X2152898D1*
X2206680D2*
X2477378D1*
X2532475D2*
X3066937D1*
X33071Y2493570D2*
X418639D1*
X457357D2*
X480046D1*
X518765D2*
X1004391D1*
X1283091D2*
X1502301D1*
X1541018D2*
X1560963D1*
X1599681D2*
X1634182D1*
X1672900D2*
X1717667D1*
X1756731D2*
X1773954D1*
X1812672D2*
X2164593D1*
X2218353D2*
X2485383D1*
X2524448D2*
X3066937D1*
X33071Y2481890D2*
X418639D1*
X457357D2*
X480046D1*
X518765D2*
X1023954D1*
X1271395D2*
X1502301D1*
X1541018D2*
X1560963D1*
X1599681D2*
X1634182D1*
X1672900D2*
X1773954D1*
X1812672D2*
X2176266D1*
X2230025D2*
X2485568D1*
X2524286D2*
X2579202D1*
X2612937D2*
X3066937D1*
X33071Y2470210D2*
X418639D1*
X457357D2*
X480046D1*
X518765D2*
X1023954D1*
X1267496D2*
X1502301D1*
X1541018D2*
X1553604D1*
X1607039D2*
X1634182D1*
X1672900D2*
X1773954D1*
X1812672D2*
X2187940D1*
X2241720D2*
X2485568D1*
X2524286D2*
X2569352D1*
X2622787D2*
X3066937D1*
X33071Y2458530D2*
X418639D1*
X457357D2*
X480185D1*
X1011344D2*
X1023954D1*
X1258983D2*
X1502301D1*
X1541018D2*
X1551113D1*
X1609531D2*
X1634182D1*
X1672900D2*
X1773954D1*
X1812672D2*
X2199635D1*
X2253394D2*
X2485568D1*
X2524286D2*
X2566861D1*
X2625280D2*
X3066937D1*
X33071Y2446850D2*
X418639D1*
X457357D2*
X486413D1*
X1220136D2*
X1502301D1*
X1541018D2*
X1553719D1*
X1606924D2*
X1634182D1*
X1672900D2*
X1773954D1*
X1812672D2*
X2211307D1*
X2265066D2*
X2485568D1*
X2524286D2*
X2569467D1*
X2622672D2*
X3066937D1*
X33071Y2435171D2*
X418639D1*
X457357D2*
X498087D1*
X1220136D2*
X1502301D1*
X1541018D2*
X1563846D1*
X1596798D2*
X1634182D1*
X1672900D2*
X1773954D1*
X1812672D2*
X2222980D1*
X2275839D2*
X2485568D1*
X2524286D2*
X2574151D1*
X2612869D2*
X3066937D1*
X33071Y2423491D2*
X418639D1*
X457357D2*
X984576D1*
X1220136D2*
X1502301D1*
X1541018D2*
X1630076D1*
X1677007D2*
X1773954D1*
X1812672D2*
X2234652D1*
X2278215D2*
X2485568D1*
X2562949D2*
X2574151D1*
X2612869D2*
X3066937D1*
X33071Y2411811D2*
X418639D1*
X457357D2*
X984576D1*
X1220136D2*
X1502301D1*
X1541018D2*
X1624840D1*
X1682243D2*
X1773954D1*
X1812672D2*
X2239497D1*
X2278215D2*
X2485568D1*
X2612869D2*
X3066937D1*
X33071Y2400131D2*
X418639D1*
X457357D2*
X984576D1*
X1220136D2*
X1502301D1*
X1541018D2*
X1625070D1*
X1682035D2*
X1773954D1*
X1812672D2*
X2239497D1*
X2278215D2*
X2485568D1*
X2612869D2*
X3066937D1*
X33071Y2388451D2*
X78795D1*
X121203D2*
X418639D1*
X457357D2*
X984576D1*
X1220136D2*
X1502301D1*
X1541018D2*
X1630907D1*
X1676176D2*
X1773954D1*
X1812672D2*
X2239497D1*
X2278215D2*
X2485568D1*
X2612869D2*
X3066937D1*
X33071Y2376772D2*
X67975D1*
X132022D2*
X418639D1*
X457357D2*
X984576D1*
X1220136D2*
X1502301D1*
X1541018D2*
X1773954D1*
X1812672D2*
X2239497D1*
X2278215D2*
X2485568D1*
X2564240D2*
X2574151D1*
X2612869D2*
X3066937D1*
X33071Y2365092D2*
X63777D1*
X136222D2*
X418639D1*
X457357D2*
X984576D1*
X1220136D2*
X1502301D1*
X1541018D2*
X1773954D1*
X1812672D2*
X2239497D1*
X2278215D2*
X2485568D1*
X2564240D2*
X2574151D1*
X2612869D2*
X3066937D1*
X33071Y2353412D2*
X63707D1*
X136290D2*
X418639D1*
X457357D2*
X984576D1*
X1220136D2*
X1502301D1*
X1541018D2*
X1773954D1*
X1812672D2*
X2239497D1*
X2278215D2*
X2485568D1*
X2564240D2*
X2574151D1*
X2612869D2*
X3066937D1*
X33071Y2341732D2*
X67768D1*
X132231D2*
X418639D1*
X457357D2*
X984576D1*
X1220136D2*
X1502301D1*
X1541018D2*
X1773954D1*
X1812672D2*
X2239497D1*
X2278215D2*
X2485568D1*
X2564240D2*
X2574151D1*
X2612869D2*
X3066937D1*
X33071Y2330052D2*
X78241D1*
X121757D2*
X418639D1*
X457357D2*
X984576D1*
X1220136D2*
X1502301D1*
X1541018D2*
X1773954D1*
X1812672D2*
X2239497D1*
X2278215D2*
X2485568D1*
X2564240D2*
X2574151D1*
X2612869D2*
X3066937D1*
X33071Y2318373D2*
X418639D1*
X457357D2*
X984576D1*
X1220136D2*
X1502301D1*
X1541018D2*
X1773954D1*
X1812672D2*
X2239497D1*
X2278215D2*
X2485568D1*
X2564240D2*
X2574151D1*
X2612869D2*
X3066937D1*
X33071Y2306693D2*
X418639D1*
X457357D2*
X984576D1*
X1220136D2*
X1502301D1*
X1541018D2*
X1773954D1*
X1812672D2*
X2239497D1*
X2278215D2*
X2485568D1*
X2564240D2*
X2574151D1*
X2612869D2*
X3066937D1*
X33071Y2295013D2*
X418639D1*
X457357D2*
X984576D1*
X1220136D2*
X1502301D1*
X1541018D2*
X1773954D1*
X1812672D2*
X2239497D1*
X2278215D2*
X2485568D1*
X2564240D2*
X2574151D1*
X2612869D2*
X3066937D1*
X33071Y2283333D2*
X418639D1*
X457357D2*
X984576D1*
X1220136D2*
X1502301D1*
X1541018D2*
X1773954D1*
X1812672D2*
X2239497D1*
X2278215D2*
X2485568D1*
X2564240D2*
X2574151D1*
X2612869D2*
X3066937D1*
X33071Y2271654D2*
X80871D1*
X119127D2*
X418639D1*
X457357D2*
X984576D1*
X1220136D2*
X1502301D1*
X1541018D2*
X1773954D1*
X1812672D2*
X2239497D1*
X2278215D2*
X2485568D1*
X2564240D2*
X2574151D1*
X2612869D2*
X3066937D1*
X33071Y2259974D2*
X68783D1*
X131215D2*
X418639D1*
X457357D2*
X984576D1*
X1220136D2*
X1502301D1*
X1541018D2*
X1773954D1*
X1812672D2*
X2239497D1*
X2278215D2*
X2485568D1*
X2564240D2*
X2574151D1*
X2612869D2*
X3066937D1*
X33071Y2248294D2*
X64031D1*
X135967D2*
X418639D1*
X457357D2*
X984576D1*
X1220136D2*
X1300451D1*
X1317669D2*
X1502301D1*
X1541018D2*
X1773954D1*
X1812672D2*
X2239497D1*
X2278215D2*
X2485568D1*
X2564240D2*
X2574151D1*
X2612869D2*
X3066937D1*
X33071Y2236614D2*
X63524D1*
X136475D2*
X418639D1*
X548892D2*
X984576D1*
X1220136D2*
X1284419D1*
X1388075D2*
X1502301D1*
X1541018D2*
X1773954D1*
X1812672D2*
X2239497D1*
X2278215D2*
X2485568D1*
X2564240D2*
X2574151D1*
X2612869D2*
X3066937D1*
X33071Y2224934D2*
X67052D1*
X132945D2*
X418639D1*
X548892D2*
X984576D1*
X1220136D2*
X1280081D1*
X1400370D2*
X1502301D1*
X1541018D2*
X1773954D1*
X1812672D2*
X2239497D1*
X2278215D2*
X2485568D1*
X2564240D2*
X2574151D1*
X2612869D2*
X3066937D1*
X33071Y2213255D2*
X76510D1*
X123487D2*
X418639D1*
X548892D2*
X984576D1*
X1220136D2*
X1281005D1*
X1412066D2*
X1502301D1*
X1541018D2*
X1773954D1*
X1812672D2*
X2239497D1*
X2278215D2*
X2485568D1*
X2564240D2*
X2574151D1*
X2612869D2*
X3066937D1*
X33071Y2201575D2*
X418639D1*
X548892D2*
X984576D1*
X1220136D2*
X1287925D1*
X1330196D2*
X1369957D1*
X1420993D2*
X1502301D1*
X1541018D2*
X1773954D1*
X1812672D2*
X2239497D1*
X2278215D2*
X2485568D1*
X2564240D2*
X2574151D1*
X2612869D2*
X3066937D1*
X33071Y2189895D2*
X418639D1*
X548892D2*
X984576D1*
X1125648D2*
X1138119D1*
X1220136D2*
X1381652D1*
X1421916D2*
X1502301D1*
X1541018D2*
X1773954D1*
X1812672D2*
X2239497D1*
X2278215D2*
X2485568D1*
X2564240D2*
X2574151D1*
X2612869D2*
X3066937D1*
X33071Y2178215D2*
X418639D1*
X548892D2*
X984576D1*
X1125648D2*
X1138119D1*
X1220136D2*
X1383198D1*
X1421916D2*
X1502301D1*
X1541018D2*
X1773954D1*
X1812672D2*
X2239497D1*
X2278215D2*
X2485568D1*
X2564240D2*
X2574151D1*
X2612869D2*
X3066937D1*
X33071Y2166535D2*
X418639D1*
X548892D2*
X984576D1*
X1125648D2*
X1138119D1*
X1220136D2*
X1383198D1*
X1421916D2*
X1502301D1*
X1541018D2*
X1732062D1*
X1812672D2*
X2239497D1*
X2278215D2*
X2485568D1*
X2564240D2*
X2574151D1*
X2612869D2*
X3066937D1*
X33071Y2154856D2*
X418639D1*
X548892D2*
X984576D1*
X1125648D2*
X1134052D1*
X1265097D2*
X1383198D1*
X1421916D2*
X1502301D1*
X1541018D2*
X1724310D1*
X1812672D2*
X2239497D1*
X2278215D2*
X2485568D1*
X2564240D2*
X2574151D1*
X2612869D2*
X3066937D1*
X33071Y2143176D2*
X423459D1*
X477218D2*
X984576D1*
X1270379D2*
X1383198D1*
X1421916D2*
X1502301D1*
X1541018D2*
X1722857D1*
X1812672D2*
X2239497D1*
X2278215D2*
X2485568D1*
X2564240D2*
X2574151D1*
X2612869D2*
X3066937D1*
X33071Y2131496D2*
X435133D1*
X488891D2*
X893824D1*
X936879D2*
X984576D1*
X1270172D2*
X1287140D1*
X1330173D2*
X1383198D1*
X1421916D2*
X1502301D1*
X1541018D2*
X1726594D1*
X1812672D2*
X2239497D1*
X2278215D2*
X2485568D1*
X2564240D2*
X2574151D1*
X2612869D2*
X3066937D1*
X33071Y2119816D2*
X446804D1*
X943524D2*
X984576D1*
X1125648D2*
X1134787D1*
X1264382D2*
X1280497D1*
X1336816D2*
X1383198D1*
X1421916D2*
X1502301D1*
X1541018D2*
X1732615D1*
X1812672D2*
X2239497D1*
X2278215D2*
X2451449D1*
X2564240D2*
X2574151D1*
X2612869D2*
X3066937D1*
X33071Y2108136D2*
X458478D1*
X944261D2*
X984576D1*
X1125648D2*
X1181441D1*
X1261037D2*
X1279736D1*
X1337577D2*
X1375908D1*
X1429228D2*
X1502301D1*
X1541018D2*
X1732615D1*
X1812672D2*
X2239497D1*
X2278215D2*
X2441461D1*
X2564240D2*
X2574151D1*
X2612869D2*
X3066937D1*
X33071Y2096457D2*
X471050D1*
X939717D2*
X984576D1*
X1125648D2*
X1181441D1*
X1261037D2*
X1284281D1*
X1333033D2*
X1373348D1*
X1431766D2*
X1502301D1*
X1541018D2*
X1732615D1*
X1812672D2*
X2239497D1*
X2278215D2*
X2438900D1*
X2564240D2*
X2574151D1*
X2612869D2*
X3066937D1*
X33071Y2084777D2*
X908381D1*
X922323D2*
X984576D1*
X1125648D2*
X1181441D1*
X1261037D2*
X1289310D1*
X1328004D2*
X1375908D1*
X1429228D2*
X1502301D1*
X1541018D2*
X1732615D1*
X1812672D2*
X2239497D1*
X2278215D2*
X2441461D1*
X2564240D2*
X2574151D1*
X2612869D2*
X3066937D1*
X33071Y2073097D2*
X984576D1*
X1125648D2*
X1181441D1*
X1261037D2*
X1289310D1*
X1328004D2*
X1385896D1*
X1419240D2*
X1502301D1*
X1541018D2*
X1732615D1*
X1812672D2*
X2239497D1*
X2278215D2*
X2448751D1*
X2564240D2*
X2574151D1*
X2612869D2*
X3066937D1*
X33071Y2061417D2*
X984576D1*
X1125648D2*
X1181441D1*
X1261037D2*
X1289310D1*
X1328004D2*
X1502301D1*
X1541018D2*
X1597203D1*
X1627986D2*
X1672014D1*
X1702797D2*
X1732615D1*
X1812672D2*
X1952734D1*
X1983493D2*
X2239497D1*
X2278215D2*
X2448751D1*
X2564240D2*
X2574151D1*
X2612869D2*
X3066937D1*
X33071Y2049738D2*
X984576D1*
X1125648D2*
X1181441D1*
X1267957D2*
X1289310D1*
X1328004D2*
X1502301D1*
X1541018D2*
X1586315D1*
X1713685D2*
X1732615D1*
X1812672D2*
X1941845D1*
X1994382D2*
X2239497D1*
X2278215D2*
X2448751D1*
X2564240D2*
X2574151D1*
X2612869D2*
X3066937D1*
X33071Y2038058D2*
X984576D1*
X1125648D2*
X1181441D1*
X1270887D2*
X1289310D1*
X1328004D2*
X1502301D1*
X1541018D2*
X1583408D1*
X1716592D2*
X1732615D1*
X1812672D2*
X1938916D1*
X1997311D2*
X2234260D1*
X2283451D2*
X2448751D1*
X2564240D2*
X2574151D1*
X2612869D2*
X3066937D1*
X33071Y2026378D2*
X984576D1*
X1125648D2*
X1178097D1*
X1268696D2*
X1289310D1*
X1328004D2*
X1502301D1*
X1541018D2*
X1585577D1*
X1714423D2*
X1729731D1*
X1812672D2*
X1941108D1*
X1995143D2*
X2229900D1*
X2287811D2*
X2448751D1*
X2564240D2*
X2574151D1*
X2612869D2*
X3066937D1*
X33071Y2014698D2*
X984576D1*
X1125648D2*
X1177335D1*
X1259514D2*
X1289310D1*
X1328004D2*
X1502301D1*
X1541018D2*
X1594781D1*
X1630430D2*
X1669570D1*
X1705219D2*
X1723594D1*
X1812672D2*
X1948766D1*
X1987461D2*
X2230801D1*
X2286912D2*
X2448751D1*
X2564240D2*
X2574151D1*
X2612869D2*
X3066937D1*
X33071Y2003018D2*
X984576D1*
X1125648D2*
X1181857D1*
X1230633D2*
X1289310D1*
X1328004D2*
X1502301D1*
X1541018D2*
X1723180D1*
X1812672D2*
X1948766D1*
X1987461D2*
X2237651D1*
X2280060D2*
X2448751D1*
X2564240D2*
X2574151D1*
X2612869D2*
X3066937D1*
X33071Y1991339D2*
X984576D1*
X1125648D2*
X1199205D1*
X1213285D2*
X1289310D1*
X1328004D2*
X1502301D1*
X1541018D2*
X1728163D1*
X1812672D2*
X1948766D1*
X1987461D2*
X2448751D1*
X2564240D2*
X2574151D1*
X2612869D2*
X3066937D1*
X33071Y1979659D2*
X984576D1*
X1125648D2*
X1289310D1*
X1328004D2*
X1502301D1*
X1541018D2*
X1773954D1*
X1812672D2*
X1948766D1*
X1987461D2*
X2448751D1*
X2564240D2*
X2574151D1*
X2612869D2*
X3066937D1*
X33071Y1967979D2*
X984576D1*
X1125648D2*
X1289310D1*
X1328004D2*
X1502301D1*
X1541018D2*
X1773954D1*
X1812672D2*
X1948766D1*
X1987461D2*
X2448751D1*
X2564240D2*
X2574151D1*
X2612869D2*
X3066937D1*
X33071Y1956299D2*
X984576D1*
X1125648D2*
X1289310D1*
X1328004D2*
X1502301D1*
X1541018D2*
X1773954D1*
X1812672D2*
X1948766D1*
X1987461D2*
X2448751D1*
X2564240D2*
X2574151D1*
X2612869D2*
X3066937D1*
X33071Y1944619D2*
X984576D1*
X1125648D2*
X1289310D1*
X1328004D2*
X1502301D1*
X1541018D2*
X1773954D1*
X1812672D2*
X1948766D1*
X1987461D2*
X2448751D1*
X2564240D2*
X2574151D1*
X2612869D2*
X3066937D1*
X33071Y1932940D2*
X984576D1*
X1125648D2*
X1289310D1*
X1328004D2*
X1502301D1*
X1541018D2*
X1773954D1*
X1812672D2*
X1948766D1*
X1987461D2*
X2448751D1*
X2564240D2*
X2574151D1*
X2612869D2*
X3066937D1*
X33071Y1921260D2*
X984576D1*
X1125648D2*
X1289310D1*
X1328004D2*
X1502301D1*
X1541018D2*
X1773954D1*
X1812672D2*
X1948766D1*
X1987461D2*
X2448751D1*
X2564240D2*
X2574151D1*
X2612869D2*
X3066937D1*
X33071Y1909580D2*
X984576D1*
X1125648D2*
X1289310D1*
X1328004D2*
X1502301D1*
X1541018D2*
X1773954D1*
X1812672D2*
X1948766D1*
X1987461D2*
X2448751D1*
X2564240D2*
X2574151D1*
X2612869D2*
X3066937D1*
X33071Y1897900D2*
X984576D1*
X1125648D2*
X1289310D1*
X1328004D2*
X1502301D1*
X1541018D2*
X1773954D1*
X1812672D2*
X1948766D1*
X1987461D2*
X2448751D1*
X2564240D2*
X2574151D1*
X2612869D2*
X3066937D1*
X33071Y1886220D2*
X984576D1*
X1125648D2*
X1289310D1*
X1328004D2*
X1502301D1*
X1541018D2*
X1773954D1*
X1812672D2*
X1948766D1*
X1987461D2*
X2446974D1*
X2564240D2*
X2574151D1*
X2612869D2*
X3066937D1*
X33071Y1874541D2*
X984576D1*
X1125648D2*
X1289310D1*
X1328004D2*
X1502301D1*
X1541018D2*
X1773954D1*
X1812672D2*
X1948766D1*
X1987461D2*
X2440076D1*
X2564240D2*
X2574151D1*
X2612869D2*
X3066937D1*
X33071Y1862861D2*
X984576D1*
X1125648D2*
X1289310D1*
X1328004D2*
X1502301D1*
X1541018D2*
X1773954D1*
X1812672D2*
X1948766D1*
X1987461D2*
X2439154D1*
X2564240D2*
X2574151D1*
X2612869D2*
X3066937D1*
X33071Y1851181D2*
X984576D1*
X1125648D2*
X1289310D1*
X1328004D2*
X1502301D1*
X1541018D2*
X1773954D1*
X1812672D2*
X1948766D1*
X1987461D2*
X2443491D1*
X2564240D2*
X2574151D1*
X2612869D2*
X3066937D1*
X33071Y1839501D2*
X984576D1*
X1125648D2*
X1289310D1*
X1328004D2*
X1502301D1*
X1541018D2*
X1773954D1*
X1812672D2*
X1948766D1*
X1987461D2*
X2459524D1*
X2476696D2*
X2485568D1*
X2564240D2*
X2574151D1*
X2612869D2*
X3066937D1*
X33071Y1827822D2*
X984576D1*
X1125648D2*
X1289310D1*
X1328004D2*
X1502301D1*
X1541018D2*
X1773954D1*
X1812672D2*
X1948766D1*
X1987461D2*
X2485568D1*
X2564240D2*
X2574151D1*
X2612869D2*
X3066937D1*
X33071Y1816142D2*
X984576D1*
X1125648D2*
X1289310D1*
X1328004D2*
X1502301D1*
X1541018D2*
X1773954D1*
X1812672D2*
X1948766D1*
X1987461D2*
X2485568D1*
X2564240D2*
X2574151D1*
X2612869D2*
X3066937D1*
X33071Y1804462D2*
X984576D1*
X1125648D2*
X1289310D1*
X1328004D2*
X1502301D1*
X1541018D2*
X1773954D1*
X1812672D2*
X1948766D1*
X1987461D2*
X2485568D1*
X2564240D2*
X2574151D1*
X2612869D2*
X3066937D1*
X33071Y1792782D2*
X984576D1*
X1125648D2*
X1289310D1*
X1328004D2*
X1502301D1*
X1541018D2*
X1773954D1*
X1812672D2*
X1948766D1*
X1987461D2*
X2485568D1*
X2564240D2*
X2574151D1*
X2612869D2*
X3066937D1*
X33071Y1781102D2*
X984576D1*
X1125648D2*
X1289310D1*
X1328004D2*
X1502301D1*
X1541018D2*
X1773954D1*
X1812672D2*
X1948766D1*
X1987461D2*
X2485568D1*
X2564240D2*
X2574151D1*
X2612869D2*
X3066937D1*
X33071Y1769423D2*
X984576D1*
X1125648D2*
X1289310D1*
X1328004D2*
X1502301D1*
X1541018D2*
X1773954D1*
X1812672D2*
X1948766D1*
X1987461D2*
X2485568D1*
X2564240D2*
X2574151D1*
X2612869D2*
X3066937D1*
X33071Y1757743D2*
X984576D1*
X1125648D2*
X1289310D1*
X1328004D2*
X1502301D1*
X1541018D2*
X1773954D1*
X1812672D2*
X1948766D1*
X1987461D2*
X2485568D1*
X2564240D2*
X2574151D1*
X2612869D2*
X3066937D1*
X33071Y1746063D2*
X984576D1*
X1125648D2*
X1289310D1*
X1328004D2*
X1502301D1*
X1541018D2*
X1773954D1*
X1812672D2*
X1948766D1*
X1987461D2*
X2485568D1*
X2564240D2*
X2574151D1*
X2612869D2*
X3066937D1*
X33071Y1734383D2*
X984576D1*
X1125648D2*
X1289310D1*
X1328004D2*
X1502301D1*
X1541018D2*
X1773954D1*
X1812672D2*
X1948766D1*
X1987461D2*
X2485568D1*
X2564240D2*
X2574151D1*
X2612869D2*
X3066937D1*
X33071Y1722703D2*
X984576D1*
X1125648D2*
X1289310D1*
X1328004D2*
X1502301D1*
X1541018D2*
X1773954D1*
X1812672D2*
X1948766D1*
X1987461D2*
X2485568D1*
X2564240D2*
X2574151D1*
X2612869D2*
X3066937D1*
X33071Y1711024D2*
X984576D1*
X1125648D2*
X1289310D1*
X1328004D2*
X1502301D1*
X1541018D2*
X1773954D1*
X1812672D2*
X1948766D1*
X1987461D2*
X2485568D1*
X2564240D2*
X2574151D1*
X2612869D2*
X3066937D1*
X33071Y1699344D2*
X984576D1*
X1125648D2*
X1289310D1*
X1328004D2*
X1502301D1*
X1541018D2*
X1773954D1*
X1812672D2*
X1948766D1*
X1987461D2*
X2485568D1*
X2564240D2*
X2574151D1*
X2612869D2*
X3066937D1*
X33071Y1687664D2*
X514188D1*
X585802D2*
X984576D1*
X1125648D2*
X1289310D1*
X1328004D2*
X1502301D1*
X1541018D2*
X1773954D1*
X1812672D2*
X1948766D1*
X1987461D2*
X2485568D1*
X2564240D2*
X2574151D1*
X2612869D2*
X3066937D1*
X33071Y1675984D2*
X492965D1*
X607025D2*
X984576D1*
X1125648D2*
X1289310D1*
X1328004D2*
X1502301D1*
X1541018D2*
X1773954D1*
X1812672D2*
X1948766D1*
X1987461D2*
X2485568D1*
X2564240D2*
X2574151D1*
X2612869D2*
X3066937D1*
X33071Y1664304D2*
X479770D1*
X620219D2*
X984576D1*
X1125648D2*
X1289310D1*
X1328004D2*
X1502301D1*
X1541018D2*
X1773954D1*
X1812672D2*
X1948766D1*
X1987461D2*
X2485568D1*
X2564240D2*
X2574151D1*
X2612869D2*
X3066937D1*
X33071Y1652625D2*
X470450D1*
X629562D2*
X984576D1*
X1125648D2*
X1289310D1*
X1328004D2*
X1502301D1*
X1541018D2*
X1773954D1*
X1812672D2*
X1948766D1*
X1987461D2*
X2485568D1*
X2564240D2*
X2574151D1*
X2612869D2*
X3066937D1*
X33071Y1640945D2*
X463714D1*
X636298D2*
X984576D1*
X1125648D2*
X1289310D1*
X1328004D2*
X1502301D1*
X1541018D2*
X1773954D1*
X1812672D2*
X1948766D1*
X1987461D2*
X2485568D1*
X2564240D2*
X2574151D1*
X2612869D2*
X3066937D1*
X33071Y1629265D2*
X458962D1*
X641028D2*
X984576D1*
X1125648D2*
X1289310D1*
X1328004D2*
X1502301D1*
X1541018D2*
X1773954D1*
X1812672D2*
X1948766D1*
X1987461D2*
X2485568D1*
X2564240D2*
X2574151D1*
X2612869D2*
X3066937D1*
X33071Y1617585D2*
X455917D1*
X644072D2*
X984576D1*
X1125648D2*
X1289310D1*
X1328004D2*
X1502301D1*
X1541018D2*
X1773954D1*
X1812672D2*
X1948766D1*
X1987461D2*
X2485568D1*
X2564240D2*
X2574151D1*
X2612869D2*
X3066937D1*
X33071Y1605906D2*
X454417D1*
X645594D2*
X984576D1*
X1125648D2*
X1289310D1*
X1328004D2*
X1502301D1*
X1541018D2*
X1773954D1*
X1812672D2*
X1948766D1*
X1987461D2*
X2485568D1*
X2564240D2*
X2574151D1*
X2612869D2*
X3066937D1*
X33071Y1594226D2*
X454348D1*
X645640D2*
X984576D1*
X1125648D2*
X1289310D1*
X1328004D2*
X1502301D1*
X1541018D2*
X1773954D1*
X1812672D2*
X1948766D1*
X1987461D2*
X2485568D1*
X2564240D2*
X2574151D1*
X2612869D2*
X3066937D1*
X33071Y1582546D2*
X455756D1*
X644257D2*
X984576D1*
X1125648D2*
X1289310D1*
X1328004D2*
X1502301D1*
X1541018D2*
X1773954D1*
X1812672D2*
X1948766D1*
X1987461D2*
X2485568D1*
X2564240D2*
X2574151D1*
X2612869D2*
X3066937D1*
X33071Y1570866D2*
X458663D1*
X641327D2*
X984576D1*
X1125648D2*
X1289310D1*
X1328004D2*
X1502301D1*
X1541018D2*
X1773954D1*
X1812672D2*
X1948766D1*
X1987461D2*
X2485568D1*
X2564240D2*
X2574151D1*
X2612869D2*
X3066937D1*
X33071Y1559186D2*
X463276D1*
X636736D2*
X984576D1*
X1125648D2*
X1289310D1*
X1328004D2*
X1502301D1*
X1541018D2*
X1768509D1*
X1818115D2*
X1948766D1*
X1987461D2*
X2485568D1*
X2564240D2*
X2574151D1*
X2612869D2*
X3066937D1*
X33071Y1547507D2*
X469827D1*
X630161D2*
X984576D1*
X1125648D2*
X1289310D1*
X1328004D2*
X1502301D1*
X1541018D2*
X1764311D1*
X1822314D2*
X1948766D1*
X1987461D2*
X2485568D1*
X2564240D2*
X2574151D1*
X2612869D2*
X3066937D1*
X33071Y1535827D2*
X478916D1*
X621073D2*
X984576D1*
X1125648D2*
X1289310D1*
X1328004D2*
X1502301D1*
X1541018D2*
X1765349D1*
X1821276D2*
X1948766D1*
X1987461D2*
X2485568D1*
X2564240D2*
X2574151D1*
X2612869D2*
X3066937D1*
X33071Y1524147D2*
X491743D1*
X608270D2*
X984576D1*
X1125648D2*
X1289310D1*
X1328004D2*
X1502301D1*
X1541018D2*
X1772430D1*
X1814171D2*
X1948766D1*
X1987461D2*
X2485568D1*
X2564240D2*
X2574151D1*
X2612869D2*
X3066937D1*
X33071Y1512467D2*
X511950D1*
X588062D2*
X984576D1*
X1125648D2*
X1289310D1*
X1328004D2*
X1502301D1*
X1541018D2*
X1948766D1*
X1987461D2*
X2485568D1*
X2564240D2*
X2574151D1*
X2612869D2*
X3066937D1*
X33071Y1500787D2*
X984576D1*
X1125648D2*
X1289310D1*
X1328004D2*
X1502301D1*
X1541018D2*
X1948766D1*
X1987461D2*
X2485568D1*
X2564240D2*
X2574151D1*
X2612869D2*
X3066937D1*
X33071Y1489108D2*
X984576D1*
X1125648D2*
X1289310D1*
X1328004D2*
X1502301D1*
X1541018D2*
X1948766D1*
X1987461D2*
X2485568D1*
X2564240D2*
X2574151D1*
X2612869D2*
X3066937D1*
X33071Y1477428D2*
X984576D1*
X1125648D2*
X1289310D1*
X1328004D2*
X1502301D1*
X1541018D2*
X1948766D1*
X1987461D2*
X2485568D1*
X2564240D2*
X2574151D1*
X2612869D2*
X3066937D1*
X33071Y1465748D2*
X984576D1*
X1125648D2*
X1289310D1*
X1328004D2*
X1502301D1*
X1541018D2*
X1948766D1*
X1987461D2*
X2485568D1*
X2564240D2*
X2574151D1*
X2612869D2*
X3066937D1*
X33071Y1454068D2*
X984576D1*
X1125648D2*
X1289310D1*
X1328004D2*
X1502301D1*
X1541018D2*
X1948766D1*
X1987461D2*
X2485568D1*
X2564240D2*
X2574151D1*
X2612869D2*
X3066937D1*
X33071Y1442388D2*
X984576D1*
X1125648D2*
X1289310D1*
X1328004D2*
X1502301D1*
X1541018D2*
X1948766D1*
X1987461D2*
X2485568D1*
X2564240D2*
X2574151D1*
X2612869D2*
X3066937D1*
X33071Y1430709D2*
X984576D1*
X1125648D2*
X1289310D1*
X1328004D2*
X1502301D1*
X1541018D2*
X1948766D1*
X1987461D2*
X2485568D1*
X2564240D2*
X2574151D1*
X2612869D2*
X3066937D1*
X33071Y1419029D2*
X984576D1*
X1125648D2*
X1289310D1*
X1328004D2*
X1502301D1*
X1541018D2*
X1948766D1*
X1987461D2*
X2485568D1*
X2564240D2*
X2574151D1*
X2612869D2*
X3066937D1*
X33071Y1407349D2*
X984576D1*
X1125648D2*
X1289310D1*
X1328004D2*
X1502301D1*
X1541018D2*
X1948766D1*
X1987461D2*
X2485568D1*
X2564240D2*
X2574151D1*
X2612869D2*
X3066937D1*
X33071Y1395669D2*
X984576D1*
X1125648D2*
X1289310D1*
X1328004D2*
X1502301D1*
X1541018D2*
X1948766D1*
X1987461D2*
X2485568D1*
X2564240D2*
X2574151D1*
X2612869D2*
X3066937D1*
X33071Y1383990D2*
X979663D1*
X1125648D2*
X1289310D1*
X1328004D2*
X1502301D1*
X1541018D2*
X1945005D1*
X1991220D2*
X2480631D1*
X2564240D2*
X2574151D1*
X2612869D2*
X3066937D1*
X33071Y1372310D2*
X975049D1*
X1125648D2*
X1289310D1*
X1328004D2*
X1502301D1*
X1541018D2*
X1939492D1*
X1996735D2*
X2476017D1*
X2564240D2*
X2574151D1*
X2612869D2*
X3066937D1*
X33071Y1360630D2*
X975740D1*
X1125648D2*
X1289310D1*
X1328004D2*
X1502301D1*
X1541018D2*
X1939538D1*
X1996688D2*
X2476732D1*
X2564240D2*
X2574151D1*
X2612869D2*
X3066937D1*
X33071Y1348950D2*
X982291D1*
X1125648D2*
X1289310D1*
X1328004D2*
X1502301D1*
X1541018D2*
X1945098D1*
X1991129D2*
X2483283D1*
X2564240D2*
X2574151D1*
X2612869D2*
X3066937D1*
X33071Y1337270D2*
X1023954D1*
X1125648D2*
X1289310D1*
X1328004D2*
X1502301D1*
X1541018D2*
X2525522D1*
X2564240D2*
X2574151D1*
X2612869D2*
X3066937D1*
X33071Y1325591D2*
X1023954D1*
X1125648D2*
X1289310D1*
X1328004D2*
X1502301D1*
X1541018D2*
X2525522D1*
X2564240D2*
X2574151D1*
X2612869D2*
X3066937D1*
X33071Y1313911D2*
X1023954D1*
X1125648D2*
X1289310D1*
X1328004D2*
X1502301D1*
X1541018D2*
X2525522D1*
X2564240D2*
X2574151D1*
X2612869D2*
X3066937D1*
X33071Y1302231D2*
X1023954D1*
X1125648D2*
X1289310D1*
X1328004D2*
X1502301D1*
X1541018D2*
X2525522D1*
X2564240D2*
X2574151D1*
X2612869D2*
X3066937D1*
X33071Y1290551D2*
X1023954D1*
X1125648D2*
X1289310D1*
X1328004D2*
X1502301D1*
X1541018D2*
X2525522D1*
X2564240D2*
X2574151D1*
X2612869D2*
X3066937D1*
X33071Y1278871D2*
X1023954D1*
X1125648D2*
X1289310D1*
X1328004D2*
X1502301D1*
X1541018D2*
X2525522D1*
X2564240D2*
X2574151D1*
X2612869D2*
X3066937D1*
X33071Y1267192D2*
X1023954D1*
X1125648D2*
X1289310D1*
X1328004D2*
X1502301D1*
X1541018D2*
X2525522D1*
X2564240D2*
X2574151D1*
X2612869D2*
X3066937D1*
X33071Y1255512D2*
X1023954D1*
X1125648D2*
X1289310D1*
X1328004D2*
X1502301D1*
X1541018D2*
X2525522D1*
X2564240D2*
X2574151D1*
X2612869D2*
X3066937D1*
X33071Y1243832D2*
X1023954D1*
X1125648D2*
X1289310D1*
X1328004D2*
X1502301D1*
X1541018D2*
X2525522D1*
X2564240D2*
X2574151D1*
X2612869D2*
X3066937D1*
X33071Y1232152D2*
X1023954D1*
X1125648D2*
X1289310D1*
X1328004D2*
X1502301D1*
X1541018D2*
X2525522D1*
X2564240D2*
X2574151D1*
X2612869D2*
X3066937D1*
X33071Y1220472D2*
X1023954D1*
X1125648D2*
X1289310D1*
X1328004D2*
X1502301D1*
X1541018D2*
X2525522D1*
X2564240D2*
X2574151D1*
X2612869D2*
X3066937D1*
X33071Y1208793D2*
X1023954D1*
X1125648D2*
X1289310D1*
X1328004D2*
X1502301D1*
X1541018D2*
X2525522D1*
X2564240D2*
X2574151D1*
X2612869D2*
X3066937D1*
X33071Y1197113D2*
X1023954D1*
X1125648D2*
X1289310D1*
X1328004D2*
X1502301D1*
X1541018D2*
X2525522D1*
X2564240D2*
X2574151D1*
X2612869D2*
X3066937D1*
X33071Y1185433D2*
X1016686D1*
X1125648D2*
X1186609D1*
X1225972D2*
X1289310D1*
X1328004D2*
X1502301D1*
X1541018D2*
X2525522D1*
X2564240D2*
X2574151D1*
X2612869D2*
X3066937D1*
X33071Y1173753D2*
X1010181D1*
X1125648D2*
X1178697D1*
X1233885D2*
X1289310D1*
X1328004D2*
X1502301D1*
X1541018D2*
X2525522D1*
X2564240D2*
X2574151D1*
X2612869D2*
X3066937D1*
X33071Y1162073D2*
X1009490D1*
X1125648D2*
X1177173D1*
X1235408D2*
X1289310D1*
X1328004D2*
X1502301D1*
X1541018D2*
X2525522D1*
X2564240D2*
X2574151D1*
X2612869D2*
X3066937D1*
X33071Y1150394D2*
X1014150D1*
X1125648D2*
X1180819D1*
X1231786D2*
X1289310D1*
X1328004D2*
X1502301D1*
X1541018D2*
X2525522D1*
X2564240D2*
X2574151D1*
X2612869D2*
X3066937D1*
X33071Y1138714D2*
X1032442D1*
X1125648D2*
X1186356D1*
X1225073D2*
X1289310D1*
X1328004D2*
X1502301D1*
X1541018D2*
X2525522D1*
X2564240D2*
X2574151D1*
X2612869D2*
X3066937D1*
X33071Y1127034D2*
X1047576D1*
X1125648D2*
X1186356D1*
X1225073D2*
X1289310D1*
X1328004D2*
X1502301D1*
X1541018D2*
X2525522D1*
X2564240D2*
X2574151D1*
X2612869D2*
X3066937D1*
X33071Y1115354D2*
X1047576D1*
X1125648D2*
X1186356D1*
X1225073D2*
X1289310D1*
X1328004D2*
X1502301D1*
X1541018D2*
X2525522D1*
X2564240D2*
X2574151D1*
X2612869D2*
X3066937D1*
X33071Y1103675D2*
X1047576D1*
X1125648D2*
X1186356D1*
X1225073D2*
X1289310D1*
X1328004D2*
X1502301D1*
X1541018D2*
X2525522D1*
X2564240D2*
X2574151D1*
X2612869D2*
X3066937D1*
X33071Y1091995D2*
X1047576D1*
X1125648D2*
X1186356D1*
X1225073D2*
X1289310D1*
X1328004D2*
X1502301D1*
X1541018D2*
X2525522D1*
X2564240D2*
X2574151D1*
X2612869D2*
X3066937D1*
X33071Y1080315D2*
X1047576D1*
X1125648D2*
X1186356D1*
X1225073D2*
X1289310D1*
X1328004D2*
X1502301D1*
X1541018D2*
X2525522D1*
X2564240D2*
X2574151D1*
X2612869D2*
X3066937D1*
X33071Y1068635D2*
X1047576D1*
X1125648D2*
X1186356D1*
X1225073D2*
X1289310D1*
X1328004D2*
X1502301D1*
X1541018D2*
X2525522D1*
X2564240D2*
X2574151D1*
X2612869D2*
X3066937D1*
X33071Y1056955D2*
X1047576D1*
X1125648D2*
X1186356D1*
X1225073D2*
X1289310D1*
X1328004D2*
X1502301D1*
X1541018D2*
X2525522D1*
X2564240D2*
X2574151D1*
X2612869D2*
X3066937D1*
X33071Y1045276D2*
X1047576D1*
X1125648D2*
X1186356D1*
X1225073D2*
X1289310D1*
X1328004D2*
X1502301D1*
X1574098D2*
X2525522D1*
X2564240D2*
X2574151D1*
X2612869D2*
X3066937D1*
X33071Y1033596D2*
X1047576D1*
X1125648D2*
X1178327D1*
X1233077D2*
X1289310D1*
X1328004D2*
X1502301D1*
X1582495D2*
X2525522D1*
X2564240D2*
X2574151D1*
X2612869D2*
X3066937D1*
X33071Y1021916D2*
X1047576D1*
X1125648D2*
X1176551D1*
X1234877D2*
X1289310D1*
X1328004D2*
X1502301D1*
X1584272D2*
X2525522D1*
X2564240D2*
X2574151D1*
X2612869D2*
X3066937D1*
X33071Y1010236D2*
X1047576D1*
X1125648D2*
X1179896D1*
X1231509D2*
X1289310D1*
X1328004D2*
X1502301D1*
X1580927D2*
X2525522D1*
X2564240D2*
X2574151D1*
X2612869D2*
X3066937D1*
X33071Y998556D2*
X1047576D1*
X1125648D2*
X1191984D1*
X1219445D2*
X1289310D1*
X1328004D2*
X1502301D1*
X1574467D2*
X2525522D1*
X2564240D2*
X2574151D1*
X2612869D2*
X3066937D1*
X33071Y986877D2*
X1047576D1*
X1125648D2*
X1289310D1*
X1328004D2*
X1502301D1*
X1574467D2*
X2525522D1*
X2564240D2*
X2574151D1*
X2612869D2*
X3066937D1*
X33071Y975197D2*
X1047576D1*
X1125648D2*
X1289310D1*
X1328004D2*
X1502301D1*
X1574467D2*
X2525522D1*
X2564240D2*
X2574151D1*
X2612869D2*
X3066937D1*
X33071Y963517D2*
X1047576D1*
X1125648D2*
X1289310D1*
X1328004D2*
X1502301D1*
X1574467D2*
X2525522D1*
X2564240D2*
X2574151D1*
X2612869D2*
X3066937D1*
X33071Y951837D2*
X1047576D1*
X1125648D2*
X1289310D1*
X1328004D2*
X1502301D1*
X1574467D2*
X2525522D1*
X2564240D2*
X2574151D1*
X2612869D2*
X3066937D1*
X33071Y940157D2*
X1047576D1*
X1127678D2*
X1283520D1*
X1333794D2*
X1502301D1*
X1574467D2*
X2525522D1*
X2564240D2*
X2574151D1*
X2612869D2*
X3066937D1*
X33071Y928478D2*
X1042131D1*
X1139350D2*
X1279597D1*
X1337717D2*
X1502301D1*
X1574467D2*
X2525522D1*
X2564240D2*
X2574151D1*
X2612869D2*
X3066937D1*
X33071Y916798D2*
X1026469D1*
X1151024D2*
X1184648D1*
X1491744D2*
X1502301D1*
X1574467D2*
X1700388D1*
X1999618D2*
X2525522D1*
X2564240D2*
X2574151D1*
X2612869D2*
X3066937D1*
X33071Y905118D2*
X1022201D1*
X1162719D2*
X1179526D1*
X1574467D2*
X1695268D1*
X2004739D2*
X2525522D1*
X2564240D2*
X2574151D1*
X2612869D2*
X3066937D1*
X33071Y893438D2*
X1023169D1*
X1105971D2*
X1120610D1*
X1574467D2*
X1695567D1*
X2004416D2*
X2525522D1*
X2564240D2*
X2574151D1*
X2612869D2*
X3066937D1*
X33071Y881759D2*
X1030182D1*
X1115268D2*
X1132306D1*
X1230724D2*
X1283934D1*
X1574467D2*
X1701542D1*
X1746465D2*
X1953518D1*
X1998465D2*
X2525522D1*
X2564240D2*
X2571360D1*
X2620781D2*
X3066937D1*
X33071Y870079D2*
X1061555D1*
X1119535D2*
X1143979D1*
X1197760D2*
X1279667D1*
X1574467D2*
X2525522D1*
X2625049D2*
X3066937D1*
X33071Y858399D2*
X1062547D1*
X1118566D2*
X1155651D1*
X1208417D2*
X1280659D1*
X1574467D2*
X2525522D1*
X2624080D2*
X3066937D1*
X33071Y846719D2*
X1069537D1*
X1111554D2*
X1167346D1*
X1210701D2*
X1287648D1*
X1329665D2*
X1472172D1*
X1574467D2*
X2525522D1*
X2564240D2*
X2575050D1*
X2617067D2*
X3066937D1*
X33071Y835039D2*
X1171983D1*
X1210701D2*
X1502301D1*
X1574467D2*
X2525522D1*
X2564240D2*
X3066937D1*
X33071Y823360D2*
X1171983D1*
X1210701D2*
X1502301D1*
X1574467D2*
X2525522D1*
X2564240D2*
X3066937D1*
X33071Y811680D2*
X1171983D1*
X1210701D2*
X1502301D1*
X1574467D2*
X2525522D1*
X2564240D2*
X3066937D1*
X33071Y800000D2*
X1171983D1*
X1210701D2*
X1502301D1*
X1574467D2*
X2525522D1*
X2564240D2*
X3066937D1*
X33071Y788320D2*
X1171983D1*
X1210701D2*
X1502301D1*
X1574467D2*
X2525522D1*
X2564240D2*
X3066937D1*
X33071Y776640D2*
X1171983D1*
X1210701D2*
X1502301D1*
X1574467D2*
X2525522D1*
X2564240D2*
X3066937D1*
X33071Y764961D2*
X1171983D1*
X1210701D2*
X1502301D1*
X1574467D2*
X2525522D1*
X2564240D2*
X3066937D1*
X33071Y753281D2*
X1171983D1*
X1210701D2*
X1502301D1*
X1574467D2*
X2525522D1*
X2564240D2*
X3066937D1*
X33071Y741601D2*
X1171983D1*
X1210701D2*
X1502301D1*
X1574467D2*
X2525522D1*
X2564240D2*
X3066937D1*
X33071Y729921D2*
X1171983D1*
X1210701D2*
X1502301D1*
X1574467D2*
X2525522D1*
X2564240D2*
X3066937D1*
X33071Y718241D2*
X1171983D1*
X1210701D2*
X1502301D1*
X1574467D2*
X2525522D1*
X2564240D2*
X3066937D1*
X33071Y706562D2*
X1171983D1*
X1210701D2*
X1502301D1*
X1574467D2*
X2525522D1*
X2564240D2*
X3066937D1*
X33071Y694882D2*
X1171983D1*
X1210701D2*
X1502301D1*
X1574467D2*
X2525522D1*
X2564240D2*
X3066937D1*
X33071Y683202D2*
X1171983D1*
X1210701D2*
X1502301D1*
X1574467D2*
X2525522D1*
X2564240D2*
X3066937D1*
X33071Y671522D2*
X1171983D1*
X1210701D2*
X1502301D1*
X1574467D2*
X2525522D1*
X2564240D2*
X3066937D1*
X33071Y659843D2*
X1171983D1*
X1210701D2*
X1502301D1*
X1574467D2*
X2525522D1*
X2564240D2*
X3066937D1*
X33071Y648163D2*
X1171983D1*
X1210701D2*
X1502301D1*
X1574467D2*
X2525522D1*
X2564240D2*
X3066937D1*
X33071Y636483D2*
X1171983D1*
X1210701D2*
X1502301D1*
X1574467D2*
X2525522D1*
X2564240D2*
X3066937D1*
X33071Y624803D2*
X1171983D1*
X1210701D2*
X1502301D1*
X1574467D2*
X2049575D1*
X2079504D2*
X2525522D1*
X2564240D2*
X3066937D1*
X33071Y613123D2*
X1171983D1*
X1210701D2*
X1495495D1*
X1574467D2*
X2038387D1*
X2090692D2*
X2525522D1*
X2564240D2*
X3066937D1*
X33071Y601444D2*
X1171983D1*
X1210701D2*
X1492450D1*
X1574467D2*
X2035341D1*
X2093738D2*
X2525522D1*
X2564240D2*
X3066937D1*
X33071Y589764D2*
X1171983D1*
X1210701D2*
X1494526D1*
X1574467D2*
X2037417D1*
X2091660D2*
X2525522D1*
X2564240D2*
X3066937D1*
X33071Y578084D2*
X1171983D1*
X1210701D2*
X1503500D1*
X1574467D2*
X2045192D1*
X2083887D2*
X2525522D1*
X2564240D2*
X3066937D1*
X33071Y566404D2*
X516264D1*
X583726D2*
X1171983D1*
X1210701D2*
X1535772D1*
X1574467D2*
X2045192D1*
X2083887D2*
X2525522D1*
X2564240D2*
X3066937D1*
X33071Y554724D2*
X494072D1*
X605940D2*
X1171983D1*
X1210701D2*
X1535772D1*
X1574467D2*
X2045192D1*
X2083887D2*
X2525522D1*
X2564240D2*
X3066937D1*
X33071Y543045D2*
X480531D1*
X619482D2*
X1171983D1*
X1210701D2*
X1535772D1*
X1574467D2*
X2045192D1*
X2083887D2*
X2525522D1*
X2564240D2*
X3066937D1*
X33071Y531365D2*
X470980D1*
X629008D2*
X1171983D1*
X1210701D2*
X1535772D1*
X1574467D2*
X2045192D1*
X2083887D2*
X2525522D1*
X2564240D2*
X3066937D1*
X33071Y519685D2*
X464083D1*
X635906D2*
X1171983D1*
X1210701D2*
X1535772D1*
X1574467D2*
X2045192D1*
X2083887D2*
X2525522D1*
X2564240D2*
X3066937D1*
X33071Y508005D2*
X459239D1*
X640773D2*
X1171983D1*
X1210701D2*
X1535772D1*
X1574467D2*
X2045192D1*
X2083887D2*
X2525522D1*
X2564240D2*
X3066937D1*
X33071Y496325D2*
X456079D1*
X643911D2*
X1171983D1*
X1210701D2*
X1535772D1*
X1574467D2*
X2045192D1*
X2083887D2*
X2525522D1*
X2564240D2*
X3066937D1*
X33071Y484646D2*
X454463D1*
X645525D2*
X1171983D1*
X1210701D2*
X1535772D1*
X1574467D2*
X2045192D1*
X2083887D2*
X2525522D1*
X2564240D2*
X3066937D1*
X33071Y472966D2*
X454302D1*
X645686D2*
X1171983D1*
X1210701D2*
X1535772D1*
X1574467D2*
X2045192D1*
X2083887D2*
X2525522D1*
X2564240D2*
X3066937D1*
X33071Y461286D2*
X455617D1*
X644395D2*
X1171983D1*
X1210701D2*
X1535772D1*
X1574467D2*
X2045192D1*
X2083887D2*
X2525522D1*
X2564240D2*
X3066937D1*
X33071Y449606D2*
X458432D1*
X641581D2*
X1171983D1*
X1210701D2*
X1535772D1*
X1574467D2*
X2045192D1*
X2083887D2*
X2525522D1*
X2564240D2*
X3066937D1*
X33071Y437927D2*
X462907D1*
X637105D2*
X1171983D1*
X1210701D2*
X1535772D1*
X1574467D2*
X2045192D1*
X2083887D2*
X2525522D1*
X2564240D2*
X3066937D1*
X33071Y426247D2*
X469320D1*
X630669D2*
X1171983D1*
X1210701D2*
X1535772D1*
X1574467D2*
X2045192D1*
X2083887D2*
X2525522D1*
X2564240D2*
X3066937D1*
X33071Y414567D2*
X478224D1*
X621789D2*
X1171983D1*
X1210701D2*
X1535772D1*
X1574467D2*
X2045192D1*
X2083887D2*
X2525522D1*
X2564240D2*
X3066937D1*
X33071Y402887D2*
X490705D1*
X609285D2*
X1171983D1*
X1210701D2*
X1535772D1*
X1574467D2*
X2045192D1*
X2083887D2*
X2525522D1*
X2564240D2*
X3066937D1*
X33071Y391207D2*
X510127D1*
X589861D2*
X1171983D1*
X1210701D2*
X1535772D1*
X1574467D2*
X2045192D1*
X2083887D2*
X2525522D1*
X2564240D2*
X3066937D1*
X33071Y379528D2*
X1165316D1*
X1217369D2*
X1529314D1*
X1580927D2*
X2038525D1*
X2090554D2*
X2518856D1*
X2570907D2*
X3066937D1*
X33071Y367848D2*
X1162156D1*
X1220529D2*
X1525969D1*
X1584272D2*
X2035365D1*
X2093714D2*
X2515696D1*
X2574067D2*
X3066937D1*
X33071Y356168D2*
X1164117D1*
X1218568D2*
X1527744D1*
X1582495D2*
X2037325D1*
X2091753D2*
X2517656D1*
X2572106D2*
X3066937D1*
X33071Y344488D2*
X1172837D1*
X1209825D2*
X1536142D1*
X1574098D2*
X2046046D1*
X2083033D2*
X2526399D1*
X2563387D2*
X3066937D1*
X33071Y332808D2*
X3066937D1*
X33071Y321129D2*
X3066937D1*
X33071Y309449D2*
X3066937D1*
X33071Y297769D2*
X3066937D1*
X33071Y286089D2*
X3066937D1*
X33071Y274409D2*
X3066937D1*
X33071Y262730D2*
X3066937D1*
X33071Y251050D2*
X3066937D1*
X33071Y239370D2*
X3066937D1*
X33071Y227690D2*
X3066937D1*
X33071Y216010D2*
X3066937D1*
X33071Y204331D2*
X3066937D1*
X33071Y192651D2*
X3066937D1*
X33071Y180971D2*
X3066937D1*
X33071Y169291D2*
X3066937D1*
X33071Y157612D2*
X3066937D1*
X33071Y145932D2*
X3066937D1*
X33071Y134252D2*
X3066937D1*
X33071Y122572D2*
X3066937D1*
X33071Y110892D2*
X3066937D1*
X33071Y99213D2*
X3066937D1*
X33071Y87533D2*
X3066937D1*
X33071Y75853D2*
X3066937D1*
X33071Y64173D2*
X3066937D1*
X33071Y52493D2*
X3066937D1*
X33071Y40814D2*
X3066937D1*
X456182Y2247717D2*
X547717D1*
Y2152283D1*
X466908D1*
X488844Y2130383D1*
X894039Y2130409D1*
X897150Y2133520D1*
X900707Y2136105D1*
X904627Y2138102D1*
X908811Y2139462D1*
X913155Y2140150D1*
X917554D1*
X921898Y2139462D1*
X926081Y2138102D1*
X930001Y2136105D1*
X933559Y2133520D1*
X936669Y2130409D1*
X939255Y2126852D1*
X941252Y2122932D1*
X942612Y2118748D1*
X943299Y2114404D1*
Y2110005D1*
X942612Y2105661D1*
X941252Y2101478D1*
X939255Y2097558D1*
X936669Y2094000D1*
X933559Y2090890D1*
X930001Y2088304D1*
X926081Y2086307D1*
X921898Y2084948D1*
X917554Y2084260D1*
X913155D1*
X908811Y2084948D1*
X904627Y2086307D1*
X900707Y2088304D1*
X897150Y2090890D1*
X894012Y2094034D1*
X479873Y2094072D1*
X477052Y2094518D1*
X474339Y2095400D1*
X471795Y2096696D1*
X469487Y2098374D1*
X451735Y2116046D1*
X424161Y2143699D1*
X422483Y2146008D1*
X421188Y2148551D1*
X420306Y2151265D1*
X419860Y2154085D1*
X419803Y2179134D1*
X419860Y2738631D1*
X420306Y2741451D1*
X421188Y2744165D1*
X422483Y2746709D1*
X424161Y2749017D1*
X441833Y2766769D1*
X641346Y2966304D1*
Y2970703D1*
X642034Y2975047D1*
X643394Y2979231D1*
X645391Y2983151D1*
X647976Y2986709D1*
X651087Y2989819D1*
X654644Y2992404D1*
X658564Y2994402D1*
X662748Y2995761D1*
X667092Y2996449D1*
X671491D1*
X675835Y2995761D1*
X680018Y2994402D1*
X683938Y2992404D1*
X687496Y2989819D1*
X688513Y2988879D1*
X688504Y3121609D1*
X649143Y3160933D1*
X645222Y3161290D1*
X640944Y3162316D1*
X636881Y3164000D1*
X633130Y3166298D1*
X629785Y3169155D1*
X626928Y3172500D1*
X624630Y3176251D1*
X622946Y3180314D1*
X621920Y3184592D1*
X621575Y3188976D1*
X621920Y3193361D1*
X622946Y3197639D1*
X624630Y3201702D1*
X626928Y3205453D1*
X629785Y3208798D1*
X633130Y3211655D1*
X636881Y3213953D1*
X640944Y3215636D1*
X645222Y3216663D1*
X649606Y3217008D1*
X653991Y3216663D1*
X658269Y3215636D1*
X662332Y3213953D1*
X666083Y3211655D1*
X669428Y3208798D1*
X672285Y3205453D1*
X674583Y3201702D1*
X676266Y3197639D1*
X677293Y3193361D1*
X677619Y3189449D1*
X723990Y3143013D1*
X725849Y3140454D1*
X727285Y3137635D1*
X728262Y3134627D1*
X728757Y3131503D1*
X728819Y3112205D1*
Y2705163D1*
X894206Y2539814D1*
X964421Y2539843D1*
X962164Y2542579D1*
X959866Y2546329D1*
X958182Y2550392D1*
X957156Y2554671D1*
X956811Y2559055D1*
X957156Y2563440D1*
X958182Y2567718D1*
X959866Y2571781D1*
X962164Y2575531D1*
X964701Y2578529D1*
X964685Y2636080D1*
X961514Y2634535D1*
X957331Y2633176D1*
X952987Y2632488D1*
X948588D1*
X944244Y2633176D1*
X940060Y2634535D1*
X936140Y2636533D1*
X932583Y2639118D1*
X931566Y2640058D1*
X931591Y2603008D1*
X934701Y2599898D1*
X937286Y2596340D1*
X939283Y2592420D1*
X940643Y2588236D1*
X941331Y2583892D1*
Y2579493D1*
X940643Y2575150D1*
X939283Y2570966D1*
X937286Y2567046D1*
X934701Y2563488D1*
X931591Y2560378D1*
X928033Y2557793D1*
X924113Y2555795D1*
X919929Y2554436D1*
X915585Y2553748D1*
X911186D1*
X906843Y2554436D1*
X902659Y2555795D1*
X898739Y2557793D1*
X895181Y2560378D1*
X892071Y2563488D1*
X889486Y2567046D1*
X887488Y2570966D1*
X886129Y2575150D1*
X885441Y2579493D1*
Y2583892D1*
X886129Y2588236D1*
X887488Y2592420D1*
X889486Y2596340D1*
X892071Y2599898D1*
X895215Y2603035D1*
X895197Y2681463D1*
X851331Y2725388D1*
X849652Y2727697D1*
X848357Y2730240D1*
X847475Y2732954D1*
X847029Y2735774D1*
X846972Y2760823D1*
X846957Y2945713D1*
X843846Y2948823D1*
X841261Y2952381D1*
X839264Y2956301D1*
X837904Y2960484D1*
X837217Y2964828D1*
Y2969227D1*
X837904Y2973571D1*
X839264Y2977755D1*
X841261Y2981675D1*
X843846Y2985232D1*
X846957Y2988343D1*
X850514Y2990928D1*
X854434Y2992925D1*
X858618Y2994285D1*
X862962Y2994972D1*
X867361D1*
X871705Y2994285D1*
X875888Y2992925D1*
X879808Y2990928D1*
X883366Y2988343D1*
X886476Y2985232D1*
X889062Y2981675D1*
X891059Y2977755D1*
X892419Y2973571D1*
X893106Y2969227D1*
Y2964828D1*
X892419Y2960484D1*
X891059Y2956301D1*
X889062Y2952381D1*
X886476Y2948823D1*
X883332Y2945685D1*
X883350Y2744718D1*
X927217Y2700789D1*
X928895Y2698480D1*
X930190Y2695937D1*
X931072Y2693223D1*
X931518Y2690403D1*
X931575Y2680833D1*
X932617Y2681776D1*
X932598Y2827287D1*
X929581Y2826644D1*
X925197Y2826299D1*
X920812Y2826644D1*
X916534Y2827671D1*
X912471Y2829354D1*
X908720Y2831652D1*
X905375Y2834509D1*
X902518Y2837854D1*
X900220Y2841605D1*
X898537Y2845668D1*
X897510Y2849946D1*
X897165Y2854331D1*
X897510Y2858715D1*
X898537Y2862993D1*
X900220Y2867056D1*
X902518Y2870807D1*
X905055Y2873804D1*
X905039Y3316461D1*
X819222Y3402270D1*
X752283Y3402283D1*
Y3497717D1*
X847717D1*
Y3430795D1*
X940525Y3337895D1*
X942385Y3335336D1*
X943820Y3332517D1*
X944798Y3329509D1*
X945293Y3326385D1*
X945354Y3307087D1*
Y3002560D1*
X956692Y3013831D1*
X959000Y3015509D1*
X961543Y3016804D1*
X964257Y3017686D1*
X967077Y3018133D1*
X992126Y3018189D1*
X998370Y3018205D1*
X1001480Y3021315D1*
X1005038Y3023900D1*
X1008958Y3025898D1*
X1013142Y3027257D1*
X1017486Y3027945D1*
X1021885D1*
X1026228Y3027257D1*
X1030412Y3025898D1*
X1034332Y3023900D1*
X1037890Y3021315D1*
X1041000Y3018205D1*
X1043585Y3014647D1*
X1045583Y3010727D1*
X1046942Y3006543D1*
X1047630Y3002199D1*
Y2997801D1*
X1046942Y2993457D1*
X1045583Y2989273D1*
X1043585Y2985353D1*
X1041000Y2981795D1*
X1037890Y2978685D1*
X1034332Y2976100D1*
X1030412Y2974102D1*
X1026228Y2972743D1*
X1021885Y2972055D1*
X1017486D1*
X1012869Y2972820D1*
X1012529Y2968056D1*
X1011503Y2963778D1*
X1009819Y2959715D1*
X1007521Y2955965D1*
X1004984Y2952967D1*
X1005000Y2863904D1*
X1007736Y2866182D1*
X1011487Y2868480D1*
X1015550Y2870164D1*
X1019828Y2871190D1*
X1024213Y2871535D1*
X1028597Y2871190D1*
X1032875Y2870164D1*
X1036938Y2868480D1*
X1040689Y2866182D1*
X1042702Y2864556D1*
X1046573Y2867404D1*
X1050493Y2869402D1*
X1054677Y2870761D1*
X1059021Y2871449D1*
X1063420D1*
X1067764Y2870761D1*
X1071948Y2869402D1*
X1075867Y2867404D1*
X1079425Y2864819D1*
X1082563Y2861675D1*
X1626427Y2861636D1*
X1629247Y2861190D1*
X1631961Y2860308D1*
X1634504Y2859013D1*
X1636812Y2857335D1*
X1654564Y2839663D1*
X1751035Y2743112D1*
X1752714Y2740803D1*
X1754009Y2738260D1*
X1754891Y2735546D1*
X1755337Y2732726D1*
X1755394Y2707677D1*
X1755409Y2536079D1*
X1758520Y2532969D1*
X1761105Y2529411D1*
X1763102Y2525491D1*
X1764462Y2521307D1*
X1765150Y2516963D1*
Y2512564D1*
X1764462Y2508220D1*
X1763102Y2504037D1*
X1761105Y2500117D1*
X1758520Y2496559D1*
X1755409Y2493449D1*
X1751852Y2490864D1*
X1747932Y2488866D1*
X1743748Y2487507D1*
X1739404Y2486819D1*
X1735005D1*
X1730661Y2487507D1*
X1726478Y2488866D1*
X1722558Y2490864D1*
X1719000Y2493449D1*
X1715890Y2496559D1*
X1713304Y2500117D1*
X1711307Y2504037D1*
X1709948Y2508220D1*
X1709260Y2512564D1*
Y2516963D1*
X1709948Y2521307D1*
X1711307Y2525491D1*
X1713304Y2529411D1*
X1715890Y2532969D1*
X1719034Y2536106D1*
X1719016Y2723786D1*
X1617451Y2825329D1*
X1082535Y2825299D1*
X1079425Y2822189D1*
X1075867Y2819604D1*
X1074656Y2818783D1*
X1102631Y2790808D1*
X1579182Y2790770D1*
X1582003Y2790324D1*
X1584717Y2789442D1*
X1587260Y2788147D1*
X1589568Y2786469D1*
X1607320Y2768797D1*
X1667374Y2708663D1*
X1669052Y2706354D1*
X1670348Y2703811D1*
X1671230Y2701097D1*
X1671676Y2698277D1*
X1671732Y2673228D1*
X1671748Y2427811D1*
X1674858Y2424701D1*
X1677444Y2421143D1*
X1679441Y2417223D1*
X1680801Y2413039D1*
X1681488Y2408696D1*
Y2404297D1*
X1680801Y2399953D1*
X1679441Y2395769D1*
X1677444Y2391849D1*
X1674858Y2388291D1*
X1671748Y2385181D1*
X1668190Y2382596D1*
X1664270Y2380598D1*
X1660087Y2379239D1*
X1655743Y2378551D1*
X1651344D1*
X1647000Y2379239D1*
X1642816Y2380598D1*
X1638896Y2382596D1*
X1635339Y2385181D1*
X1632228Y2388291D1*
X1629643Y2391849D1*
X1627646Y2395769D1*
X1626286Y2399953D1*
X1625598Y2404297D1*
Y2408696D1*
X1626286Y2413039D1*
X1627646Y2417223D1*
X1629643Y2421143D1*
X1632228Y2424701D1*
X1635373Y2427839D1*
X1635354Y2689337D1*
X1570198Y2754472D1*
X1523199Y2754449D1*
X1593181Y2684512D1*
X1595034Y2682341D1*
X1596525Y2679907D1*
X1597618Y2677270D1*
X1598283Y2674495D1*
X1598508Y2671650D1*
X1598524Y2479976D1*
X1601634Y2476866D1*
X1604219Y2473308D1*
X1606217Y2469388D1*
X1607576Y2465205D1*
X1608264Y2460861D1*
Y2456462D1*
X1607576Y2452118D1*
X1606217Y2447934D1*
X1604219Y2444014D1*
X1601634Y2440457D1*
X1598524Y2437346D1*
X1594966Y2434761D1*
X1591046Y2432764D1*
X1586862Y2431404D1*
X1582518Y2430717D1*
X1578119D1*
X1573776Y2431404D1*
X1569592Y2432764D1*
X1565672Y2434761D1*
X1562114Y2437346D1*
X1559004Y2440457D1*
X1556419Y2444014D1*
X1554421Y2447934D1*
X1553062Y2452118D1*
X1552374Y2456462D1*
Y2460861D1*
X1553062Y2465205D1*
X1554421Y2469388D1*
X1556419Y2473308D1*
X1559004Y2476866D1*
X1562148Y2480004D1*
X1562130Y2664131D1*
X1503270Y2722975D1*
X1169899Y2722953D1*
X1172196Y2720337D1*
X1173686Y2717903D1*
X1174780Y2715266D1*
X1175445Y2712491D1*
X1175669Y2709646D1*
Y2705701D1*
X1178857Y2707959D1*
X1182777Y2709957D1*
X1186961Y2711316D1*
X1191304Y2712004D1*
X1195703D1*
X1200047Y2711316D1*
X1204231Y2709957D1*
X1208151Y2707959D1*
X1211709Y2705374D1*
X1214846Y2702230D1*
X1446304Y2702192D1*
X1449125Y2701745D1*
X1451839Y2700864D1*
X1454382Y2699568D1*
X1456690Y2697890D1*
X1474442Y2680218D1*
X1535484Y2619096D1*
X1537163Y2616787D1*
X1538458Y2614244D1*
X1539340Y2611530D1*
X1539786Y2608710D1*
X1539843Y2583661D1*
Y1047144D1*
X1544391Y1049520D1*
X1548575Y1050879D1*
X1552919Y1051567D1*
X1557318D1*
X1561661Y1050879D1*
X1565845Y1049520D1*
X1569765Y1047522D1*
X1573323Y1044937D1*
X1576433Y1041827D1*
X1579018Y1038269D1*
X1581016Y1034349D1*
X1582375Y1030165D1*
X1583063Y1025822D1*
Y1021423D1*
X1582375Y1017079D1*
X1581016Y1012895D1*
X1579018Y1008975D1*
X1576433Y1005417D1*
X1573289Y1002280D1*
X1573323Y387457D1*
X1576433Y384346D1*
X1579018Y380789D1*
X1581016Y376869D1*
X1582375Y372685D1*
X1583063Y368341D1*
Y363942D1*
X1582375Y359598D1*
X1581016Y355415D1*
X1579018Y351495D1*
X1576433Y347937D1*
X1573323Y344827D1*
X1569765Y342241D1*
X1565845Y340244D1*
X1561661Y338885D1*
X1557318Y338197D1*
X1552919D1*
X1548575Y338885D1*
X1544391Y340244D1*
X1540471Y342241D1*
X1536913Y344827D1*
X1533803Y347937D1*
X1531218Y351495D1*
X1529220Y355415D1*
X1527861Y359598D1*
X1527173Y363942D1*
Y368341D1*
X1527861Y372685D1*
X1529220Y376869D1*
X1531218Y380789D1*
X1533803Y384346D1*
X1536948Y387484D1*
X1536929Y576871D1*
X1532381Y574496D1*
X1528197Y573136D1*
X1523853Y572449D1*
X1519454D1*
X1515110Y573136D1*
X1510927Y574496D1*
X1507007Y576493D1*
X1503449Y579079D1*
X1500339Y582189D1*
X1497753Y585747D1*
X1495756Y589667D1*
X1494396Y593850D1*
X1493709Y598194D1*
Y602593D1*
X1494396Y606937D1*
X1495756Y611121D1*
X1497753Y615041D1*
X1500339Y618598D1*
X1503483Y621736D1*
X1503465Y840467D1*
X1499713Y839278D1*
X1495369Y838591D1*
X1490970D1*
X1486626Y839278D1*
X1482442Y840638D1*
X1478522Y842635D1*
X1474965Y845220D1*
X1471827Y848365D1*
X1329972Y848331D1*
X1326862Y845220D1*
X1323304Y842635D1*
X1319385Y840638D1*
X1315201Y839278D1*
X1310857Y838591D1*
X1306458D1*
X1302114Y839278D1*
X1297930Y840638D1*
X1294010Y842635D1*
X1290453Y845220D1*
X1287343Y848331D1*
X1284757Y851888D1*
X1282760Y855808D1*
X1281400Y859992D1*
X1280713Y864336D1*
Y868735D1*
X1281400Y873079D1*
X1282760Y877262D1*
X1284757Y881182D1*
X1285043Y881811D1*
X1229575Y881795D1*
X1226465Y878685D1*
X1222907Y876100D1*
X1218987Y874102D1*
X1214803Y872743D1*
X1210459Y872055D1*
X1206060D1*
X1201717Y872743D1*
X1197533Y874102D1*
X1193613Y876100D1*
X1190055Y878685D1*
X1186945Y881795D1*
X1184360Y885353D1*
X1182362Y889273D1*
X1181003Y893457D1*
X1180315Y897801D1*
Y902199D1*
X1181003Y906543D1*
X1182362Y910727D1*
X1184360Y914647D1*
X1186945Y918205D1*
X1190055Y921315D1*
X1193613Y923900D1*
X1197533Y925898D1*
X1201717Y927257D1*
X1206060Y927945D1*
X1210459D1*
X1214803Y927257D1*
X1218987Y925898D1*
X1222907Y923900D1*
X1226465Y921315D1*
X1229602Y918171D1*
X1281640Y918189D1*
X1280971Y921206D1*
X1280626Y925591D1*
X1280971Y929975D1*
X1281997Y934253D1*
X1283681Y938316D1*
X1285979Y942067D1*
X1288836Y945412D1*
X1290487Y946933D1*
X1290453Y2090890D1*
X1287343Y2094000D1*
X1284757Y2097558D1*
X1282760Y2101478D1*
X1281400Y2105661D1*
X1280713Y2110005D1*
Y2114404D1*
X1281400Y2118748D1*
X1282760Y2122932D1*
X1284757Y2126852D1*
X1287343Y2130409D1*
X1290453Y2133520D1*
X1294010Y2136105D1*
X1297930Y2138102D1*
X1302114Y2139462D1*
X1306458Y2140150D1*
X1310857D1*
X1315201Y2139462D1*
X1319385Y2138102D1*
X1323304Y2136105D1*
X1326862Y2133520D1*
X1329972Y2130409D1*
X1332558Y2126852D1*
X1334555Y2122932D1*
X1335915Y2118748D1*
X1336602Y2114404D1*
Y2110005D1*
X1335915Y2105661D1*
X1334555Y2101478D1*
X1332558Y2097558D1*
X1329972Y2094000D1*
X1326828Y2090862D1*
X1326862Y946906D1*
X1329972Y943795D1*
X1332558Y940238D1*
X1334555Y936318D1*
X1335915Y932134D1*
X1336602Y927790D1*
Y923391D1*
X1335915Y919047D1*
X1335669Y918178D1*
X1446799Y918205D1*
X1449909Y921315D1*
X1453467Y923900D1*
X1457387Y925898D1*
X1461571Y927257D1*
X1465915Y927945D1*
X1470314D1*
X1474657Y927257D1*
X1478841Y925898D1*
X1482761Y923900D1*
X1486319Y921315D1*
X1489429Y918205D1*
X1492014Y914647D1*
X1494012Y910727D1*
X1495371Y906543D1*
X1496059Y902199D1*
Y897801D1*
X1495571Y894459D1*
X1499713Y893793D1*
X1503486Y892585D1*
X1503465Y2527091D1*
X1498946Y2524236D1*
X1494883Y2522552D1*
X1490605Y2521526D1*
X1486220Y2521181D1*
X1481836Y2521526D1*
X1477558Y2522552D1*
X1473495Y2524236D1*
X1469744Y2526534D1*
X1466399Y2529391D1*
X1463542Y2532736D1*
X1461244Y2536487D1*
X1459560Y2540550D1*
X1458534Y2544828D1*
X1458189Y2549213D1*
X1458281Y2551454D1*
X1385161Y2624549D1*
X1251630Y2624512D1*
X1248520Y2621402D1*
X1244962Y2618816D1*
X1241042Y2616819D1*
X1236858Y2615459D1*
X1232514Y2614772D1*
X1227594Y2614833D1*
X1225764Y2610306D1*
X1223466Y2606555D1*
X1220609Y2603210D1*
X1218958Y2601689D1*
X1218976Y2498669D1*
X1221953Y2501630D1*
X1225510Y2504215D1*
X1229430Y2506213D1*
X1233614Y2507572D1*
X1237958Y2508260D1*
X1239685Y2508328D1*
X1310546Y2579210D1*
X1310896Y2583125D1*
X1311923Y2587403D1*
X1313606Y2591466D1*
X1315904Y2595217D1*
X1318761Y2598562D1*
X1322106Y2601419D1*
X1325857Y2603717D1*
X1329920Y2605400D1*
X1334198Y2606427D1*
X1338583Y2606772D1*
X1342967Y2606427D1*
X1347245Y2605400D1*
X1351308Y2603717D1*
X1355059Y2601419D1*
X1358404Y2598562D1*
X1361261Y2595217D1*
X1363559Y2591466D1*
X1365243Y2587403D1*
X1366269Y2583125D1*
X1366614Y2578740D1*
X1366269Y2574356D1*
X1365243Y2570077D1*
X1363559Y2566014D1*
X1361261Y2562264D1*
X1358404Y2558919D1*
X1355059Y2556062D1*
X1351308Y2553764D1*
X1347245Y2552080D1*
X1342967Y2551054D1*
X1339055Y2550727D1*
X1268194Y2479845D1*
X1267844Y2475930D1*
X1266818Y2471652D1*
X1265134Y2467589D1*
X1262836Y2463839D1*
X1259979Y2460493D1*
X1256634Y2457636D1*
X1252883Y2455339D1*
X1248820Y2453655D1*
X1244542Y2452629D1*
X1240157Y2452283D1*
X1235773Y2452629D1*
X1231495Y2453655D1*
X1227432Y2455339D1*
X1223681Y2457636D1*
X1220336Y2460493D1*
X1218965Y2461978D1*
X1219007Y2154272D1*
X1221864Y2157617D1*
X1225209Y2160474D1*
X1228959Y2162772D1*
X1233022Y2164455D1*
X1237301Y2165482D1*
X1241685Y2165827D1*
X1246070Y2165482D1*
X1250348Y2164455D1*
X1254411Y2162772D1*
X1258161Y2160474D1*
X1261507Y2157617D1*
X1264364Y2154272D1*
X1266661Y2150521D1*
X1268345Y2146458D1*
X1269371Y2142180D1*
X1269717Y2137795D1*
X1269371Y2133411D1*
X1268345Y2129133D1*
X1266661Y2125070D1*
X1264364Y2121319D1*
X1261507Y2117974D1*
X1259856Y2116453D1*
X1259890Y2058567D1*
X1263000Y2055457D1*
X1265585Y2051899D1*
X1267583Y2047979D1*
X1268942Y2043795D1*
X1269630Y2039451D1*
Y2035052D1*
X1268942Y2030709D1*
X1267583Y2026525D1*
X1265585Y2022605D1*
X1263000Y2019047D1*
X1259890Y2015937D1*
X1256332Y2013352D1*
X1252412Y2011354D1*
X1248228Y2009995D1*
X1243885Y2009307D1*
X1239486D1*
X1235142Y2009995D1*
X1233064Y2010581D1*
X1231226Y2006025D1*
X1228928Y2002274D1*
X1226071Y1998929D1*
X1222726Y1996072D1*
X1218975Y1993774D1*
X1214912Y1992091D1*
X1210634Y1991064D1*
X1206249Y1990719D1*
X1201865Y1991064D1*
X1197587Y1992091D1*
X1193524Y1993774D1*
X1189773Y1996072D1*
X1186428Y1998929D1*
X1183571Y2002274D1*
X1181273Y2006025D1*
X1179589Y2010088D1*
X1178563Y2014366D1*
X1178218Y2018751D1*
X1178563Y2023135D1*
X1179589Y2027413D1*
X1181273Y2031476D1*
X1182612Y2033790D1*
X1182598Y2125367D1*
X1180159Y2121319D1*
X1177302Y2117974D1*
X1173957Y2115117D1*
X1170206Y2112819D1*
X1166143Y2111135D1*
X1161865Y2110109D1*
X1157480Y2109764D1*
X1153096Y2110109D1*
X1148818Y2111135D1*
X1144755Y2112819D1*
X1141004Y2115117D1*
X1137659Y2117974D1*
X1134802Y2121319D1*
X1132504Y2125070D1*
X1130820Y2129133D1*
X1129794Y2133411D1*
X1129449Y2137795D1*
X1129794Y2142180D1*
X1130820Y2146458D1*
X1132504Y2150521D1*
X1134802Y2154272D1*
X1137659Y2157617D1*
X1139310Y2159138D1*
X1139291Y2194244D1*
X1136274Y2193577D1*
X1131890Y2193232D1*
X1127505Y2193577D1*
X1124478Y2194252D1*
X1124488Y942168D1*
X1205169Y861419D1*
X1206848Y859110D1*
X1208143Y856567D1*
X1209025Y853853D1*
X1209471Y851033D1*
X1209528Y825984D1*
X1209543Y387850D1*
X1212654Y384740D1*
X1215239Y381182D1*
X1217236Y377262D1*
X1218596Y373079D1*
X1219283Y368735D1*
Y364336D1*
X1218596Y359992D1*
X1217236Y355808D1*
X1215239Y351888D1*
X1212654Y348331D1*
X1209543Y345220D1*
X1205986Y342635D1*
X1202066Y340638D1*
X1197882Y339278D1*
X1193538Y338591D1*
X1189139D1*
X1184795Y339278D1*
X1180612Y340638D1*
X1176692Y342635D1*
X1173134Y345220D1*
X1170024Y348331D1*
X1167438Y351888D1*
X1165441Y355808D1*
X1164081Y359992D1*
X1163394Y364336D1*
Y368735D1*
X1164081Y373079D1*
X1165441Y377262D1*
X1167438Y381182D1*
X1170024Y384740D1*
X1173168Y387878D1*
X1173150Y842091D1*
X1104797Y910425D1*
X1104803Y890678D1*
X1108756Y887850D1*
X1111866Y884740D1*
X1114451Y881182D1*
X1116449Y877262D1*
X1117808Y873079D1*
X1118496Y868735D1*
Y864336D1*
X1117808Y859992D1*
X1116449Y855808D1*
X1114451Y851888D1*
X1111866Y848331D1*
X1108756Y845220D1*
X1105198Y842635D1*
X1101278Y840638D1*
X1097094Y839278D1*
X1092751Y838591D1*
X1088352D1*
X1084008Y839278D1*
X1079824Y840638D1*
X1075904Y842635D1*
X1072346Y845220D1*
X1069236Y848331D1*
X1066651Y851888D1*
X1064654Y855808D1*
X1063294Y859992D1*
X1062606Y864336D1*
Y868735D1*
X1063294Y873079D1*
X1064531Y876932D1*
X1059844Y874915D1*
X1055566Y873888D1*
X1051181Y873543D1*
X1046797Y873888D1*
X1042518Y874915D1*
X1038455Y876598D1*
X1034705Y878896D1*
X1031360Y881753D1*
X1028503Y885098D1*
X1026205Y888849D1*
X1024521Y892912D1*
X1023495Y897190D1*
X1023150Y901575D1*
X1023495Y905959D1*
X1024521Y910238D1*
X1026205Y914301D1*
X1028503Y918051D1*
X1031360Y921396D1*
X1034705Y924253D1*
X1038455Y926551D1*
X1042518Y928235D1*
X1044916Y928887D1*
X1048764Y932755D1*
X1048740Y1140310D1*
X1044929Y1139081D1*
X1040585Y1138394D1*
X1036186D1*
X1031843Y1139081D1*
X1027659Y1140441D1*
X1023739Y1142438D1*
X1020181Y1145024D1*
X1017071Y1148134D1*
X1014486Y1151692D1*
X1012488Y1155612D1*
X1011129Y1159795D1*
X1010441Y1164139D1*
Y1168538D1*
X1011129Y1172882D1*
X1012488Y1177066D1*
X1014486Y1180986D1*
X1017071Y1184543D1*
X1020181Y1187654D1*
X1023739Y1190239D1*
X1025127Y1191017D1*
X1025118Y1349756D1*
X1022142Y1346795D1*
X1018584Y1344210D1*
X1014664Y1342213D1*
X1010480Y1340853D1*
X1006136Y1340165D1*
X1001738D1*
X997394Y1340853D1*
X993210Y1342213D1*
X989290Y1344210D1*
X985732Y1346795D1*
X982622Y1349906D1*
X980037Y1353463D1*
X978039Y1357383D1*
X976680Y1361567D1*
X975992Y1365911D1*
Y1370310D1*
X976680Y1374654D1*
X978039Y1378837D1*
X980037Y1382757D1*
X982622Y1386315D1*
X985766Y1389453D1*
X985748Y2426835D1*
X515157Y2426802D1*
X512312Y2427026D1*
X509537Y2427692D1*
X506900Y2428785D1*
X504466Y2430276D1*
X502295Y2432129D1*
X485579Y2448927D1*
X483900Y2451235D1*
X482605Y2453778D1*
X481723Y2456492D1*
X481277Y2459312D1*
X481220Y2484361D1*
X481277Y2650045D1*
X481723Y2652865D1*
X482605Y2655579D1*
X483900Y2658122D1*
X485579Y2660430D1*
X503251Y2678182D1*
X651189Y2826143D1*
Y2830542D1*
X651877Y2834886D1*
X653236Y2839070D1*
X655234Y2842990D1*
X657819Y2846547D1*
X660929Y2849657D1*
X664487Y2852243D1*
X668407Y2854240D1*
X672591Y2855600D1*
X676934Y2856287D1*
X681333D1*
X685677Y2855600D1*
X688514Y2854738D1*
X688504Y2948088D1*
X685768Y2945825D1*
X682017Y2943528D1*
X677954Y2941844D1*
X673676Y2940818D1*
X669291Y2940472D1*
X667050Y2940564D1*
X456152Y2729642D1*
X456181Y2247717D1*
X644436Y1593705D2*
X643883Y1587825D1*
X642966Y1581993D1*
X641686Y1576228D1*
X640050Y1570555D1*
X638062Y1564996D1*
X635732Y1559571D1*
X633068Y1554301D1*
X630080Y1549207D1*
X626781Y1544311D1*
X623182Y1539630D1*
X619299Y1535182D1*
X615146Y1530986D1*
X610739Y1527055D1*
X606096Y1523408D1*
X601234Y1520058D1*
X596172Y1517017D1*
X590930Y1514298D1*
X585530Y1511911D1*
X579991Y1509866D1*
X574336Y1508169D1*
X568585Y1506829D1*
X562762Y1505852D1*
X556890Y1505238D1*
X550990Y1504992D1*
X545087Y1505114D1*
X539202Y1505605D1*
X533361Y1506462D1*
X527583Y1507681D1*
X521894Y1509257D1*
X516312Y1511186D1*
X510864Y1513461D1*
X505566Y1516070D1*
X500442Y1519003D1*
X495512Y1522251D1*
X490793Y1525801D1*
X486304Y1529636D1*
X482064Y1533747D1*
X478089Y1538112D1*
X474394Y1542717D1*
X470992Y1547543D1*
X467899Y1552572D1*
X465125Y1557785D1*
X462681Y1563160D1*
X460579Y1568677D1*
X458823Y1574315D1*
X457424Y1580051D1*
X456383Y1585864D1*
X455709Y1591730D1*
X455402Y1597626D1*
X455462Y1603530D1*
X455891Y1609420D1*
X456686Y1615270D1*
X457845Y1621060D1*
X459362Y1626766D1*
X461232Y1632366D1*
X463449Y1637840D1*
X466003Y1643164D1*
X468883Y1648318D1*
X472079Y1653282D1*
X475579Y1658038D1*
X479367Y1662567D1*
X483433Y1666849D1*
X487756Y1670870D1*
X492323Y1674614D1*
X497113Y1678066D1*
X502110Y1681211D1*
X507293Y1684039D1*
X512643Y1686539D1*
X518138Y1688699D1*
X523756Y1690513D1*
X529478Y1691974D1*
X535280Y1693073D1*
X541138Y1693810D1*
X547030Y1694178D1*
X552934Y1694180D1*
X558828Y1693814D1*
X564686Y1693079D1*
X570488Y1691980D1*
X576210Y1690524D1*
X581829Y1688711D1*
X587325Y1686552D1*
X592676Y1684055D1*
X597860Y1681228D1*
X602858Y1678085D1*
X607650Y1674635D1*
X612218Y1670894D1*
X616543Y1666874D1*
X620609Y1662592D1*
X624400Y1658066D1*
X627902Y1653311D1*
X631100Y1648348D1*
X633982Y1643194D1*
X636537Y1637871D1*
X638755Y1632399D1*
X640627Y1626799D1*
X642147Y1621094D1*
X643308Y1615304D1*
X644105Y1609454D1*
X644619Y1599606D1*
X644436Y1593705D1*
Y471657D2*
X643883Y465778D1*
X642966Y459946D1*
X641686Y454181D1*
X640050Y448508D1*
X638062Y442949D1*
X635732Y437524D1*
X633068Y432253D1*
X630080Y427160D1*
X626781Y422264D1*
X623182Y417583D1*
X619299Y413135D1*
X615146Y408938D1*
X610739Y405008D1*
X606096Y401361D1*
X601234Y398010D1*
X596172Y394970D1*
X590930Y392251D1*
X585530Y389864D1*
X579991Y387819D1*
X574336Y386122D1*
X568585Y384782D1*
X562762Y383804D1*
X556890Y383190D1*
X550990Y382945D1*
X545087Y383067D1*
X539202Y383558D1*
X533361Y384415D1*
X527583Y385634D1*
X521894Y387210D1*
X516312Y389139D1*
X510864Y391413D1*
X505566Y394022D1*
X500442Y396955D1*
X495512Y400203D1*
X490793Y403753D1*
X486304Y407589D1*
X482064Y411699D1*
X478089Y416064D1*
X474394Y420669D1*
X470992Y425496D1*
X467899Y430525D1*
X465125Y435738D1*
X462681Y441113D1*
X460579Y446630D1*
X458823Y452268D1*
X457424Y458004D1*
X456383Y463816D1*
X455709Y469682D1*
X455402Y475579D1*
X455462Y481483D1*
X455891Y487373D1*
X456686Y493223D1*
X457845Y499013D1*
X459362Y504719D1*
X461232Y510319D1*
X463449Y515793D1*
X466003Y521117D1*
X468883Y526270D1*
X472079Y531235D1*
X475579Y535991D1*
X479367Y540520D1*
X483433Y544802D1*
X487756Y548823D1*
X492323Y552567D1*
X497113Y556018D1*
X502110Y559164D1*
X507293Y561992D1*
X512643Y564492D1*
X518138Y566652D1*
X523756Y568466D1*
X529478Y569927D1*
X535280Y571026D1*
X541138Y571762D1*
X547030Y572131D1*
X552934Y572133D1*
X558828Y571766D1*
X564686Y571031D1*
X570488Y569933D1*
X576210Y568476D1*
X581829Y566664D1*
X587325Y564505D1*
X592676Y562008D1*
X597860Y559181D1*
X602858Y556038D1*
X607650Y552588D1*
X612218Y548846D1*
X616543Y544827D1*
X620609Y540545D1*
X624400Y536018D1*
X627902Y531264D1*
X631100Y526301D1*
X633982Y521147D1*
X636537Y515824D1*
X638755Y510352D1*
X640627Y504752D1*
X642147Y499047D1*
X643308Y493257D1*
X644105Y487407D1*
X644619Y477559D1*
X644436Y471657D1*
X1947570Y3446256D2*
X1946398Y3438861D1*
X1944084Y3431740D1*
X1940685Y3425068D1*
X1936283Y3419010D1*
X1930990Y3413717D1*
X1924932Y3409315D1*
X1918260Y3405916D1*
X1911139Y3403602D1*
X1903744Y3402430D1*
X1896256D1*
X1888861Y3403602D1*
X1881740Y3405916D1*
X1875068Y3409315D1*
X1869010Y3413717D1*
X1863717Y3419010D1*
X1859315Y3425068D1*
X1855916Y3431740D1*
X1853602Y3438861D1*
X1852430Y3446256D1*
Y3453744D1*
X1853602Y3461139D1*
X1855916Y3468260D1*
X1859315Y3474932D1*
X1863717Y3480990D1*
X1869010Y3486283D1*
X1875068Y3490685D1*
X1881740Y3494084D1*
X1888861Y3496398D1*
X1896256Y3497570D1*
X1903744D1*
X1911139Y3496398D1*
X1918260Y3494084D1*
X1924932Y3490685D1*
X1930990Y3486283D1*
X1936283Y3480990D1*
X1940685Y3474932D1*
X1944084Y3468260D1*
X1946398Y3461139D1*
X1947570Y3453744D1*
Y3446256D1*
X2047570D2*
X2046398Y3438861D1*
X2044084Y3431740D1*
X2040685Y3425068D1*
X2036283Y3419010D1*
X2030990Y3413717D1*
X2034102Y3413084D1*
X2038286Y3411724D1*
X2042206Y3409727D1*
X2045764Y3407142D1*
X2048874Y3404031D1*
X2051459Y3400474D1*
X2053457Y3396554D1*
X2054816Y3392370D1*
X2055504Y3388026D1*
Y3383627D1*
X2054816Y3379283D1*
X2053457Y3375100D1*
X2051459Y3371180D1*
X2048874Y3367622D1*
X2045764Y3364512D1*
X2042206Y3361927D1*
X2038286Y3359929D1*
X2034102Y3358570D1*
X2029759Y3357882D1*
X2028031Y3357814D1*
X1976843Y3306604D1*
X1976505Y3302702D1*
X1975479Y3298424D1*
X1973795Y3294361D1*
X1971497Y3290610D1*
X1968640Y3287265D1*
X1965295Y3284408D1*
X1961545Y3282110D1*
X1957482Y3280427D1*
X1953203Y3279400D1*
X1948819Y3279055D1*
X1944434Y3279400D1*
X1940156Y3280427D1*
X1936093Y3282110D1*
X1932343Y3284408D1*
X1928997Y3287265D1*
X1926140Y3290610D1*
X1923843Y3294361D1*
X1922159Y3298424D1*
X1921133Y3302702D1*
X1920787Y3307087D1*
X1921133Y3311471D1*
X1922159Y3315749D1*
X1923843Y3319812D1*
X1926140Y3323563D1*
X1928997Y3326908D1*
X1932343Y3329765D1*
X1936093Y3332063D1*
X1940156Y3333747D1*
X1944434Y3334773D1*
X1948346Y3335100D1*
X1999535Y3386310D1*
X1999873Y3390211D1*
X2000899Y3394490D1*
X2002583Y3398552D1*
X2005077Y3402552D1*
X2000000Y3402283D1*
X1992535Y3402871D1*
X1985255Y3404619D1*
X1978337Y3407484D1*
X1971953Y3411396D1*
X1966260Y3416260D1*
X1961396Y3421953D1*
X1957484Y3428337D1*
X1954619Y3435255D1*
X1952871Y3442535D1*
X1952283Y3450000D1*
X1952871Y3457465D1*
X1954619Y3464745D1*
X1957484Y3471663D1*
X1961396Y3478047D1*
X1966260Y3483740D1*
X1971953Y3488604D1*
X1978337Y3492516D1*
X1985255Y3495381D1*
X1992535Y3497129D1*
X2000000Y3497717D1*
X2007465Y3497129D1*
X2014745Y3495381D1*
X2021663Y3492516D1*
X2028047Y3488604D1*
X2033740Y3483740D1*
X2038604Y3478047D1*
X2042516Y3471663D1*
X2045381Y3464745D1*
X2047129Y3457465D1*
X2047717Y3450000D1*
X2047570Y3446256D1*
X2147570D2*
X2146398Y3438861D1*
X2144084Y3431740D1*
X2140685Y3425068D1*
X2136283Y3419010D1*
X2130990Y3413717D1*
X2124932Y3409315D1*
X2118260Y3405916D1*
X2111139Y3403602D1*
X2103744Y3402430D1*
X2096256D1*
X2088861Y3403602D1*
X2081740Y3405916D1*
X2075068Y3409315D1*
X2069010Y3413717D1*
X2063717Y3419010D1*
X2059315Y3425068D1*
X2055916Y3431740D1*
X2053602Y3438861D1*
X2052430Y3446256D1*
Y3453744D1*
X2053602Y3461139D1*
X2055916Y3468260D1*
X2059315Y3474932D1*
X2063717Y3480990D1*
X2069010Y3486283D1*
X2075068Y3490685D1*
X2081740Y3494084D1*
X2088861Y3496398D1*
X2096256Y3497570D1*
X2103744D1*
X2111139Y3496398D1*
X2118260Y3494084D1*
X2124932Y3490685D1*
X2130990Y3486283D1*
X2136283Y3480990D1*
X2140685Y3474932D1*
X2144084Y3468260D1*
X2146398Y3461139D1*
X2147570Y3453744D1*
Y3446256D1*
X2247570D2*
X2246398Y3438861D1*
X2244084Y3431740D1*
X2240685Y3425068D1*
X2236283Y3419010D1*
X2230990Y3413717D1*
X2224932Y3409315D1*
X2218260Y3405916D1*
X2211139Y3403602D1*
X2203744Y3402430D1*
X2196256D1*
X2188861Y3403602D1*
X2181740Y3405916D1*
X2175068Y3409315D1*
X2169010Y3413717D1*
X2163717Y3419010D1*
X2159315Y3425068D1*
X2155916Y3431740D1*
X2153602Y3438861D1*
X2152430Y3446256D1*
Y3453744D1*
X2153602Y3461139D1*
X2155916Y3468260D1*
X2159315Y3474932D1*
X2163717Y3480990D1*
X2169010Y3486283D1*
X2175068Y3490685D1*
X2181740Y3494084D1*
X2188861Y3496398D1*
X2196256Y3497570D1*
X2203744D1*
X2211139Y3496398D1*
X2218260Y3494084D1*
X2224932Y3490685D1*
X2230990Y3486283D1*
X2236283Y3480990D1*
X2240685Y3474932D1*
X2244084Y3468260D1*
X2246398Y3461139D1*
X2247570Y3453744D1*
Y3446256D1*
X2347570D2*
X2346398Y3438861D1*
X2344084Y3431740D1*
X2340685Y3425068D1*
X2336283Y3419010D1*
X2330990Y3413717D1*
X2324932Y3409315D1*
X2318260Y3405916D1*
X2311139Y3403602D1*
X2303744Y3402430D1*
X2296256D1*
X2288861Y3403602D1*
X2281740Y3405916D1*
X2275068Y3409315D1*
X2269010Y3413717D1*
X2263717Y3419010D1*
X2259315Y3425068D1*
X2255916Y3431740D1*
X2253602Y3438861D1*
X2252430Y3446256D1*
Y3453744D1*
X2253602Y3461139D1*
X2255916Y3468260D1*
X2259315Y3474932D1*
X2263717Y3480990D1*
X2269010Y3486283D1*
X2275068Y3490685D1*
X2281740Y3494084D1*
X2288861Y3496398D1*
X2296256Y3497570D1*
X2303744D1*
X2311139Y3496398D1*
X2318260Y3494084D1*
X2324932Y3490685D1*
X2330990Y3486283D1*
X2336283Y3480990D1*
X2340685Y3474932D1*
X2344084Y3468260D1*
X2346398Y3461139D1*
X2347570Y3453744D1*
Y3446256D1*
X2447570D2*
X2446398Y3438861D1*
X2444084Y3431740D1*
X2440685Y3425068D1*
X2436283Y3419010D1*
X2430990Y3413717D1*
X2424932Y3409315D1*
X2418260Y3405916D1*
X2411139Y3403602D1*
X2403744Y3402430D1*
X2396256D1*
X2388861Y3403602D1*
X2381740Y3405916D1*
X2375068Y3409315D1*
X2369010Y3413717D1*
X2363717Y3419010D1*
X2359315Y3425068D1*
X2355916Y3431740D1*
X2353602Y3438861D1*
X2352430Y3446256D1*
Y3453744D1*
X2353602Y3461139D1*
X2355916Y3468260D1*
X2359315Y3474932D1*
X2363717Y3480990D1*
X2369010Y3486283D1*
X2375068Y3490685D1*
X2381740Y3494084D1*
X2388861Y3496398D1*
X2396256Y3497570D1*
X2403744D1*
X2411139Y3496398D1*
X2418260Y3494084D1*
X2424932Y3490685D1*
X2430990Y3486283D1*
X2436283Y3480990D1*
X2440685Y3474932D1*
X2444084Y3468260D1*
X2446398Y3461139D1*
X2447570Y3453744D1*
Y3446256D1*
X947570D2*
X946398Y3438861D1*
X944084Y3431740D1*
X940685Y3425068D1*
X936283Y3419010D1*
X930990Y3413717D1*
X924932Y3409315D1*
X918260Y3405916D1*
X911139Y3403602D1*
X903744Y3402430D1*
X896256D1*
X888861Y3403602D1*
X881740Y3405916D1*
X875068Y3409315D1*
X869010Y3413717D1*
X863717Y3419010D1*
X859315Y3425068D1*
X855916Y3431740D1*
X853602Y3438861D1*
X852430Y3446256D1*
Y3453744D1*
X853602Y3461139D1*
X855916Y3468260D1*
X859315Y3474932D1*
X863717Y3480990D1*
X869010Y3486283D1*
X875068Y3490685D1*
X881740Y3494084D1*
X888861Y3496398D1*
X896256Y3497570D1*
X903744D1*
X911139Y3496398D1*
X918260Y3494084D1*
X924932Y3490685D1*
X930990Y3486283D1*
X936283Y3480990D1*
X940685Y3474932D1*
X944084Y3468260D1*
X946398Y3461139D1*
X947570Y3453744D1*
Y3446256D1*
X1047570D2*
X1046398Y3438861D1*
X1044084Y3431740D1*
X1040685Y3425068D1*
X1036283Y3419010D1*
X1030990Y3413717D1*
X1024932Y3409315D1*
X1018260Y3405916D1*
X1011139Y3403602D1*
X1003744Y3402430D1*
X996256D1*
X988861Y3403602D1*
X981740Y3405916D1*
X975068Y3409315D1*
X969010Y3413717D1*
X963717Y3419010D1*
X959315Y3425068D1*
X955916Y3431740D1*
X953602Y3438861D1*
X952430Y3446256D1*
Y3453744D1*
X953602Y3461139D1*
X955916Y3468260D1*
X959315Y3474932D1*
X963717Y3480990D1*
X969010Y3486283D1*
X975068Y3490685D1*
X981740Y3494084D1*
X988861Y3496398D1*
X996256Y3497570D1*
X1003744D1*
X1011139Y3496398D1*
X1018260Y3494084D1*
X1024932Y3490685D1*
X1030990Y3486283D1*
X1036283Y3480990D1*
X1040685Y3474932D1*
X1044084Y3468260D1*
X1046398Y3461139D1*
X1047570Y3453744D1*
Y3446256D1*
X1247570D2*
X1246398Y3438861D1*
X1244084Y3431740D1*
X1243975Y3431227D1*
X1247726Y3428929D1*
X1251071Y3426072D1*
X1253928Y3422727D1*
X1256226Y3418976D1*
X1257909Y3414913D1*
X1258936Y3410635D1*
X1259262Y3406723D1*
X1325480Y3340528D1*
X1329385Y3340186D1*
X1333663Y3339160D1*
X1337726Y3337476D1*
X1341476Y3335178D1*
X1344822Y3332322D1*
X1347678Y3328976D1*
X1349976Y3325226D1*
X1351660Y3321163D1*
X1352686Y3316885D1*
X1353031Y3312500D1*
X1352686Y3308115D1*
X1351660Y3303837D1*
X1349976Y3299774D1*
X1347678Y3296024D1*
X1344822Y3292678D1*
X1341476Y3289822D1*
X1337726Y3287524D1*
X1333663Y3285840D1*
X1329385Y3284814D1*
X1325000Y3284469D1*
X1320615Y3284814D1*
X1316337Y3285840D1*
X1312274Y3287524D1*
X1308524Y3289822D1*
X1305178Y3292678D1*
X1302322Y3296024D1*
X1300024Y3299774D1*
X1298340Y3303837D1*
X1297314Y3308115D1*
X1296987Y3312028D1*
X1230769Y3378223D1*
X1226865Y3378564D1*
X1222587Y3379591D1*
X1218524Y3381274D1*
X1214773Y3383572D1*
X1211428Y3386429D1*
X1208571Y3389774D1*
X1206273Y3393525D1*
X1204589Y3397588D1*
X1203499Y3402403D1*
X1196256Y3402430D1*
X1188861Y3403602D1*
X1181740Y3405916D1*
X1175068Y3409315D1*
X1169010Y3413717D1*
X1163717Y3419010D1*
X1159315Y3425068D1*
X1155916Y3431740D1*
X1153602Y3438861D1*
X1152430Y3446256D1*
Y3453744D1*
X1153602Y3461139D1*
X1155916Y3468260D1*
X1159315Y3474932D1*
X1163717Y3480990D1*
X1169010Y3486283D1*
X1175068Y3490685D1*
X1181740Y3494084D1*
X1188861Y3496398D1*
X1196256Y3497570D1*
X1203744D1*
X1211139Y3496398D1*
X1218260Y3494084D1*
X1224932Y3490685D1*
X1230990Y3486283D1*
X1236283Y3480990D1*
X1240685Y3474932D1*
X1244084Y3468260D1*
X1246398Y3461139D1*
X1247570Y3453744D1*
Y3446256D1*
X407205Y3326654D2*
X504606D1*
Y3223346D1*
X401299D1*
Y3326654D1*
X407205D1*
X135454Y2356265D2*
X134581Y2350753D1*
X132857Y2345445D1*
X130324Y2340472D1*
X127043Y2335958D1*
X123097Y2332012D1*
X118583Y2328731D1*
X113610Y2326198D1*
X108302Y2324474D1*
X102790Y2323601D1*
X97210D1*
X91698Y2324474D1*
X86390Y2326198D1*
X81417Y2328731D1*
X76903Y2332012D1*
X72957Y2335958D1*
X69676Y2340472D1*
X67143Y2345445D1*
X65419Y2350753D1*
X64546Y2356265D1*
Y2361845D1*
X65419Y2367357D1*
X67143Y2372665D1*
X69676Y2377638D1*
X72957Y2382152D1*
X76903Y2386098D1*
X81417Y2389379D1*
X86390Y2391912D1*
X91698Y2393636D1*
X97210Y2394509D1*
X102790D1*
X108302Y2393636D1*
X113610Y2391912D1*
X118583Y2389379D1*
X123097Y2386098D1*
X127043Y2382152D1*
X130324Y2377638D1*
X132857Y2372665D1*
X134581Y2367357D1*
X135454Y2361845D1*
Y2356265D1*
Y2238155D2*
X134581Y2232643D1*
X132857Y2227335D1*
X130324Y2222362D1*
X127043Y2217848D1*
X123097Y2213902D1*
X118583Y2210621D1*
X113610Y2208088D1*
X108302Y2206364D1*
X102790Y2205491D1*
X97210D1*
X91698Y2206364D1*
X86390Y2208088D1*
X81417Y2210621D1*
X76903Y2213902D1*
X72957Y2217848D1*
X69676Y2222362D1*
X67143Y2227335D1*
X65419Y2232643D1*
X64546Y2238155D1*
Y2243735D1*
X65419Y2249247D1*
X67143Y2254555D1*
X69676Y2259528D1*
X72957Y2264042D1*
X76903Y2267988D1*
X81417Y2271269D1*
X86390Y2273802D1*
X91698Y2275526D1*
X97210Y2276399D1*
X102790D1*
X108302Y2275526D1*
X113610Y2273802D1*
X118583Y2271269D1*
X123097Y2267988D1*
X127043Y2264042D1*
X130324Y2259528D1*
X132857Y2254555D1*
X134581Y2249247D1*
X135454Y2243735D1*
Y2238155D1*
X1234240Y1162171D2*
X1233552Y1157827D1*
X1232193Y1153643D1*
X1230196Y1149723D1*
X1227610Y1146165D1*
X1224500Y1143055D1*
X1223886Y1142571D1*
X1223913Y1044937D1*
X1227024Y1041827D1*
X1229609Y1038269D1*
X1231606Y1034349D1*
X1232966Y1030165D1*
X1233654Y1025822D1*
Y1021423D1*
X1232966Y1017079D1*
X1231606Y1012895D1*
X1229609Y1008975D1*
X1227024Y1005417D1*
X1223913Y1002307D1*
X1220356Y999722D1*
X1216436Y997724D1*
X1212252Y996365D1*
X1207908Y995677D1*
X1203509D1*
X1199165Y996365D1*
X1194982Y997724D1*
X1191062Y999722D1*
X1187504Y1002307D1*
X1184394Y1005417D1*
X1181808Y1008975D1*
X1179811Y1012895D1*
X1178451Y1017079D1*
X1177764Y1021423D1*
Y1025822D1*
X1178451Y1030165D1*
X1179811Y1034349D1*
X1181808Y1038269D1*
X1184394Y1041827D1*
X1187538Y1044965D1*
X1187520Y1143555D1*
X1184980Y1146165D1*
X1182395Y1149723D1*
X1180398Y1153643D1*
X1179038Y1157827D1*
X1178350Y1162171D1*
Y1166570D1*
X1179038Y1170913D1*
X1180398Y1175097D1*
X1182395Y1179017D1*
X1184980Y1182575D1*
X1188091Y1185685D1*
X1191648Y1188270D1*
X1195568Y1190268D1*
X1199752Y1191627D1*
X1204096Y1192315D1*
X1208495D1*
X1212839Y1191627D1*
X1217022Y1190268D1*
X1220942Y1188270D1*
X1224500Y1185685D1*
X1227610Y1182575D1*
X1230196Y1179017D1*
X1232193Y1175097D1*
X1233552Y1170913D1*
X1234240Y1166570D1*
Y1162171D1*
X787000Y2758627D2*
X786312Y2754283D1*
X784953Y2750100D1*
X782955Y2746180D1*
X780370Y2742622D1*
X777260Y2739512D1*
X773702Y2736927D1*
X769782Y2734929D1*
X765598Y2733570D1*
X761255Y2732882D1*
X756856D1*
X752512Y2733570D1*
X748328Y2734929D1*
X744408Y2736927D1*
X740850Y2739512D1*
X737740Y2742622D1*
X735155Y2746180D1*
X733157Y2750100D1*
X731798Y2754283D1*
X731110Y2758627D1*
Y2763026D1*
X731798Y2767370D1*
X733157Y2771554D1*
X735155Y2775474D1*
X737740Y2779031D1*
X740885Y2782169D1*
X740850Y3011657D1*
X737740Y3014768D1*
X735155Y3018325D1*
X733157Y3022245D1*
X731798Y3026429D1*
X731110Y3030773D1*
Y3035172D1*
X731798Y3039516D1*
X733157Y3043699D1*
X735155Y3047619D1*
X737740Y3051177D1*
X740850Y3054287D1*
X744408Y3056873D1*
X748328Y3058870D1*
X752512Y3060230D1*
X756856Y3060917D1*
X761255D1*
X765598Y3060230D1*
X769782Y3058870D1*
X773702Y3056873D1*
X777260Y3054287D1*
X780370Y3051177D1*
X782955Y3047619D1*
X784953Y3043699D1*
X786312Y3039516D1*
X786942Y3035659D1*
X786929Y3326979D1*
X784408Y3329980D1*
X782110Y3333731D1*
X780427Y3337794D1*
X779400Y3342072D1*
X779055Y3346457D1*
X779400Y3350841D1*
X780427Y3355119D1*
X782110Y3359182D1*
X784408Y3362933D1*
X787265Y3366278D1*
X790610Y3369135D1*
X794361Y3371433D1*
X798424Y3373117D1*
X802702Y3374143D1*
X807087Y3374488D1*
X811471Y3374143D1*
X815749Y3373117D1*
X819812Y3371433D1*
X823563Y3369135D1*
X826908Y3366278D1*
X829765Y3362933D1*
X832063Y3359182D1*
X833747Y3355119D1*
X834773Y3350841D1*
X835118Y3346457D1*
X834773Y3342072D1*
X833747Y3337794D1*
X832063Y3333731D1*
X829765Y3329980D1*
X827228Y3326983D1*
X827244Y2873808D1*
X829765Y2870807D1*
X832063Y2867056D1*
X833747Y2862993D1*
X834773Y2858715D1*
X835118Y2854331D1*
X834773Y2849946D1*
X833747Y2845668D1*
X832063Y2841605D1*
X829765Y2837854D1*
X826908Y2834509D1*
X823563Y2831652D1*
X819812Y2829354D1*
X815749Y2827671D1*
X811471Y2826644D1*
X807087Y2826299D1*
X802702Y2826644D1*
X798424Y2827671D1*
X794361Y2829354D1*
X790610Y2831652D1*
X787265Y2834509D1*
X784408Y2837854D1*
X782110Y2841605D1*
X780427Y2845668D1*
X779400Y2849946D1*
X779055Y2854331D1*
X779400Y2858715D1*
X780427Y2862993D1*
X782110Y2867056D1*
X784408Y2870807D1*
X786945Y2873804D1*
X786929Y3029996D1*
X786312Y3026429D1*
X784953Y3022245D1*
X782955Y3018325D1*
X780370Y3014768D1*
X777226Y3011630D1*
X777260Y2782142D1*
X780370Y2779031D1*
X782955Y2775474D1*
X784953Y2771554D1*
X786312Y2767370D1*
X787000Y2763026D1*
Y2758627D1*
X1230988Y3156829D2*
X1227850Y3153685D1*
X1224293Y3151100D1*
X1220373Y3149102D1*
X1216189Y3147743D1*
X1211845Y3147055D1*
X1207446D1*
X1203102Y3147743D1*
X1198919Y3149102D1*
X1194999Y3151100D1*
X1191441Y3153685D1*
X1188331Y3156795D1*
X1185745Y3160353D1*
X1183748Y3164273D1*
X1182388Y3168457D1*
X1181701Y3172801D1*
Y3177199D1*
X1182388Y3181543D1*
X1183748Y3185727D1*
X1185745Y3189647D1*
X1188331Y3193205D1*
X1191441Y3196315D1*
X1194999Y3198900D1*
X1198919Y3200898D1*
X1203102Y3202257D1*
X1207446Y3202945D1*
X1211845D1*
X1216189Y3202257D1*
X1220373Y3200898D1*
X1224293Y3198900D1*
X1227850Y3196315D1*
X1230988Y3193171D1*
X1511466Y3193133D1*
X1514286Y3192686D1*
X1517000Y3191804D1*
X1519543Y3190509D1*
X1521852Y3188831D1*
X1539604Y3171159D1*
X2272689Y2437993D1*
X2274367Y2435685D1*
X2275663Y2433142D1*
X2276545Y2430428D1*
X2276991Y2427608D1*
X2277047Y2402559D1*
X2277063Y2043953D1*
X2280173Y2040843D1*
X2282759Y2037285D1*
X2284756Y2033365D1*
X2286115Y2029181D1*
X2286803Y2024837D1*
Y2020438D1*
X2286115Y2016094D1*
X2284756Y2011911D1*
X2282759Y2007991D1*
X2280173Y2004433D1*
X2277063Y2001323D1*
X2273505Y1998738D1*
X2269585Y1996740D1*
X2265402Y1995381D1*
X2261058Y1994693D1*
X2256659D1*
X2252315Y1995381D1*
X2248131Y1996740D1*
X2244211Y1998738D1*
X2240654Y2001323D1*
X2237543Y2004433D1*
X2234958Y2007991D1*
X2232961Y2011911D1*
X2231601Y2016094D1*
X2230913Y2020438D1*
Y2024837D1*
X2231601Y2029181D1*
X2232961Y2033365D1*
X2234958Y2037285D1*
X2237543Y2040843D1*
X2240688Y2043980D1*
X2240669Y2418654D1*
X1502487Y3156829D1*
X1230980Y3156811D1*
X688514Y2801948D2*
X685677Y2801085D1*
X681333Y2800398D1*
X676892Y2800403D1*
X517573Y2641059D1*
X517598Y2468247D1*
X522694Y2463177D1*
X999458Y2463123D1*
X1002278Y2462677D1*
X1004992Y2461795D1*
X1007535Y2460500D1*
X1009844Y2458822D1*
X1016799Y2451948D1*
X1018652Y2449777D1*
X1020143Y2447343D1*
X1021236Y2444706D1*
X1021902Y2441930D1*
X1022126Y2439085D1*
X1022142Y1389425D1*
X1025130Y1386448D1*
X1025118Y2493256D1*
X1020133Y2491999D1*
X1015748Y2491654D1*
X1011364Y2491999D1*
X1007085Y2493025D1*
X1003022Y2494709D1*
X999272Y2497007D1*
X996274Y2499543D1*
X884245Y2499589D1*
X881121Y2500084D1*
X878113Y2501062D1*
X875294Y2502497D1*
X872735Y2504357D1*
X859046Y2517959D1*
X693333Y2683759D1*
X691474Y2686318D1*
X690038Y2689136D1*
X689060Y2692144D1*
X688566Y2695269D1*
X688504Y2714567D1*
Y2801927D1*
X1230988Y2979861D2*
X1227850Y2976717D1*
X1224293Y2974131D1*
X1220373Y2972134D1*
X1216189Y2970774D1*
X1211845Y2970087D1*
X1207446D1*
X1203102Y2970774D1*
X1198919Y2972134D1*
X1194999Y2974131D1*
X1191441Y2976717D1*
X1188331Y2979827D1*
X1185745Y2983385D1*
X1183748Y2987304D1*
X1182388Y2991488D1*
X1181701Y2995832D1*
Y3000231D1*
X1182388Y3004575D1*
X1183748Y3008759D1*
X1185745Y3012678D1*
X1188331Y3016236D1*
X1191441Y3019346D1*
X1194999Y3021932D1*
X1198919Y3023929D1*
X1203102Y3025289D1*
X1207446Y3025976D1*
X1211845D1*
X1216189Y3025289D1*
X1220373Y3023929D1*
X1224293Y3021932D1*
X1227850Y3019346D1*
X1230988Y3016202D1*
X1580167Y3016164D1*
X1582987Y3015718D1*
X1585701Y3014836D1*
X1588244Y3013541D1*
X1590552Y3011862D1*
X1608304Y2994190D1*
X1807138Y2795277D1*
X1808816Y2792969D1*
X1810112Y2790425D1*
X1810993Y2787711D1*
X1811440Y2784891D1*
X1811496Y2759843D1*
X1811512Y1565409D1*
X1814622Y1562299D1*
X1817207Y1558741D1*
X1819205Y1554822D1*
X1820564Y1550638D1*
X1821252Y1546294D1*
Y1541895D1*
X1820564Y1537551D1*
X1819205Y1533367D1*
X1817207Y1529448D1*
X1814622Y1525890D1*
X1811512Y1522780D1*
X1807954Y1520194D1*
X1804034Y1518197D1*
X1799850Y1516837D1*
X1795507Y1516150D1*
X1791108D1*
X1786764Y1516837D1*
X1782580Y1518197D1*
X1778660Y1520194D1*
X1775102Y1522780D1*
X1771992Y1525890D1*
X1769407Y1529448D1*
X1767409Y1533367D1*
X1766050Y1537551D1*
X1765362Y1541895D1*
Y1546294D1*
X1766050Y1550638D1*
X1767409Y1554822D1*
X1769407Y1558741D1*
X1771992Y1562299D1*
X1775136Y1565437D1*
X1775118Y1992060D1*
X1771790Y1988052D1*
X1768445Y1985196D1*
X1764694Y1982898D1*
X1760631Y1981214D1*
X1756353Y1980188D1*
X1751969Y1979843D1*
X1747584Y1980188D1*
X1743306Y1981214D1*
X1739243Y1982898D1*
X1735492Y1985196D1*
X1732147Y1988052D1*
X1729290Y1991398D1*
X1726992Y1995148D1*
X1725308Y1999211D1*
X1724282Y2003490D1*
X1723937Y2007874D1*
X1724282Y2012259D1*
X1725308Y2016537D1*
X1726992Y2020600D1*
X1729290Y2024350D1*
X1732147Y2027696D1*
X1733798Y2029217D1*
X1733764Y2124354D1*
X1730654Y2127465D1*
X1728068Y2131022D1*
X1726071Y2134942D1*
X1724711Y2139126D1*
X1724024Y2143470D1*
Y2147869D1*
X1724711Y2152213D1*
X1726071Y2156396D1*
X1728068Y2160316D1*
X1730654Y2163874D1*
X1733764Y2166984D1*
X1737322Y2169570D1*
X1741241Y2171567D1*
X1745425Y2172927D1*
X1749769Y2173614D1*
X1754168D1*
X1758512Y2172927D1*
X1762696Y2171567D1*
X1766615Y2169570D1*
X1770173Y2166984D1*
X1773283Y2163874D1*
X1775129Y2161424D1*
X1775118Y2775970D1*
X1571181Y2979867D1*
X1230984Y2979843D1*
X1996059Y1364336D2*
X1995371Y1359992D1*
X1994012Y1355808D1*
X1992014Y1351888D1*
X1989429Y1348331D1*
X1986319Y1345220D1*
X1982761Y1342635D1*
X1978841Y1340638D1*
X1974657Y1339278D1*
X1970314Y1338591D1*
X1965915D1*
X1961571Y1339278D1*
X1957387Y1340638D1*
X1953467Y1342635D1*
X1949909Y1345220D1*
X1946799Y1348331D1*
X1944214Y1351888D1*
X1942217Y1355808D1*
X1940857Y1359992D1*
X1940169Y1364336D1*
Y1368735D1*
X1940857Y1373079D1*
X1942217Y1377262D1*
X1944214Y1381182D1*
X1946799Y1384740D1*
X1949944Y1387878D1*
X1949909Y2015937D1*
X1946799Y2019047D1*
X1944214Y2022605D1*
X1942217Y2026525D1*
X1940857Y2030709D1*
X1940169Y2035052D1*
Y2039451D1*
X1940857Y2043795D1*
X1942217Y2047979D1*
X1944214Y2051899D1*
X1946799Y2055457D1*
X1949909Y2058567D1*
X1953467Y2061152D1*
X1957387Y2063150D1*
X1961571Y2064509D1*
X1965915Y2065197D1*
X1970314D1*
X1974657Y2064509D1*
X1978841Y2063150D1*
X1982761Y2061152D1*
X1986319Y2058567D1*
X1989429Y2055457D1*
X1992014Y2051899D1*
X1994012Y2047979D1*
X1995371Y2043795D1*
X1996059Y2039451D1*
Y2035052D1*
X1995371Y2030709D1*
X1994012Y2026525D1*
X1992014Y2022605D1*
X1989429Y2019047D1*
X1986285Y2015909D1*
X1986319Y1387850D1*
X1989429Y1384740D1*
X1992014Y1381182D1*
X1994012Y1377262D1*
X1995371Y1373079D1*
X1996059Y1368735D1*
Y1364336D1*
X1715346Y2035052D2*
X1714659Y2030709D1*
X1713299Y2026525D1*
X1711302Y2022605D1*
X1708717Y2019047D1*
X1705606Y2015937D1*
X1702049Y2013352D1*
X1698129Y2011354D1*
X1693945Y2009995D1*
X1689601Y2009307D1*
X1685202D1*
X1680858Y2009995D1*
X1676675Y2011354D1*
X1672755Y2013352D1*
X1669197Y2015937D1*
X1666059Y2019081D1*
X1633913Y2019047D1*
X1630803Y2015937D1*
X1627245Y2013352D1*
X1623325Y2011354D1*
X1619142Y2009995D1*
X1614798Y2009307D1*
X1610399D1*
X1606055Y2009995D1*
X1601871Y2011354D1*
X1597951Y2013352D1*
X1594394Y2015937D1*
X1591283Y2019047D1*
X1588698Y2022605D1*
X1586701Y2026525D1*
X1585341Y2030709D1*
X1584654Y2035052D1*
Y2039451D1*
X1585341Y2043795D1*
X1586701Y2047979D1*
X1588698Y2051899D1*
X1591283Y2055457D1*
X1594394Y2058567D1*
X1597951Y2061152D1*
X1601871Y2063150D1*
X1606055Y2064509D1*
X1610399Y2065197D1*
X1614798D1*
X1619142Y2064509D1*
X1623325Y2063150D1*
X1627245Y2061152D1*
X1630803Y2058567D1*
X1633941Y2055423D1*
X1666087Y2055457D1*
X1669197Y2058567D1*
X1672755Y2061152D1*
X1676675Y2063150D1*
X1680858Y2064509D1*
X1685202Y2065197D1*
X1689601D1*
X1693945Y2064509D1*
X1698129Y2063150D1*
X1702049Y2061152D1*
X1705606Y2058567D1*
X1708717Y2055457D1*
X1711302Y2051899D1*
X1713299Y2047979D1*
X1714659Y2043795D1*
X1715346Y2039451D1*
Y2035052D1*
X1175651Y2159138D2*
X1178795Y2156000D1*
X1181381Y2152442D1*
X1182612Y2150185D1*
X1182583Y2601717D1*
X1179472Y2604827D1*
X1176887Y2608385D1*
X1175656Y2610642D1*
X1175669Y2159118D1*
X1745350Y881829D2*
X1742213Y878685D1*
X1738655Y876100D1*
X1734735Y874102D1*
X1730551Y872743D1*
X1726207Y872055D1*
X1721808D1*
X1717465Y872743D1*
X1713281Y874102D1*
X1709361Y876100D1*
X1705803Y878685D1*
X1702693Y881795D1*
X1700108Y885353D1*
X1698110Y889273D1*
X1696751Y893457D1*
X1696063Y897801D1*
Y902199D1*
X1696751Y906543D1*
X1698110Y910727D1*
X1700108Y914647D1*
X1702693Y918205D1*
X1705803Y921315D1*
X1709361Y923900D1*
X1713281Y925898D1*
X1717465Y927257D1*
X1721808Y927945D1*
X1726207D1*
X1730551Y927257D1*
X1734735Y925898D1*
X1738655Y923900D1*
X1742213Y921315D1*
X1745350Y918171D1*
X1954673Y918205D1*
X1957783Y921315D1*
X1961341Y923900D1*
X1965261Y925898D1*
X1969445Y927257D1*
X1973789Y927945D1*
X1978188D1*
X1982531Y927257D1*
X1986715Y925898D1*
X1990635Y923900D1*
X1994193Y921315D1*
X1997303Y918205D1*
X1999888Y914647D1*
X2001886Y910727D1*
X2003245Y906543D1*
X2003933Y902199D1*
Y897801D1*
X2003245Y893457D1*
X2001886Y889273D1*
X1999888Y885353D1*
X1997303Y881795D1*
X1994193Y878685D1*
X1990635Y876100D1*
X1986715Y874102D1*
X1982531Y872743D1*
X1978188Y872055D1*
X1973789D1*
X1969445Y872743D1*
X1965261Y874102D1*
X1961341Y876100D1*
X1957783Y878685D1*
X1954646Y881829D1*
X1745327Y881811D1*
X2092484Y364336D2*
X2091797Y359992D1*
X2090437Y355808D1*
X2088440Y351888D1*
X2085854Y348331D1*
X2082744Y345220D1*
X2079186Y342635D1*
X2075266Y340638D1*
X2071083Y339278D1*
X2066739Y338591D1*
X2062340D1*
X2057996Y339278D1*
X2053812Y340638D1*
X2049892Y342635D1*
X2046335Y345220D1*
X2043224Y348331D1*
X2040639Y351888D1*
X2038642Y355808D1*
X2037282Y359992D1*
X2036594Y364336D1*
Y368735D1*
X2037282Y373079D1*
X2038642Y377262D1*
X2040639Y381182D1*
X2043224Y384740D1*
X2046369Y387878D1*
X2046335Y579079D1*
X2043224Y582189D1*
X2040639Y585747D1*
X2038642Y589667D1*
X2037282Y593850D1*
X2036594Y598194D1*
Y602593D1*
X2037282Y606937D1*
X2038642Y611121D1*
X2040639Y615041D1*
X2043224Y618598D1*
X2046335Y621709D1*
X2049892Y624294D1*
X2053812Y626291D1*
X2057996Y627651D1*
X2062340Y628339D1*
X2066739D1*
X2071083Y627651D1*
X2075266Y626291D1*
X2079186Y624294D1*
X2082744Y621709D1*
X2085854Y618598D1*
X2088440Y615041D1*
X2090437Y611121D1*
X2091797Y606937D1*
X2092484Y602593D1*
Y598194D1*
X2091797Y593850D1*
X2090437Y589667D1*
X2088440Y585747D1*
X2085854Y582189D1*
X2082710Y579051D1*
X2082744Y387850D1*
X2085854Y384740D1*
X2088440Y381182D1*
X2090437Y377262D1*
X2091797Y373079D1*
X2092484Y368735D1*
Y364336D1*
X2486743Y1845612D2*
X2484591Y1843857D1*
X2480840Y1841559D1*
X2476777Y1839875D1*
X2472499Y1838849D1*
X2468114Y1838504D1*
X2463730Y1838849D1*
X2459451Y1839875D1*
X2455388Y1841559D1*
X2451638Y1843857D1*
X2448293Y1846714D1*
X2445436Y1850059D1*
X2443138Y1853810D1*
X2441454Y1857873D1*
X2440428Y1862151D1*
X2440083Y1866535D1*
X2440428Y1870920D1*
X2441454Y1875198D1*
X2443138Y1879261D1*
X2445436Y1883012D1*
X2448293Y1886357D1*
X2449944Y1887878D1*
X2449909Y2075142D1*
X2446799Y2078252D1*
X2444214Y2081810D1*
X2442217Y2085730D1*
X2440857Y2089913D1*
X2440169Y2094257D1*
Y2098656D1*
X2440857Y2103000D1*
X2442217Y2107184D1*
X2444214Y2111104D1*
X2446799Y2114661D1*
X2449909Y2117772D1*
X2453467Y2120357D1*
X2457387Y2122354D1*
X2461571Y2123714D1*
X2465915Y2124402D1*
X2470314D1*
X2474657Y2123714D1*
X2478841Y2122354D1*
X2482761Y2120357D1*
X2486743Y2117381D1*
X2486717Y2493449D1*
X2483606Y2496559D1*
X2481021Y2500117D1*
X2479024Y2504037D1*
X2477664Y2508220D1*
X2476976Y2512564D1*
Y2516963D1*
X2477664Y2521307D1*
X2479024Y2525491D1*
X2481021Y2529411D1*
X2483606Y2532969D1*
X2486717Y2536079D1*
X2490274Y2538664D1*
X2494194Y2540661D1*
X2498378Y2542021D1*
X2502722Y2542709D1*
X2507121D1*
X2511465Y2542021D1*
X2515648Y2540661D1*
X2519568Y2538664D1*
X2523126Y2536079D1*
X2526236Y2532969D1*
X2528822Y2529411D1*
X2530819Y2525491D1*
X2532178Y2521307D1*
X2532866Y2516963D1*
Y2512564D1*
X2532178Y2508220D1*
X2530819Y2504037D1*
X2528822Y2500117D1*
X2526236Y2496559D1*
X2523092Y2493421D1*
X2523110Y2419929D1*
X2526087Y2422890D1*
X2529644Y2425475D1*
X2533564Y2427472D1*
X2537748Y2428832D1*
X2542092Y2429520D1*
X2546491D1*
X2550835Y2428832D1*
X2555018Y2427472D1*
X2558938Y2425475D1*
X2562496Y2422890D1*
X2565606Y2419780D1*
X2568192Y2416222D1*
X2570189Y2412302D1*
X2571549Y2408118D1*
X2572236Y2403774D1*
Y2399375D1*
X2571549Y2395031D1*
X2570189Y2390848D1*
X2568192Y2386928D1*
X2565606Y2383370D1*
X2563058Y2380780D1*
X2563091Y387850D1*
X2566201Y384740D1*
X2568786Y381182D1*
X2570783Y377262D1*
X2572143Y373079D1*
X2572831Y368735D1*
Y364336D1*
X2572143Y359992D1*
X2570783Y355808D1*
X2568786Y351888D1*
X2566201Y348331D1*
X2563091Y345220D1*
X2559533Y342635D1*
X2555613Y340638D1*
X2551429Y339278D1*
X2547085Y338591D1*
X2542686D1*
X2538343Y339278D1*
X2534159Y340638D1*
X2530239Y342635D1*
X2526681Y345220D1*
X2523571Y348331D1*
X2520986Y351888D1*
X2518988Y355808D1*
X2517629Y359992D1*
X2516941Y364336D1*
Y368735D1*
X2517629Y373079D1*
X2518988Y377262D1*
X2520986Y381182D1*
X2523571Y384740D1*
X2526715Y387878D1*
X2526697Y1350472D1*
X2524743Y1348289D1*
X2521398Y1345432D1*
X2517647Y1343134D1*
X2513584Y1341450D1*
X2509306Y1340424D1*
X2504921Y1340079D1*
X2500537Y1340424D1*
X2496259Y1341450D1*
X2492196Y1343134D1*
X2488445Y1345432D1*
X2485100Y1348289D1*
X2482243Y1351634D1*
X2479945Y1355385D1*
X2478261Y1359448D1*
X2477235Y1363726D1*
X2476890Y1368110D1*
X2477235Y1372495D1*
X2478261Y1376773D1*
X2479945Y1380836D1*
X2482243Y1384587D1*
X2485100Y1387932D1*
X2486751Y1389453D1*
X2486732Y1845556D1*
X1430508Y2094257D2*
X1429820Y2089913D1*
X1428461Y2085730D1*
X1426463Y2081810D1*
X1423878Y2078252D1*
X1420768Y2075142D1*
X1417210Y2072556D1*
X1413290Y2070559D1*
X1409106Y2069199D1*
X1404762Y2068512D1*
X1400364D1*
X1396020Y2069199D1*
X1391836Y2070559D1*
X1387916Y2072556D1*
X1384358Y2075142D1*
X1381248Y2078252D1*
X1378663Y2081810D1*
X1376665Y2085730D1*
X1375306Y2089913D1*
X1374618Y2094257D1*
Y2098656D1*
X1375306Y2103000D1*
X1376665Y2107184D1*
X1378663Y2111104D1*
X1381248Y2114661D1*
X1384392Y2117799D1*
X1384374Y2188339D1*
X1369622Y2203080D1*
X1330370Y2203059D1*
X1327260Y2199949D1*
X1323702Y2197364D1*
X1319782Y2195366D1*
X1315598Y2194007D1*
X1311255Y2193319D1*
X1306856D1*
X1302512Y2194007D1*
X1298328Y2195366D1*
X1294408Y2197364D1*
X1290850Y2199949D1*
X1287740Y2203059D1*
X1285155Y2206617D1*
X1283157Y2210537D1*
X1281798Y2214720D1*
X1281110Y2219064D1*
Y2223463D1*
X1281798Y2227807D1*
X1283157Y2231991D1*
X1285155Y2235911D1*
X1287740Y2239469D1*
X1290850Y2242579D1*
X1294408Y2245164D1*
X1298328Y2247161D1*
X1302512Y2248521D1*
X1306856Y2249209D1*
X1311255D1*
X1315598Y2248521D1*
X1319782Y2247161D1*
X1323702Y2245164D1*
X1327260Y2242579D1*
X1330398Y2239434D1*
X1378588Y2239396D1*
X1381408Y2238950D1*
X1384122Y2238068D1*
X1386665Y2236773D1*
X1388974Y2235094D1*
X1406726Y2217423D1*
X1416394Y2207675D1*
X1418072Y2205366D1*
X1419367Y2202823D1*
X1420249Y2200109D1*
X1420696Y2197289D1*
X1420752Y2172240D1*
X1420768Y2117772D1*
X1423878Y2114661D1*
X1426463Y2111104D1*
X1428461Y2107184D1*
X1429820Y2103000D1*
X1430508Y2098656D1*
Y2094257D1*
X2624012Y2456462D2*
X2623324Y2452118D1*
X2621965Y2447934D1*
X2619967Y2444014D1*
X2617382Y2440457D1*
X2614272Y2437346D1*
X2611678Y2435406D1*
X2611693Y889802D1*
X2614272Y887850D1*
X2617382Y884740D1*
X2619967Y881182D1*
X2621965Y877262D1*
X2623324Y873079D1*
X2624012Y868735D1*
Y864336D1*
X2623324Y859992D1*
X2621965Y855808D1*
X2619967Y851888D1*
X2617382Y848331D1*
X2614272Y845220D1*
X2610714Y842635D1*
X2606794Y840638D1*
X2602610Y839278D1*
X2598266Y838591D1*
X2593867D1*
X2589524Y839278D1*
X2585340Y840638D1*
X2581420Y842635D1*
X2577862Y845220D1*
X2574752Y848331D1*
X2572167Y851888D1*
X2570169Y855808D1*
X2568810Y859992D1*
X2568122Y864336D1*
Y868735D1*
X2568810Y873079D1*
X2570169Y877262D1*
X2572167Y881182D1*
X2574752Y884740D1*
X2575329Y885365D1*
X2575315Y2439824D1*
X2573388Y2442185D1*
X2571091Y2445936D1*
X2569407Y2449999D1*
X2568381Y2454277D1*
X2568035Y2458661D1*
X2568381Y2463046D1*
X2569407Y2467324D1*
X2571091Y2471387D1*
X2573388Y2475138D1*
X2576245Y2478483D1*
X2579591Y2481340D1*
X2583341Y2483638D1*
X2587404Y2485322D1*
X2591682Y2486348D1*
X2596067Y2486693D1*
X2600451Y2486348D1*
X2604730Y2485322D1*
X2608793Y2483638D1*
X2612543Y2481340D1*
X2615888Y2478483D1*
X2618745Y2475138D1*
X2621043Y2471387D1*
X2622727Y2467324D1*
X2623753Y2463046D1*
X2624098Y2458661D1*
X2624012Y2456462D1*
X997692Y2463167D2*
X1000877Y2462955D1*
X1003652Y2462290D1*
X1006289Y2461197D1*
X1008723Y2459706D1*
X1010894Y2457853D1*
X1017768Y2450898D1*
X1019446Y2448589D1*
X1020741Y2446046D1*
X1021623Y2443332D1*
X1022070Y2440512D1*
X1022126Y2439085D1*
X2204533Y3386299D2*
X2283656D1*
X2286673Y3388820D1*
X2290424Y3391118D1*
X2294487Y3392802D1*
X2298765Y3393828D1*
X2303150Y3394173D1*
X2307534Y3393828D1*
X2311812Y3392802D1*
X2315875Y3391118D1*
X2319626Y3388820D1*
X2322971Y3385963D1*
X2325828Y3382618D1*
X2328126Y3378867D1*
X2329810Y3374804D1*
X2330836Y3370526D1*
X2331181Y3366142D1*
X2330836Y3361757D1*
X2329810Y3357479D1*
X2328126Y3353416D1*
X2325828Y3349665D1*
X2322971Y3346320D1*
X2319626Y3343463D1*
X2315875Y3341165D1*
X2311812Y3339482D1*
X2307534Y3338455D1*
X2303150Y3338110D1*
X2298765Y3338455D1*
X2294487Y3339482D1*
X2290424Y3341165D1*
X2286673Y3343463D1*
X2283676Y3346000D1*
X2204533Y3345984D1*
X2201516Y3343463D1*
X2197765Y3341165D1*
X2193702Y3339482D1*
X2189424Y3338455D1*
X2185039Y3338110D1*
X2180655Y3338455D1*
X2176377Y3339482D1*
X2172314Y3341165D1*
X2168563Y3343463D1*
X2165218Y3346320D1*
X2162361Y3349665D1*
X2160063Y3353416D1*
X2158379Y3357479D1*
X2157353Y3361757D1*
X2157008Y3366142D1*
X2157353Y3370526D1*
X2158379Y3374804D1*
X2160063Y3378867D1*
X2162361Y3382618D1*
X2165218Y3385963D1*
X2168563Y3388820D1*
X2172314Y3391118D1*
X2176377Y3392802D1*
X2180655Y3393828D1*
X2185039Y3394173D1*
X2189424Y3393828D1*
X2193702Y3392802D1*
X2197765Y3391118D1*
X2201516Y3388820D1*
X2204513Y3386283D1*
X31866Y31890D2*
X3068110D1*
Y3568110D1*
X31890D1*
Y31886D1*
D17*
X500000Y2200000D3*
D18*
X600000D3*
D17*
X1800000Y3450000D3*
D18*
X1900000D3*
X2000000D3*
X2100000D3*
X2200000D3*
X2300000D3*
X2400000D3*
D17*
X800000D3*
D18*
X900000D3*
X1000000D3*
X1100000D3*
X1200000D3*
D24*
X452953Y3275000D3*
D25*
X197047D3*
M02*
