M48
INCH
T01C0.0138
T02C0.0315
T03C0.0433
T04C0.1378
%
T01
X+010384Y+025492
X+010157Y+025197
X+009848Y+025591
X+010202Y+025846
X+010453Y+026152
X+010478Y+026506
X+010866Y+026407
X+010833Y+026998
X+010285Y+027362
X+010242Y+028435
X+010612Y+028435
X+010417Y+029000
X+009848Y+029724
X+010197Y+030000
X+010675Y+030236
X+011518Y+030236
X+012096Y+029980
X+011518Y+029545
X+012096Y+031750
X+010675Y+032636
X+012312Y+034063
X+013250Y+033125
X+008071Y+033465
X+006496Y+031890
X+006614Y+030984
X+007591Y+030330
X+006693Y+029685
X+006791Y+028283
X+006791Y+027768
X+007591Y+027608
X+008071Y+028543
X+009252Y+028543
X+008652Y+029670
X+009508Y+026604
X+009134Y+025817
X+007000Y+026077
X+005906Y+026102
X+005906Y+023701
X+007008Y+023701
X+009154Y+021122
X+011319Y+022213
X+011575Y+021378
X+012417Y+021378
X+013087Y+021122
X+014026Y+020965
X+013091Y+022213
X+012264Y+022665
X+012264Y+023665
X+012402Y+024803
X+013386Y+025787
X+012303Y+026427
X+012008Y+026230
X+011935Y+026841
X+014862Y+025492
X+015803Y+024587
X+016535Y+024065
X+017372Y+025148
X+017520Y+021457
X+016874Y+020373
X+017520Y+020079
X+016126Y+020373
X+019681Y+020373
X+022589Y+020226
X+024681Y+020965
X+024681Y+018665
X+023868Y+016093
X+024409Y+015404
X+025049Y+013681
X+023917Y+011122
X+024360Y+010433
X+025961Y+008665
X+023917Y+006004
X+024360Y+005413
X+025449Y+003665
X+020645Y+003665
X+019390Y+005217
X+018898Y+006299
X+020645Y+006004
X+019760Y+009000
X+019390Y+010482
X+018799Y+011220
X+019681Y+013665
X+019390Y+015404
X+018947Y+016043
X+017933Y+015441
X+013878Y+015157
X+013878Y+016388
X+012062Y+020188
X+012417Y+020373
X+010039Y+013681
X+010384Y+011663
X+012063Y+011644
X+012057Y+010236
X+012083Y+009000
X+013087Y+009256
X+013087Y+008665
X+013730Y+009793
X+014681Y+009000
X+014932Y+008665
X+015551Y+010236
X+017240Y+009000
X+015217Y+006004
X+014370Y+005315
X+013819Y+006063
X+015551Y+003661
X+011913Y+003665
X+010906Y+008665
X+010512Y+009016
X+013730Y+011270
X+003614Y+024937
X+003500Y+025688
X+004763Y+028936
X+019488Y+033071
X+020276Y+033858
X+021850Y+033661
X+023031Y+033661
X+025049Y+025148
X+025961Y+024587
X+025443Y+024016
T02
X+001000Y+023591
X+001000Y+022409
T03
X+005000Y+022000
X+006000Y+022000
X+004530Y+032750
X+001970Y+032750
X+008000Y+034500
X+009000Y+034500
X+010000Y+034500
X+011000Y+034500
X+012000Y+034500
X+018000Y+034500
X+019000Y+034500
X+020000Y+034500
X+021000Y+034500
X+022000Y+034500
X+023000Y+034500
X+024000Y+034500
T04
X+005500Y+015996
X+005500Y+004776
T00
M30
