G04 DipTrace Beta 3.0.9.0*
G04 Top.gbr*
%MOIN*%
G04 #@! TF.FileFunction,Copper,L1,Top*
G04 #@! TF.Part,Single*
%AMOUTLINE0*
4,1,22,
-0.015748,0.062992,
-0.015748,0.043307,
-0.021621,0.043314,
-0.023387,0.041105,
-0.027559,0.035433,
-0.027559,-0.043307,
-0.015748,-0.043307,
-0.015748,-0.062992,
-0.003937,-0.062992,
-0.003937,-0.043307,
0.003937,-0.043307,
0.003937,-0.062992,
0.015748,-0.062992,
0.015748,-0.043307,
0.027559,-0.043307,
0.027559,0.043307,
0.015748,0.043307,
0.015748,0.062992,
0.003937,0.062992,
0.003937,0.043307,
-0.003937,0.043307,
-0.003937,0.062992,
-0.015748,0.062992,
0*%
G04 #@! TA.AperFunction,Conductor*
%ADD13C,0.015748*%
G04 #@! TA.AperFunction,CopperBalancing*
%ADD14C,0.011811*%
G04 #@! TA.AperFunction,Conductor*
%ADD15C,0.019685*%
%ADD16C,0.007874*%
G04 #@! TA.AperFunction,ComponentPad*
%ADD17R,0.066929X0.066929*%
%ADD18C,0.066929*%
%ADD19R,0.03937X0.043307*%
%ADD20R,0.043307X0.03937*%
%ADD21R,0.062992X0.070866*%
%ADD22R,0.070866X0.062992*%
%ADD23R,0.137795X0.055118*%
G04 #@! TA.AperFunction,ComponentPad*
%ADD24R,0.074803X0.074803*%
%ADD25C,0.074803*%
%ADD27R,0.051181X0.061024*%
%ADD29R,0.061024X0.051181*%
%ADD31R,0.047244X0.023622*%
%ADD32R,0.027559X0.03937*%
%ADD34R,0.011811X0.062992*%
%ADD35R,0.062992X0.011811*%
%ADD37R,0.023622X0.011811*%
%ADD40R,0.07874X0.047244*%
G04 #@! TA.AperFunction,ViaPad*
%ADD41C,0.027559*%
%ADD79OUTLINE0*%
%FSLAX26Y26*%
G04*
G70*
G90*
G75*
G01*
G04 Top*
%LPD*%
X575000Y2955118D2*
D13*
X400000D1*
X2650000Y1933465D2*
X2653150D1*
X2519685Y2066929D1*
X2150000D1*
X1650000D1*
X1338583D1*
X1150000D1*
X885827D1*
X649606Y2303150D1*
Y2491535D1*
Y2893701D1*
X588189Y2955118D1*
X575000D1*
X885827Y2066929D2*
Y1574803D1*
X1150000D1*
X1661554D1*
X2150000D1*
X2519685D1*
X2661024Y1433465D1*
X2650000D1*
X1650000D2*
Y1563249D1*
X1661554Y1574803D1*
X1150000Y1433465D2*
Y1574803D1*
X2150000Y1433465D2*
Y1574803D1*
Y1933465D2*
Y2066929D1*
X1650000Y1933465D2*
Y2066929D1*
X1150000Y1933465D2*
Y2066929D1*
Y933465D2*
Y1082677D1*
X885827D1*
Y1574803D1*
X1650000Y933465D2*
Y1082677D1*
X1150000D1*
X2150000Y933465D2*
Y1082677D1*
X1650000D1*
X2650000Y933465D2*
X2649213D1*
X2500000Y1082677D1*
X2150000D1*
X1150000Y433465D2*
Y570866D1*
X984252D1*
X885827Y669291D1*
Y1082677D1*
X1650000Y433465D2*
Y570866D1*
X1150000D1*
X2150000Y433465D2*
Y570866D1*
X1650000D1*
X2650000Y433465D2*
X2637402D1*
X2500000Y570866D1*
X2150000D1*
X298819Y2689379D2*
D14*
Y2693751D1*
D13*
Y2740067D1*
Y2853937D1*
X400000Y2955118D1*
X401181Y2689379D2*
D14*
Y2693749D1*
D13*
Y2709055D1*
X374016Y2736220D1*
X302665D1*
X298819Y2740067D1*
X700000Y2491535D2*
X649606D1*
X841535Y2900000D2*
Y2893701D1*
X649606D1*
X841535Y2900000D2*
Y2908465D1*
X870571Y2937500D1*
X1082382D1*
X1094882Y2925000D1*
X809646Y2516732D2*
D14*
X725197D1*
X700000Y2491535D1*
X866732Y2790354D2*
Y2874803D1*
X841535Y2900000D1*
X1140354Y2733268D2*
X1224803D1*
X1250000Y2758465D1*
Y2765748D1*
D13*
X1090748Y2925000D1*
D14*
X1094882D1*
X1175000Y2433465D2*
D13*
X1275000D1*
X1279035D1*
X1338583Y2373917D1*
Y2066929D1*
X866732Y2459646D2*
D14*
Y2495768D1*
X845768Y2516732D1*
X809646D1*
X1024213Y2459646D2*
Y2413287D1*
X1031004Y2406496D1*
X1148031D1*
X1175000Y2433465D1*
X1900000Y3450000D2*
D13*
Y3437500D1*
X1825000Y3362500D1*
X1000000D1*
X875000D1*
X575000Y3062500D1*
Y2955118D1*
X1000000Y3437500D2*
Y3450000D1*
Y3362500D1*
X500000Y2200000D2*
D15*
Y2206249D1*
X387500D1*
X323277Y2270472D1*
X174803D1*
X809646Y2595472D2*
D14*
X771063D1*
X700000Y2666535D1*
X1761412Y456496D2*
D13*
Y366535D1*
X1761421D1*
Y143504D1*
X1650000Y366535D2*
X1761421D1*
X1038386Y2549213D2*
D16*
X1070866Y2581693D1*
Y2599409D1*
X1086614Y2615157D1*
X1140354D1*
X1206295Y1164370D2*
X1038386D1*
Y1166339D1*
X1555118Y1023622D2*
X1205709D1*
X1650000Y366535D2*
X1555118D1*
Y366142D1*
X1261412Y1956496D2*
D13*
Y1866535D1*
X1261421D1*
Y1643504D1*
X1150000Y1866535D2*
X1261421D1*
X1140354Y2634843D2*
D16*
Y2632874D1*
Y2634843D2*
X1188976D1*
X1200787Y2623031D1*
X1206249Y2018751D2*
Y2011659D1*
X1261412Y1956496D1*
X1761421Y1643504D2*
D13*
Y1866535D1*
X1761412D1*
Y1956496D1*
X1650000Y1866535D2*
X1761412D1*
X1140354Y2654528D2*
D16*
Y2652559D1*
X1220472D1*
X1230315Y2642717D1*
X1486220Y2549213D2*
Y2411417D1*
X1751969Y2145669D1*
Y2007874D2*
Y1965940D1*
X1761412Y1956496D1*
X2261412D2*
D13*
Y1866535D1*
X2261421D1*
Y1643504D1*
X2150000Y1866535D2*
X2261421D1*
X1209646Y3175000D2*
D16*
X774803D1*
X759055Y3159252D1*
Y3032972D1*
Y2760827D2*
Y2700591D1*
X765748Y2693898D1*
X809646D1*
X2150000Y1866535D2*
Y1855906D1*
X2258858Y2022638D2*
Y1959050D1*
X2261412Y1956496D1*
X1261421Y1143504D2*
D13*
Y1366535D1*
X1261412D1*
Y1456496D1*
X1150000Y1366535D2*
X1261412D1*
X679134Y2828343D2*
D16*
X733465Y2774012D1*
Y2689962D1*
X749214Y2674213D1*
X809646D1*
X1150000Y1366535D2*
X1003937D1*
Y1368110D1*
X1761412Y1456496D2*
D13*
Y1362811D1*
X1761421D1*
Y1143504D1*
X1209646Y2998031D2*
D16*
X1019685D1*
Y3000000D1*
X950787Y2660433D2*
X944882Y2654528D1*
X809646D2*
X944882D1*
X1650000Y1366535D2*
X1757688D1*
X1761412Y1362811D1*
Y1456496D2*
Y1512199D1*
X1793307Y1544094D1*
X2261412Y1456496D2*
D13*
Y1366535D1*
X2261421D1*
Y1143504D1*
X2150000Y1366535D2*
X2261421D1*
X2150000D2*
D16*
X1968114D1*
X1687402Y2037252D2*
X1968114D1*
X1241685D2*
X1612598D1*
X1157480Y2137795D2*
X1241685D1*
X1047839Y2650591D2*
X984252D1*
X968504Y2634843D1*
X809646D1*
X1261412Y956496D2*
D13*
Y866535D1*
X1261421D1*
Y643504D1*
X1150000Y866535D2*
X1261412D1*
X1150000D2*
D16*
X1090551D1*
X1045276Y2615157D2*
X809646D1*
X1761412Y956496D2*
D13*
Y866535D1*
X1761421D1*
Y643504D1*
X1650000Y866535D2*
X1761412D1*
X669291Y2968504D2*
D16*
X865161D1*
Y2967028D1*
X1308657Y2112205D2*
X915354D1*
X1308657Y866535D2*
Y925591D1*
X1650000Y866535D2*
X1493169D1*
X913386Y2581693D2*
X907480Y2575787D1*
X809646D1*
X2261412Y956496D2*
D13*
Y866535D1*
X2261421D1*
Y643504D1*
X2150000Y866535D2*
X2261412D1*
X1020220Y2584646D2*
D16*
X953248D1*
X924705Y2556102D1*
X809646D1*
X1208260Y900000D2*
X1051181D1*
Y901575D1*
X1724008Y900000D2*
X1468114D1*
X2150000Y866535D2*
X2116535Y900000D1*
X1975988D1*
X1261412Y456496D2*
D13*
Y366535D1*
X1261421D1*
Y143504D1*
X1140354Y2674213D2*
D16*
X1094488D1*
X1086614Y2666339D1*
Y2640748D1*
X1150000Y366535D2*
X1191339D1*
X1261412D1*
X2261412Y456496D2*
D13*
Y366535D1*
X2261421D1*
Y143504D1*
X2150000Y366535D2*
X2261412D1*
X2150000D2*
D16*
X2064539D1*
X1521654Y600394D2*
Y595472D1*
X2064539D1*
Y600394D1*
X1193504Y2684059D2*
X1183665Y2693898D1*
X1140354D1*
X2761412Y1956496D2*
D13*
Y1866535D1*
X2761421D1*
Y1643504D1*
X2650000Y1866535D2*
X2761412D1*
X2650000D2*
D16*
X2468114D1*
X1402563Y2096457D2*
X2468114D1*
X1131890Y2221264D2*
X1309055D1*
X1083268Y2699803D2*
Y2790354D1*
X2761412Y1456496D2*
D13*
Y1366535D1*
X2761421D1*
Y1143504D1*
X2650000Y1366535D2*
X2761412D1*
X2650000D2*
D16*
X2504921D1*
Y1368110D1*
X1737205Y2514764D2*
X2504921D1*
X1061220Y2843504D2*
X1063583Y2841142D1*
Y2790354D1*
X2761412Y956496D2*
D13*
Y866535D1*
X2761421D1*
Y643504D1*
X2650000Y866535D2*
X2761412D1*
X1028543Y2736220D2*
D16*
X1043898Y2751575D1*
Y2790354D1*
X2596067Y2458661D2*
X1580319D1*
X2650000Y866535D2*
X2596067D1*
X2761412Y456496D2*
D13*
Y366535D1*
X2761421D1*
Y143504D1*
X2650000Y366535D2*
X2761412D1*
X1024213Y2843504D2*
D16*
Y2790354D1*
X2544291Y2401575D2*
X1653543D1*
Y2406496D1*
X2650000Y366535D2*
X2544886D1*
X650000Y3308465D2*
D14*
Y3300000D1*
X477953D1*
X452953Y3275000D1*
X1140354Y2516732D2*
X1394685D1*
X2327953Y3450000D1*
D16*
X2300000D1*
X1083268Y2459646D2*
Y2480315D1*
D14*
X1240157D1*
X1338583Y2578740D2*
X2200000Y3440157D1*
D16*
Y3450000D1*
X1438587Y1956496D2*
D13*
Y1643504D1*
X1438577D1*
X1938587Y1956496D2*
Y1643504D1*
X1938577D1*
X2438587Y1956496D2*
Y1643504D1*
X2438577D1*
X2938587Y1956496D2*
Y1643504D1*
X2938577D1*
X1438587Y1456496D2*
Y1143504D1*
X1438577D1*
X1938587Y1456496D2*
Y1143504D1*
X1938577D1*
X2438587Y1456496D2*
Y1143504D1*
X2438577D1*
X2938587Y1456496D2*
Y1143504D1*
X2938577D1*
X2938587Y956496D2*
Y643504D1*
X2938577D1*
X2438587Y956496D2*
Y643504D1*
X2438577D1*
X1938587Y956496D2*
Y643504D1*
X1938577D1*
X1438587Y956496D2*
Y643504D1*
X1438577D1*
X1438587Y456496D2*
Y143504D1*
X1438577D1*
X1938587Y456496D2*
Y143504D1*
X1938577D1*
X2438587Y456496D2*
Y143504D1*
X2438577D1*
X2938587Y456496D2*
Y143504D1*
X2938577D1*
X800000Y3208465D2*
D14*
X888382D1*
X943504Y3263587D1*
X1256487D1*
X1256496Y3263577D1*
X809646Y2536417D2*
X722047D1*
X700000Y2558465D1*
X1140354Y2713583D2*
X1227953D1*
X1250000Y2691535D1*
X1275000Y2366535D2*
X1175000D1*
X1100000Y2266535D2*
X1032677D1*
X1022835Y2256693D1*
X800000Y2333465D2*
X867323D1*
X877165Y2343307D1*
X405118Y2450000D2*
D15*
X413386D1*
Y2393701D1*
X600000Y2207087D1*
Y2200000D1*
X298819Y2650009D2*
D14*
X349991D1*
X350000Y2650000D1*
X401181Y2669694D2*
X369694D1*
X350000Y2650000D1*
X401181Y2669694D2*
X461230D1*
X525000Y2733465D1*
X350000Y2650000D2*
D15*
Y2568751D1*
X361369Y2493749D2*
X405118Y2450000D1*
X400000Y2844882D2*
D13*
X476311D1*
X575000D1*
X525000Y2733465D2*
Y2794882D1*
X575000Y2844882D1*
X2938587Y956496D2*
D14*
Y1143504D1*
X2938577D1*
X2938587Y1456496D2*
Y1643504D1*
X2938577D1*
X2438577Y143504D2*
Y135241D1*
X2495079Y78740D1*
X2878937D1*
X2938577Y138381D1*
Y143504D1*
X908465Y2900000D2*
X1041732D1*
X1100000Y2266535D2*
X1226378D1*
X1938587Y956496D2*
Y1028543D1*
X1938976D1*
Y1048228D1*
X1250000Y2691535D2*
X1283465D1*
Y2905315D1*
X1263780Y2925000D1*
X1205118D1*
X1067520Y3023622D2*
X1151772D1*
X2438587Y456496D2*
Y482283D1*
X2436024D1*
Y541339D1*
X2438577Y643504D2*
X2434843D1*
X2391732Y600394D1*
X1938577Y1143504D2*
Y1146654D1*
X1953740D1*
X1929134Y1122047D1*
X1879921D1*
X1438577Y1143504D2*
X1384646D1*
X1373031Y1131890D1*
Y1126969D1*
X1438587Y956496D2*
X1390945D1*
X1373031Y974409D1*
Y979331D1*
X1438587Y1456496D2*
Y1464957D1*
X1387795Y1515748D1*
X700000Y2558465D2*
Y2607681D1*
X2438587Y956496D2*
X2436024D1*
Y1043307D1*
X1938587Y1456496D2*
Y1540354D1*
X1938976D1*
X2438577Y1143504D2*
Y1139365D1*
X2411417Y1112205D1*
X2391732D1*
X2438587Y1456496D2*
X2440945D1*
Y1540354D1*
X2438577Y1643504D2*
Y1619094D1*
X2416339D1*
X2406496Y1609252D1*
X2386811D1*
X1438577Y1643504D2*
Y1638780D1*
X1387795D1*
X1438577Y643504D2*
Y625000D1*
X1400591D1*
X1381890Y606299D1*
X1438587Y456496D2*
X1437008D1*
Y531496D1*
X1938577Y643504D2*
Y629921D1*
X1889764D1*
X1938587Y456496D2*
X1938976D1*
Y521654D1*
X1938577Y1643504D2*
X1899404Y1604331D1*
X1894685D1*
X1205118Y2925000D2*
X1165551D1*
X1151772Y2938780D1*
Y2954528D1*
X1004528Y2459646D2*
Y2400984D1*
X1023622Y2381890D1*
X1122047D1*
X1141732Y2362205D1*
X1170669D1*
X1175000Y2366535D1*
X700000Y2733465D2*
Y2764567D1*
X687795Y2776772D1*
X679134D1*
X1226378Y2366535D2*
X1175000D1*
X2938577Y643504D2*
Y456505D1*
X2938587Y456496D1*
X908465Y2900000D2*
X886417Y2877953D1*
Y2790354D1*
X2438577Y135428D2*
X2381890Y78740D1*
X1993110D1*
X1938577Y133273D1*
Y143504D1*
Y137396D1*
X1879921Y78740D1*
X1496063D1*
X1438577Y136226D1*
Y143504D1*
X575000Y2844882D2*
X594488D1*
Y2610236D1*
X590551D1*
X476311Y2844882D2*
D13*
Y2893634D1*
X1438577Y143504D2*
D14*
X1434843D1*
X1370079Y78740D1*
X988189D1*
X720472Y346457D1*
Y2181102D1*
X594488Y2307087D1*
Y2370079D1*
Y2606299D1*
X590551Y2610236D1*
X800000Y2333465D2*
Y2325984D1*
X783465Y2342520D1*
X759843D1*
X732283Y2370079D1*
X700787D1*
X590551D2*
X594488D1*
X1022835Y2256693D2*
X1008662D1*
X944882Y2192913D1*
X811024D1*
X700787Y2303150D1*
Y2370079D1*
X800000Y3208465D2*
X771457D1*
X661417Y3098425D1*
X298819Y2630324D2*
X249075D1*
X217570Y2598819D1*
X175000D1*
X298819Y2669694D2*
X249055D1*
X217568Y2701181D1*
X175000D1*
X800000Y3141535D2*
X888381D1*
X943504Y3086412D1*
X1256487D1*
X1256496Y3086421D1*
X1261421D1*
X1325000Y3150000D1*
Y3312500D1*
X1231249Y3406251D2*
X1187500Y3450000D1*
X1200000D1*
X984843Y2459646D2*
Y2559055D1*
Y2972441D2*
Y3045073D1*
X943504Y3086412D1*
X800000Y2266535D2*
X867323D1*
D16*
X877165Y2256693D1*
X945472Y2459646D2*
D14*
Y2303740D1*
X898425Y2256693D1*
X877165D1*
X1100000Y2333465D2*
X1032677D1*
D16*
X1022835Y2343307D1*
X965157Y2459646D2*
D14*
Y2381299D1*
X1003150Y2343307D1*
X1022835D1*
X1140354Y2595472D2*
X1237205D1*
X1948819Y3307087D1*
X2027559Y3385827D2*
X2106299Y3464567D1*
D16*
Y3456299D1*
X2100000Y3450000D1*
X1140354Y2536417D2*
D14*
X1355315D1*
X2185039Y3366142D1*
X2303150D2*
X2387008Y3450000D1*
D16*
X2400000D1*
X1140354Y2556102D2*
D14*
X1256890D1*
X1988189Y3287402D1*
Y3438189D1*
D16*
X2000000Y3450000D1*
X809646Y2733268D2*
D14*
Y2851772D1*
X807087Y2854331D1*
Y3346457D2*
X910630Y3450000D1*
X900000D1*
X906102Y2790354D2*
Y2835236D1*
X925197Y2854331D1*
X1063583Y2459646D2*
Y2499409D1*
X1043307Y2519685D1*
X1015748D1*
X649606Y3188976D2*
Y3241142D1*
X650000Y3241535D1*
X298819Y2610639D2*
Y2606249D1*
D15*
Y2531249D1*
Y2453937D1*
X294882Y2450000D1*
X525000Y2491535D2*
X514714D1*
X475000Y2531249D1*
X298819D1*
X174803Y2388583D2*
X233465D1*
X294882Y2450000D1*
X401181Y2650009D2*
D16*
Y2630324D1*
Y2610630D1*
X525000Y2666535D2*
Y2630324D1*
Y2558465D1*
X401181Y2630324D2*
X525000D1*
D41*
X1200787Y2623031D3*
X1206249Y2018751D3*
X1230315Y2642717D3*
X1486220Y2549213D3*
X1751969Y2145669D3*
Y2007874D3*
X1240157Y2480315D3*
X1338583Y2578740D3*
X350000Y2568751D3*
X361369Y2493749D3*
X476311Y2893634D3*
X700787Y2370079D3*
X590551D3*
X661417Y3098425D3*
X1325000Y3312500D3*
X1231249Y3406251D3*
X984843Y2559055D3*
Y2972441D3*
X1948819Y3307087D3*
X2027559Y3385827D3*
X2185039Y3366142D3*
X2303150D3*
X807087Y2854331D3*
Y3346457D3*
X925197Y2854331D3*
X1015748Y2519685D3*
X649606Y3188976D3*
X1038386Y2549213D3*
Y1166339D3*
X1206295Y1164370D3*
X1205709Y1023622D3*
X1555118D3*
Y366142D3*
X759055Y2760827D3*
Y3032972D3*
X1209646Y3175000D3*
X2258858Y2022638D3*
X679134Y2828343D3*
X1003937Y1368110D3*
X950787Y2660433D3*
X1019685Y3000000D3*
X1209646Y2998031D3*
X1793307Y1544094D3*
X1968114Y1366535D3*
Y2037252D3*
X1687402D3*
X1612598D3*
X1241685D3*
Y2137795D3*
X1157480D3*
X1047839Y2650591D3*
X1090551Y866535D3*
X1045276Y2615157D3*
X913386Y2581693D3*
X865161Y2967028D3*
X669291Y2968504D3*
X915354Y2112205D3*
X1308657D3*
Y925591D3*
Y866535D3*
X1493169D3*
X1020220Y2584646D3*
X1051181Y901575D3*
X1208260Y900000D3*
X1468114D3*
X1724008D3*
X1975988D3*
X1086614Y2640748D3*
X1191339Y366535D3*
X2064539D3*
Y600394D3*
X1521654D3*
X1193504Y2684059D3*
X2468114Y1866535D3*
Y2096457D3*
X1402563D3*
X1309055Y2221264D3*
X1131890D3*
X1083268Y2699803D3*
X2504921Y1368110D3*
Y2514764D3*
X1737205D3*
X1061220Y2843504D3*
X1028543Y2736220D3*
X1580319Y2458661D3*
X2596067D3*
Y866535D3*
X1024213Y2843504D3*
X1653543Y2406496D3*
X2544291Y2401575D3*
X2544886Y366535D3*
X679134Y2776772D3*
X590551Y2610236D3*
X1041732Y2900000D3*
X1151772Y2954528D3*
Y3023622D3*
X2436024Y541339D3*
X2391732Y600394D3*
X1879921Y1122047D3*
X1938976Y1048228D3*
X1373031Y1126969D3*
Y979331D3*
X700000Y2607681D3*
X1938976Y1540354D3*
X2391732Y1112205D3*
X2440945Y1540354D3*
X2386811Y1609252D3*
X1387795Y1638780D3*
Y1515748D3*
X1381890Y606299D3*
X1437008Y531496D3*
X1889764Y629921D3*
X1938976Y521654D3*
X1894685Y1604331D3*
X1067520Y3023622D3*
X1226378Y2266535D3*
X1067520Y3263587D3*
X2436024Y1043307D3*
X1226378Y2366535D3*
X33071Y3556430D2*
D14*
X3066937D1*
X33071Y3544751D2*
X3066937D1*
X33071Y3533071D2*
X3066937D1*
X33071Y3521391D2*
X3066937D1*
X33071Y3509711D2*
X3066937D1*
X33071Y3498031D2*
X3066937D1*
X33071Y3486352D2*
X751100D1*
X848896D2*
X867919D1*
X932081D2*
X967920D1*
X1032083D2*
X1167900D1*
X1232085D2*
X1867911D1*
X1932097D2*
X1967912D1*
X2032098D2*
X2067915D1*
X2132100D2*
X2167916D1*
X2232101D2*
X2267917D1*
X2332080D2*
X2367919D1*
X2432081D2*
X3066937D1*
X33071Y3474672D2*
X751100D1*
X848896D2*
X857976D1*
X942024D2*
X957978D1*
X1042025D2*
X1157980D1*
X1242029D2*
X1857969D1*
X1942016D2*
X1957970D1*
X2042017D2*
X2057971D1*
X2142020D2*
X2157974D1*
X2242021D2*
X2257975D1*
X2342022D2*
X2357976D1*
X2442024D2*
X3066937D1*
X33071Y3462992D2*
X751100D1*
X1047100D2*
X1152906D1*
X1247104D2*
X1852916D1*
X2447098D2*
X3066937D1*
X33071Y3451312D2*
X751100D1*
X1048877D2*
X1151130D1*
X1248879D2*
X1851117D1*
X2448875D2*
X3066937D1*
X33071Y3439633D2*
X751100D1*
X1047747D2*
X1152236D1*
X1247749D2*
X1852248D1*
X2447768D2*
X3066937D1*
X33071Y3427953D2*
X751100D1*
X848896D2*
X856518D1*
X943500D2*
X956501D1*
X1043501D2*
X1156504D1*
X1250172D2*
X1856492D1*
X1943492D2*
X1956493D1*
X2143496D2*
X2156497D1*
X2243497D2*
X2256499D1*
X2443500D2*
X3066937D1*
X33071Y3416273D2*
X751100D1*
X934942D2*
X965060D1*
X1034944D2*
X1165063D1*
X1258614D2*
X1846319D1*
X1934934D2*
X1965075D1*
X2134937D2*
X2146440D1*
X2234938D2*
X2264550D1*
X2434942D2*
X3066937D1*
X33071Y3404593D2*
X751100D1*
X915841D2*
X976710D1*
X1023294D2*
X1184164D1*
X1260413D2*
X1834647D1*
X1915857D2*
X1966874D1*
X2075997D2*
X2084155D1*
X2115836D2*
X2134766D1*
X2215839D2*
X2252877D1*
X2371273D2*
X2384159D1*
X2415841D2*
X3066937D1*
X33071Y3392913D2*
X823881D1*
X883222D2*
X976710D1*
X1023294D2*
X1205409D1*
X1257092D2*
X1822950D1*
X1887874D2*
X1966874D1*
X2064324D2*
X2123093D1*
X2194522D2*
X2241203D1*
X2359600D2*
X3066937D1*
X33071Y3381234D2*
X812185D1*
X1876178D2*
X1966874D1*
X2056390D2*
X2111398D1*
X2209840D2*
X2229508D1*
X2347904D2*
X3066937D1*
X33071Y3369554D2*
X790017D1*
X1864507D2*
X1966874D1*
X2051568D2*
X2099726D1*
X2336232D2*
X3066937D1*
X33071Y3357874D2*
X780304D1*
X1852833D2*
X1966874D1*
X2009514D2*
X2024269D1*
X2030852D2*
X2088052D1*
X2265504D2*
X2275184D1*
X2331110D2*
X3066937D1*
X33071Y3346194D2*
X777883D1*
X1841114D2*
X1966874D1*
X2009514D2*
X2076357D1*
X2253808D2*
X2282266D1*
X2324029D2*
X3066937D1*
X33071Y3334514D2*
X614882D1*
X685110D2*
X780535D1*
X879462D2*
X1306472D1*
X1343529D2*
X1941845D1*
X1955787D2*
X1966874D1*
X2009514D2*
X2064685D1*
X2242136D2*
X3066937D1*
X33071Y3322835D2*
X400114D1*
X505777D2*
X614882D1*
X685110D2*
X790824D1*
X867790D2*
X1297752D1*
X1352249D2*
X1924451D1*
X2009514D2*
X2053012D1*
X2230463D2*
X3066937D1*
X33071Y3311155D2*
X400114D1*
X685110D2*
X791193D1*
X856117D2*
X1295815D1*
X1354186D2*
X1919907D1*
X2009514D2*
X2041340D1*
X2218768D2*
X3066937D1*
X33071Y3299475D2*
X400114D1*
X685110D2*
X779521D1*
X844421D2*
X1298999D1*
X1351004D2*
X1911533D1*
X2009514D2*
X2029643D1*
X2207094D2*
X3066937D1*
X33071Y3287795D2*
X400114D1*
X685110D2*
X767848D1*
X832748D2*
X1303681D1*
X1346320D2*
X1899861D1*
X2009514D2*
X2017971D1*
X2195423D2*
X3066937D1*
X33071Y3276115D2*
X400114D1*
X505777D2*
X614882D1*
X685110D2*
X756152D1*
X821076D2*
X1303681D1*
X1346320D2*
X1888188D1*
X2183727D2*
X3066937D1*
X33071Y3264436D2*
X400114D1*
X505777D2*
X614882D1*
X685110D2*
X744480D1*
X809381D2*
X1303681D1*
X1346320D2*
X1876492D1*
X2172054D2*
X3066937D1*
X33071Y3252756D2*
X400114D1*
X505777D2*
X614882D1*
X685110D2*
X732807D1*
X797707D2*
X1303681D1*
X1346320D2*
X1864820D1*
X2160382D2*
X3066937D1*
X33071Y3241076D2*
X400114D1*
X505777D2*
X614882D1*
X685110D2*
X721112D1*
X786035D2*
X1303681D1*
X1346320D2*
X1853147D1*
X2148709D2*
X3066937D1*
X33071Y3229396D2*
X400114D1*
X505777D2*
X614882D1*
X685110D2*
X709438D1*
X774340D2*
X1303681D1*
X1346320D2*
X1841451D1*
X2137013D2*
X3066937D1*
X33071Y3217717D2*
X614882D1*
X685110D2*
X697766D1*
X762667D2*
X1303681D1*
X1346320D2*
X1829780D1*
X2125341D2*
X3066937D1*
X33071Y3206037D2*
X614882D1*
X750995D2*
X1303681D1*
X1346320D2*
X1818106D1*
X2113668D2*
X3066937D1*
X33071Y3194357D2*
X620925D1*
X739322D2*
X1188201D1*
X1231094D2*
X1303681D1*
X1346320D2*
X1806411D1*
X2101972D2*
X3066937D1*
X33071Y3182677D2*
X621110D1*
X727626D2*
X755598D1*
X1237783D2*
X1303681D1*
X1346320D2*
X1794738D1*
X2090299D2*
X3066937D1*
X33071Y3170997D2*
X626923D1*
X715953D2*
X743995D1*
X1238568D2*
X1303681D1*
X1346320D2*
X1783066D1*
X2078627D2*
X3066937D1*
X33071Y3159318D2*
X639357D1*
X704281D2*
X739705D1*
X1234070D2*
X1303681D1*
X1346320D2*
X1771370D1*
X2066932D2*
X3066937D1*
X33071Y3147638D2*
X627684D1*
X692585D2*
X739705D1*
X911942D2*
X1202387D1*
X1216907D2*
X1292978D1*
X1346182D2*
X1759697D1*
X2055259D2*
X3066937D1*
X33071Y3135958D2*
X616012D1*
X680912D2*
X739705D1*
X923638D2*
X1281282D1*
X1340622D2*
X1748025D1*
X2043587D2*
X3066937D1*
X33071Y3124278D2*
X604316D1*
X669240D2*
X739705D1*
X989453D2*
X1210554D1*
X1328950D2*
X1736352D1*
X2031891D2*
X3066937D1*
X33071Y3112598D2*
X592643D1*
X657545D2*
X739705D1*
X835125D2*
X887642D1*
X989453D2*
X1210554D1*
X1317277D2*
X1724656D1*
X2020218D2*
X3066937D1*
X33071Y3100919D2*
X580971D1*
X645871D2*
X739705D1*
X778423D2*
X897562D1*
X1305581D2*
X1712984D1*
X2008546D2*
X3066937D1*
X33071Y3089239D2*
X569276D1*
X634199D2*
X739705D1*
X778423D2*
X897562D1*
X1302445D2*
X1701311D1*
X1996873D2*
X3066937D1*
X33071Y3077559D2*
X557626D1*
X622503D2*
X739705D1*
X778423D2*
X897562D1*
X1302445D2*
X1689615D1*
X1985177D2*
X3066937D1*
X33071Y3065879D2*
X551974D1*
X610831D2*
X739705D1*
X778423D2*
X897562D1*
X993697D2*
X1210554D1*
X1302445D2*
X1677942D1*
X1973504D2*
X3066937D1*
X33071Y3054199D2*
X551697D1*
X599157D2*
X739566D1*
X778538D2*
X897562D1*
X1003986D2*
X1210554D1*
X1302445D2*
X1666270D1*
X1961832D2*
X3066937D1*
X33071Y3042520D2*
X551697D1*
X598304D2*
X731516D1*
X786589D2*
X957724D1*
X1006177D2*
X1654575D1*
X1950136D2*
X3066937D1*
X33071Y3030840D2*
X551697D1*
X598304D2*
X729924D1*
X788181D2*
X963514D1*
X1006177D2*
X1642902D1*
X1938463D2*
X3066937D1*
X33071Y3019160D2*
X551697D1*
X598304D2*
X733476D1*
X784629D2*
X963514D1*
X1041333D2*
X1190046D1*
X1229248D2*
X1631230D1*
X1926791D2*
X3066937D1*
X33071Y3007480D2*
X551697D1*
X598304D2*
X746210D1*
X771894D2*
X963514D1*
X1237207D2*
X1619534D1*
X1915096D2*
X3066937D1*
X33071Y2995801D2*
X349134D1*
X450874D2*
X524130D1*
X625871D2*
X661734D1*
X676853D2*
X963514D1*
X1238776D2*
X1607861D1*
X1903423D2*
X3066937D1*
X33071Y2984121D2*
X349134D1*
X450874D2*
X524130D1*
X625871D2*
X644824D1*
X888551D2*
X958185D1*
X1235154D2*
X1596188D1*
X1891749D2*
X3066937D1*
X33071Y2972441D2*
X349134D1*
X625871D2*
X640349D1*
X893857D2*
X955625D1*
X1025992D2*
X1047945D1*
X1141819D2*
X1197035D1*
X1222259D2*
X1584492D1*
X1880054D2*
X3066937D1*
X33071Y2960761D2*
X349134D1*
X625871D2*
X641180D1*
X893672D2*
X958185D1*
X1011505D2*
X1047945D1*
X1141819D2*
X1572820D1*
X1868382D2*
X3066937D1*
X33071Y2949081D2*
X349134D1*
X626678D2*
X647892D1*
X690693D2*
X842451D1*
X1141819D2*
X1561147D1*
X1856709D2*
X3066937D1*
X33071Y2937402D2*
X349134D1*
X638352D2*
X838022D1*
X1141819D2*
X1549475D1*
X1845013D2*
X3066937D1*
X33071Y2925722D2*
X338152D1*
X450874D2*
X524130D1*
X650047D2*
X804458D1*
X1141819D2*
X1537780D1*
X1833341D2*
X3066937D1*
X33071Y2914042D2*
X326480D1*
X450874D2*
X524130D1*
X879577D2*
X1047945D1*
X1141819D2*
X1526106D1*
X1821668D2*
X3066937D1*
X33071Y2902362D2*
X314785D1*
X379709D2*
X608491D1*
X878631D2*
X1047945D1*
X1145833D2*
X1514434D1*
X1809996D2*
X3066937D1*
X33071Y2890682D2*
X303112D1*
X368013D2*
X620164D1*
X880524D2*
X1047945D1*
X1157529D2*
X1502739D1*
X1798299D2*
X3066937D1*
X33071Y2879003D2*
X291440D1*
X356340D2*
X626323D1*
X887605D2*
X910711D1*
X939694D2*
X1047945D1*
X1169201D2*
X1491066D1*
X1786627D2*
X3066937D1*
X33071Y2867323D2*
X280043D1*
X344668D2*
X626323D1*
X888067D2*
X899176D1*
X951228D2*
X1008244D1*
X1077181D2*
X1115974D1*
X1180874D2*
X1479392D1*
X1774954D2*
X3066937D1*
X33071Y2855643D2*
X275592D1*
X332971D2*
X626323D1*
X888067D2*
X896016D1*
X954388D2*
X997770D1*
X1087677D2*
X1127646D1*
X1192570D2*
X1467697D1*
X1763259D2*
X3066937D1*
X33071Y2843963D2*
X275522D1*
X322106D2*
X626323D1*
X952428D2*
X995003D1*
X1090423D2*
X1139341D1*
X1204243D2*
X1456025D1*
X1751587D2*
X3066937D1*
X33071Y2832283D2*
X275522D1*
X322106D2*
X626323D1*
X1104610D2*
X1151014D1*
X1215915D2*
X1444352D1*
X1739913D2*
X3066937D1*
X33071Y2820604D2*
X275522D1*
X322106D2*
X626323D1*
X1104610D2*
X1162686D1*
X1227588D2*
X1432656D1*
X1728218D2*
X3066937D1*
X33071Y2808924D2*
X275522D1*
X322106D2*
X626323D1*
X1104610D2*
X1174360D1*
X1239283D2*
X1420984D1*
X1716546D2*
X3066937D1*
X33071Y2797244D2*
X275522D1*
X322106D2*
X626323D1*
X672908D2*
X683349D1*
X1104610D2*
X1186055D1*
X1250955D2*
X1409311D1*
X1704873D2*
X3066937D1*
X33071Y2785564D2*
X275522D1*
X322106D2*
X626323D1*
X672908D2*
X695021D1*
X1104610D2*
X1197728D1*
X1285121D2*
X1397615D1*
X1693177D2*
X3066937D1*
X33071Y2773885D2*
X275522D1*
X322106D2*
X626323D1*
X672908D2*
X706717D1*
X1104610D2*
X1209400D1*
X1285121D2*
X1385942D1*
X1681504D2*
X3066937D1*
X33071Y2762205D2*
X275522D1*
X322106D2*
X626323D1*
X672908D2*
X714098D1*
X1104610D2*
X1214891D1*
X1285121D2*
X1374270D1*
X1669832D2*
X3066937D1*
X33071Y2750525D2*
X275522D1*
X392165D2*
X626323D1*
X672908D2*
X714098D1*
X1285121D2*
X1362597D1*
X1658136D2*
X3066937D1*
X33071Y2738845D2*
X90675D1*
X259337D2*
X275522D1*
X403837D2*
X626323D1*
X672908D2*
X714098D1*
X1285121D2*
X1350902D1*
X1646463D2*
X3066937D1*
X33071Y2727165D2*
X90675D1*
X259337D2*
X275522D1*
X415534D2*
X626323D1*
X672908D2*
X714098D1*
X1285121D2*
X1339230D1*
X1634791D2*
X3066937D1*
X33071Y2715486D2*
X90675D1*
X259337D2*
X275522D1*
X423516D2*
X626323D1*
X672908D2*
X714098D1*
X1235454D2*
X1327556D1*
X1623118D2*
X3066937D1*
X33071Y2703806D2*
X90675D1*
X259337D2*
X271577D1*
X326075D2*
X373932D1*
X428429D2*
X626323D1*
X672908D2*
X714098D1*
X1214577D2*
X1315861D1*
X1611423D2*
X3066937D1*
X33071Y2692126D2*
X90675D1*
X259337D2*
X271577D1*
X326075D2*
X373932D1*
X428429D2*
X489874D1*
X560126D2*
X626323D1*
X1221521D2*
X1304189D1*
X1599751D2*
X3066937D1*
X33071Y2680446D2*
X90675D1*
X326075D2*
X373932D1*
X428429D2*
X489874D1*
X560126D2*
X626323D1*
X1222490D2*
X1292516D1*
X1588077D2*
X3066937D1*
X33071Y2668766D2*
X90675D1*
X326075D2*
X373932D1*
X428429D2*
X489874D1*
X560126D2*
X626323D1*
X1241844D2*
X1280820D1*
X1576382D2*
X3066937D1*
X33071Y2657087D2*
X231992D1*
X326075D2*
X373932D1*
X428429D2*
X489874D1*
X560126D2*
X626323D1*
X1255570D2*
X1269147D1*
X1564709D2*
X3066937D1*
X33071Y2645407D2*
X234530D1*
X326075D2*
X373932D1*
X560126D2*
X626323D1*
X1553037D2*
X3066937D1*
X33071Y2633727D2*
X90675D1*
X326075D2*
X373932D1*
X560126D2*
X626323D1*
X1541341D2*
X3066937D1*
X33071Y2622047D2*
X90675D1*
X326075D2*
X373932D1*
X544348D2*
X626323D1*
X672908D2*
X714814D1*
X1529668D2*
X3066937D1*
X33071Y2610367D2*
X90675D1*
X326075D2*
X373932D1*
X428429D2*
X505652D1*
X544348D2*
X626323D1*
X672908D2*
X726509D1*
X1517996D2*
X3066937D1*
X33071Y2598688D2*
X90675D1*
X259337D2*
X271577D1*
X326075D2*
X373932D1*
X428429D2*
X505652D1*
X544348D2*
X626323D1*
X672908D2*
X738182D1*
X1506301D2*
X3066937D1*
X33071Y2587008D2*
X90675D1*
X259337D2*
X273562D1*
X324091D2*
X489874D1*
X560126D2*
X626323D1*
X672908D2*
X749854D1*
X1494627D2*
X3066937D1*
X33071Y2575328D2*
X90675D1*
X259337D2*
X273562D1*
X324091D2*
X489874D1*
X560126D2*
X626323D1*
X672908D2*
X762727D1*
X1497580D2*
X3066937D1*
X33071Y2563648D2*
X90675D1*
X259337D2*
X273562D1*
X324091D2*
X489874D1*
X560126D2*
X626323D1*
X672908D2*
X762727D1*
X1511421D2*
X3066937D1*
X33071Y2551969D2*
X273562D1*
X560126D2*
X626323D1*
X672908D2*
X762727D1*
X1515297D2*
X3066937D1*
X33071Y2540289D2*
X273562D1*
X560126D2*
X626323D1*
X672908D2*
X762727D1*
X1447913D2*
X1458470D1*
X1513982D2*
X1724449D1*
X1749971D2*
X2492165D1*
X2517688D2*
X3066937D1*
X33071Y2528609D2*
X273562D1*
X560126D2*
X626323D1*
X672908D2*
X707408D1*
X1436241D2*
X1466037D1*
X1506415D2*
X1711646D1*
X2530469D2*
X3066937D1*
X33071Y2516929D2*
X273562D1*
X560126D2*
X626323D1*
X1424546D2*
X1466867D1*
X1505585D2*
X1708070D1*
X2534043D2*
X3066937D1*
X33071Y2505249D2*
X273562D1*
X324091D2*
X465768D1*
X560126D2*
X626323D1*
X1412873D2*
X1466867D1*
X1505585D2*
X1709661D1*
X2532475D2*
X3066937D1*
X33071Y2493570D2*
X247955D1*
X341807D2*
X477440D1*
X560126D2*
X626323D1*
X735123D2*
X839268D1*
X1266042D2*
X1466867D1*
X1505585D2*
X1717667D1*
X1756731D2*
X2485383D1*
X2524448D2*
X3066937D1*
X33071Y2481890D2*
X247955D1*
X341807D2*
X489113D1*
X560126D2*
X626323D1*
X735123D2*
X845404D1*
X1269318D2*
X1466867D1*
X1505585D2*
X1563454D1*
X1597189D2*
X2579202D1*
X2612937D2*
X3066937D1*
X89854Y2470210D2*
X110168D1*
X176453D2*
X247955D1*
X341807D2*
X489874D1*
X560126D2*
X626323D1*
X735123D2*
X845404D1*
X1267496D2*
X1466867D1*
X1505585D2*
X1553604D1*
X2622787D2*
X3066937D1*
X89854Y2458530D2*
X110168D1*
X176453D2*
X247955D1*
X341807D2*
X489874D1*
X560126D2*
X626323D1*
X735123D2*
X845404D1*
X1310126D2*
X1466867D1*
X1505585D2*
X1551113D1*
X2625280D2*
X3066937D1*
X89854Y2446850D2*
X110168D1*
X176453D2*
X247955D1*
X341807D2*
X626323D1*
X672908D2*
X845404D1*
X1310126D2*
X1466867D1*
X1505585D2*
X1553719D1*
X2622672D2*
X3066937D1*
X89854Y2435171D2*
X110168D1*
X176453D2*
X244818D1*
X341807D2*
X626323D1*
X672908D2*
X845404D1*
X1310126D2*
X1466867D1*
X1505585D2*
X1563846D1*
X1596798D2*
X2579594D1*
X2612546D2*
X3066937D1*
X89854Y2423491D2*
X110168D1*
X176453D2*
X233146D1*
X341807D2*
X626323D1*
X672908D2*
X845404D1*
X1321453D2*
X1466867D1*
X1505585D2*
X1630076D1*
X1677007D2*
X2525638D1*
X2562949D2*
X3066937D1*
X89854Y2411811D2*
X110168D1*
X341807D2*
X626323D1*
X672908D2*
X861136D1*
X986476D2*
X1002938D1*
X1333148D2*
X1466867D1*
X1512713D2*
X1624840D1*
X2571576D2*
X3066937D1*
X33071Y2400131D2*
X135751D1*
X280260D2*
X626323D1*
X672908D2*
X924136D1*
X986476D2*
X1007782D1*
X1210125D2*
X1239874D1*
X1344822D2*
X1470789D1*
X1524386D2*
X1625070D1*
X2573467D2*
X3066937D1*
X33071Y2388451D2*
X78795D1*
X121203D2*
X135751D1*
X268564D2*
X626323D1*
X672908D2*
X924136D1*
X987676D2*
X1020862D1*
X1158175D2*
X1291593D1*
X1356424D2*
X1482299D1*
X1536081D2*
X1630907D1*
X2570238D2*
X3066937D1*
X33071Y2376772D2*
X67975D1*
X256892D2*
X626323D1*
X672908D2*
X924136D1*
X1077643D2*
X1303265D1*
X1361684D2*
X1493972D1*
X1547753D2*
X2530043D1*
X2558542D2*
X3066937D1*
X33071Y2365092D2*
X63777D1*
X239937D2*
X626323D1*
X672908D2*
X924136D1*
X1135130D2*
X1314962D1*
X1361869D2*
X1505668D1*
X1559427D2*
X3066937D1*
X33071Y2353412D2*
X63707D1*
X136290D2*
X626323D1*
X672908D2*
X924136D1*
X1135130D2*
X1315285D1*
X1361869D2*
X1517340D1*
X1571122D2*
X3066937D1*
X33071Y2341732D2*
X67768D1*
X132231D2*
X626323D1*
X672908D2*
X924136D1*
X1135130D2*
X1315285D1*
X1361869D2*
X1529013D1*
X1582795D2*
X3066937D1*
X33071Y2330052D2*
X78241D1*
X121757D2*
X626323D1*
X672908D2*
X924136D1*
X1135130D2*
X1315285D1*
X1361869D2*
X1540709D1*
X1594467D2*
X3066937D1*
X33071Y2318373D2*
X626323D1*
X672908D2*
X924136D1*
X1135130D2*
X1315285D1*
X1361869D2*
X1552382D1*
X1606140D2*
X3066937D1*
X33071Y2306693D2*
X626323D1*
X678513D2*
X918761D1*
X1135130D2*
X1315285D1*
X1361869D2*
X1564054D1*
X1617836D2*
X3066937D1*
X33071Y2295013D2*
X135751D1*
X213870D2*
X627869D1*
X690186D2*
X764873D1*
X835125D2*
X907066D1*
X964815D2*
X1315285D1*
X1361869D2*
X1575749D1*
X1629508D2*
X3066937D1*
X33071Y2283333D2*
X135751D1*
X345659D2*
X636958D1*
X701882D2*
X764873D1*
X954735D2*
X1315285D1*
X1361869D2*
X1587423D1*
X1641181D2*
X3066937D1*
X33071Y2271654D2*
X80871D1*
X119127D2*
X135751D1*
X357332D2*
X648654D1*
X713554D2*
X764873D1*
X943062D2*
X1315285D1*
X1361869D2*
X1599094D1*
X1652877D2*
X3066937D1*
X33071Y2259974D2*
X68783D1*
X369004D2*
X660327D1*
X725227D2*
X764873D1*
X931966D2*
X1315285D1*
X1361869D2*
X1610768D1*
X1664550D2*
X3066937D1*
X33071Y2248294D2*
X64031D1*
X380701D2*
X671999D1*
X736923D2*
X764873D1*
X931966D2*
X1123286D1*
X1140504D2*
X1300451D1*
X1361869D2*
X1622463D1*
X1676222D2*
X3066937D1*
X33071Y2236614D2*
X63524D1*
X217791D2*
X321890D1*
X392373D2*
X451096D1*
X548892D2*
X683694D1*
X748594D2*
X764873D1*
X931966D2*
X1107253D1*
X1361869D2*
X1634136D1*
X1687917D2*
X3066937D1*
X33071Y2224934D2*
X67052D1*
X217791D2*
X333585D1*
X548892D2*
X695367D1*
X760268D2*
X822358D1*
X931966D2*
X1102916D1*
X1361869D2*
X1645808D1*
X1699591D2*
X3066937D1*
X33071Y2213255D2*
X76510D1*
X123487D2*
X131806D1*
X217791D2*
X345259D1*
X548892D2*
X707039D1*
X771963D2*
X1103840D1*
X1361869D2*
X1657504D1*
X1711262D2*
X3066937D1*
X33071Y2201575D2*
X131806D1*
X217791D2*
X356930D1*
X548892D2*
X718735D1*
X783636D2*
X1110760D1*
X1153030D2*
X1287925D1*
X1361869D2*
X1669177D1*
X1722958D2*
X3066937D1*
X89854Y2189895D2*
X110168D1*
X217791D2*
X368626D1*
X548892D2*
X730408D1*
X795308D2*
X1315285D1*
X1361869D2*
X1680849D1*
X1734631D2*
X3066937D1*
X89854Y2178215D2*
X110168D1*
X176453D2*
X451096D1*
X548892D2*
X742080D1*
X807004D2*
X1315285D1*
X1361869D2*
X1692545D1*
X1746303D2*
X3066937D1*
X89854Y2166535D2*
X110168D1*
X176453D2*
X451096D1*
X548892D2*
X753777D1*
X818677D2*
X1315285D1*
X1361869D2*
X1704218D1*
X1771864D2*
X3066937D1*
X89854Y2154856D2*
X110168D1*
X176453D2*
X451096D1*
X548892D2*
X765449D1*
X830349D2*
X1134059D1*
X1265097D2*
X1315285D1*
X1361869D2*
X1715890D1*
X1779638D2*
X3066937D1*
X89854Y2143176D2*
X110168D1*
X176453D2*
X777122D1*
X842022D2*
X1128799D1*
X1270379D2*
X1315285D1*
X1361869D2*
X1722857D1*
X1781068D2*
X3066937D1*
X89854Y2131496D2*
X110168D1*
X176453D2*
X788818D1*
X853718D2*
X893824D1*
X936879D2*
X1128984D1*
X1270172D2*
X1287140D1*
X1361869D2*
X1726594D1*
X1777331D2*
X3066937D1*
X89854Y2119816D2*
X110168D1*
X176453D2*
X800490D1*
X865391D2*
X887203D1*
X1361869D2*
X1385896D1*
X1419240D2*
X1739950D1*
X1763974D2*
X2451449D1*
X2484793D2*
X3066937D1*
X33071Y2108136D2*
X812163D1*
X877063D2*
X886442D1*
X1361869D2*
X1375908D1*
X2494781D2*
X3066937D1*
X33071Y2096457D2*
X823835D1*
X1361869D2*
X1373348D1*
X2497319D2*
X3066937D1*
X33071Y2084777D2*
X835530D1*
X2533928D2*
X3066937D1*
X33071Y2073097D2*
X847203D1*
X2545970D2*
X3066937D1*
X33071Y2061417D2*
X858875D1*
X2557643D2*
X3066937D1*
X33071Y2049738D2*
X862543D1*
X2569339D2*
X3066937D1*
X33071Y2038058D2*
X862543D1*
X909129D2*
X1126699D1*
X1997311D2*
X2126715D1*
X2283451D2*
X2516110D1*
X2581010D2*
X3066937D1*
X33071Y2026378D2*
X862543D1*
X909129D2*
X1126699D1*
X1995143D2*
X2126715D1*
X2287811D2*
X2527782D1*
X2592684D2*
X3066937D1*
X33071Y2014698D2*
X862543D1*
X909129D2*
X1126699D1*
X1259514D2*
X1594781D1*
X1780329D2*
X1950289D1*
X1985938D2*
X2126715D1*
X2286912D2*
X2539455D1*
X2604379D2*
X3066937D1*
X33071Y2003018D2*
X862543D1*
X909129D2*
X1126699D1*
X1241774D2*
X1626707D1*
X1780768D2*
X2126715D1*
X2280060D2*
X2551151D1*
X2616051D2*
X3066937D1*
X33071Y1991339D2*
X862543D1*
X909129D2*
X1126699D1*
X1302445D2*
X1626707D1*
X1802429D2*
X2126715D1*
X2302437D2*
X2562824D1*
X2627724D2*
X2720381D1*
X2802445D2*
X3066937D1*
X33071Y1979659D2*
X862543D1*
X909129D2*
X1126699D1*
X1302445D2*
X1626707D1*
X1802429D2*
X2126715D1*
X2302437D2*
X2574496D1*
X2639420D2*
X2720381D1*
X2802445D2*
X3066937D1*
X33071Y1967979D2*
X862543D1*
X909129D2*
X1114888D1*
X1302445D2*
X1614874D1*
X1802429D2*
X2114882D1*
X2302437D2*
X2586192D1*
X2685118D2*
X2720381D1*
X2802445D2*
X3066937D1*
X33071Y1956299D2*
X862543D1*
X909129D2*
X1114888D1*
X1302445D2*
X1614874D1*
X1802429D2*
X2114882D1*
X2302437D2*
X2597865D1*
X2685118D2*
X2720381D1*
X2802445D2*
X3066937D1*
X33071Y1944619D2*
X862543D1*
X909129D2*
X1114888D1*
X1302445D2*
X1614874D1*
X1802429D2*
X2114882D1*
X2302437D2*
X2609537D1*
X2685118D2*
X2720381D1*
X2802445D2*
X3066937D1*
X33071Y1932940D2*
X862543D1*
X909129D2*
X1114888D1*
X1302445D2*
X1614874D1*
X1802429D2*
X2114882D1*
X2302437D2*
X2614888D1*
X2685118D2*
X2720381D1*
X2802445D2*
X3066937D1*
X33071Y1921260D2*
X862543D1*
X909129D2*
X1114888D1*
X1302445D2*
X1614874D1*
X1802429D2*
X2114882D1*
X2302437D2*
X2614888D1*
X2685118D2*
X2720381D1*
X2802445D2*
X3066937D1*
X33071Y1909580D2*
X862543D1*
X909129D2*
X1114888D1*
X1284705D2*
X1614874D1*
X1784713D2*
X2114882D1*
X2284720D2*
X2614888D1*
X2685118D2*
X2738121D1*
X2784705D2*
X3066937D1*
X33071Y1897900D2*
X862543D1*
X909129D2*
X1114888D1*
X1284705D2*
X1614874D1*
X1784713D2*
X2114882D1*
X2284720D2*
X2614888D1*
X2685118D2*
X2738121D1*
X2784705D2*
X3066937D1*
X33071Y1886220D2*
X862543D1*
X909129D2*
X1114888D1*
X1284705D2*
X1614874D1*
X1784713D2*
X2114882D1*
X2284720D2*
X2446974D1*
X2489244D2*
X2614888D1*
X2784705D2*
X3066937D1*
X33071Y1874541D2*
X862543D1*
X909129D2*
X1114888D1*
X1284705D2*
X1614874D1*
X1784713D2*
X2114882D1*
X2284720D2*
X2440076D1*
X2784705D2*
X3066937D1*
X33071Y1862861D2*
X862543D1*
X909129D2*
X1114888D1*
X1284705D2*
X1614874D1*
X1784713D2*
X2114882D1*
X2284720D2*
X2439154D1*
X2784705D2*
X3066937D1*
X33071Y1851181D2*
X862543D1*
X909129D2*
X1114888D1*
X1284705D2*
X1614874D1*
X1784713D2*
X2114882D1*
X2284720D2*
X2443491D1*
X2784705D2*
X3066937D1*
X33071Y1839501D2*
X862543D1*
X909129D2*
X1114888D1*
X1185118D2*
X1238121D1*
X1284705D2*
X1614874D1*
X1685126D2*
X1738129D1*
X1784713D2*
X2114882D1*
X2185110D2*
X2238136D1*
X2284720D2*
X2459524D1*
X2476696D2*
X2614888D1*
X2685118D2*
X2738121D1*
X2784705D2*
X3066937D1*
X33071Y1827822D2*
X862543D1*
X909129D2*
X1238121D1*
X1284705D2*
X1738129D1*
X1784713D2*
X2238136D1*
X2284720D2*
X2738121D1*
X2784705D2*
X3066937D1*
X33071Y1816142D2*
X862543D1*
X909129D2*
X1238121D1*
X1284705D2*
X1738129D1*
X1784713D2*
X2238136D1*
X2284720D2*
X2738121D1*
X2784705D2*
X3066937D1*
X33071Y1804462D2*
X862543D1*
X909129D2*
X1238121D1*
X1284705D2*
X1738129D1*
X1784713D2*
X2238136D1*
X2284720D2*
X2738121D1*
X2784705D2*
X3066937D1*
X33071Y1792782D2*
X862543D1*
X909129D2*
X1238121D1*
X1284705D2*
X1738129D1*
X1784713D2*
X2238136D1*
X2284720D2*
X2738121D1*
X2784705D2*
X3066937D1*
X33071Y1781102D2*
X862543D1*
X909129D2*
X1238121D1*
X1284705D2*
X1738129D1*
X1784713D2*
X2238136D1*
X2284720D2*
X2738121D1*
X2784705D2*
X3066937D1*
X33071Y1769423D2*
X862543D1*
X909129D2*
X1238121D1*
X1284705D2*
X1738129D1*
X1784713D2*
X2238136D1*
X2284720D2*
X2738121D1*
X2784705D2*
X3066937D1*
X33071Y1757743D2*
X862543D1*
X909129D2*
X1238121D1*
X1284705D2*
X1738129D1*
X1784713D2*
X2238136D1*
X2284720D2*
X2738121D1*
X2784705D2*
X3066937D1*
X33071Y1746063D2*
X862543D1*
X909129D2*
X1238121D1*
X1284705D2*
X1738129D1*
X1784713D2*
X2238136D1*
X2284720D2*
X2738121D1*
X2784705D2*
X3066937D1*
X33071Y1734383D2*
X862543D1*
X909129D2*
X1238121D1*
X1284705D2*
X1738129D1*
X1784713D2*
X2238136D1*
X2284720D2*
X2738121D1*
X2784705D2*
X3066937D1*
X33071Y1722703D2*
X862543D1*
X909129D2*
X1238121D1*
X1284705D2*
X1738129D1*
X1784713D2*
X2238136D1*
X2284720D2*
X2738121D1*
X2784705D2*
X3066937D1*
X33071Y1711024D2*
X862543D1*
X909129D2*
X1238121D1*
X1284705D2*
X1738129D1*
X1784713D2*
X2238136D1*
X2284720D2*
X2738121D1*
X2784705D2*
X3066937D1*
X33071Y1699344D2*
X862543D1*
X909129D2*
X1238121D1*
X1284705D2*
X1738129D1*
X1784713D2*
X2238136D1*
X2284720D2*
X2738121D1*
X2784705D2*
X3066937D1*
X33071Y1687664D2*
X514188D1*
X585802D2*
X862543D1*
X909129D2*
X1220404D1*
X1302445D2*
X1720388D1*
X1802453D2*
X2220396D1*
X2302437D2*
X2720404D1*
X2802445D2*
X3066937D1*
X33071Y1675984D2*
X492965D1*
X607025D2*
X862543D1*
X909129D2*
X1220404D1*
X1302445D2*
X1720388D1*
X1802453D2*
X2220396D1*
X2302437D2*
X2720404D1*
X2802445D2*
X3066937D1*
X33071Y1664304D2*
X479770D1*
X620219D2*
X862543D1*
X909129D2*
X1220404D1*
X1302445D2*
X1720388D1*
X1802453D2*
X2220396D1*
X2302437D2*
X2720404D1*
X2802445D2*
X3066937D1*
X33071Y1652625D2*
X470450D1*
X629562D2*
X862543D1*
X909129D2*
X1220404D1*
X1302445D2*
X1720388D1*
X1802453D2*
X2220396D1*
X2302437D2*
X2720404D1*
X2802445D2*
X3066937D1*
X33071Y1640945D2*
X463714D1*
X636298D2*
X862543D1*
X909129D2*
X1220404D1*
X1302445D2*
X1720388D1*
X1802453D2*
X2220396D1*
X2302437D2*
X2720404D1*
X2802445D2*
X3066937D1*
X33071Y1629265D2*
X458962D1*
X641028D2*
X862543D1*
X909129D2*
X1220404D1*
X1302445D2*
X1720388D1*
X1802453D2*
X2220396D1*
X2302437D2*
X2720404D1*
X2802445D2*
X3066937D1*
X33071Y1617585D2*
X455917D1*
X644072D2*
X862543D1*
X909129D2*
X1220404D1*
X1302445D2*
X1720388D1*
X1802453D2*
X2220396D1*
X2302437D2*
X2720404D1*
X2802445D2*
X3066937D1*
X33071Y1605906D2*
X454417D1*
X645594D2*
X862543D1*
X909129D2*
X1220404D1*
X1302445D2*
X1720388D1*
X1802453D2*
X2220396D1*
X2302437D2*
X2720404D1*
X2802445D2*
X3066937D1*
X33071Y1594226D2*
X454348D1*
X645640D2*
X862543D1*
X2531437D2*
X3066937D1*
X33071Y1582546D2*
X455756D1*
X644257D2*
X862543D1*
X2544402D2*
X3066937D1*
X33071Y1570866D2*
X458663D1*
X641327D2*
X862543D1*
X2556073D2*
X3066937D1*
X33071Y1559186D2*
X463276D1*
X636736D2*
X862543D1*
X2567747D2*
X3066937D1*
X33071Y1547507D2*
X469827D1*
X630161D2*
X862543D1*
X1173285D2*
X1626707D1*
X1822314D2*
X2126715D1*
X2173299D2*
X2514518D1*
X2579442D2*
X3066937D1*
X33071Y1535827D2*
X478916D1*
X621073D2*
X862543D1*
X1173285D2*
X1626707D1*
X1821276D2*
X2126715D1*
X2173299D2*
X2526214D1*
X2591114D2*
X3066937D1*
X33071Y1524147D2*
X491743D1*
X608270D2*
X862543D1*
X1173285D2*
X1626707D1*
X1814171D2*
X2126715D1*
X2173299D2*
X2537887D1*
X2602787D2*
X3066937D1*
X33071Y1512467D2*
X511950D1*
X588062D2*
X862543D1*
X1173285D2*
X1626707D1*
X1788566D2*
X2126715D1*
X2173299D2*
X2549559D1*
X2614483D2*
X3066937D1*
X33071Y1500787D2*
X862543D1*
X1173285D2*
X1220381D1*
X1302445D2*
X1626707D1*
X1802429D2*
X2126715D1*
X2173299D2*
X2220396D1*
X2302437D2*
X2561255D1*
X2626156D2*
X2720381D1*
X2802445D2*
X3066937D1*
X33071Y1489108D2*
X862543D1*
X1173285D2*
X1220381D1*
X1302445D2*
X1626707D1*
X1802429D2*
X2126715D1*
X2173299D2*
X2220396D1*
X2302437D2*
X2572928D1*
X2637828D2*
X2720381D1*
X2802445D2*
X3066937D1*
X33071Y1477428D2*
X862543D1*
X1173285D2*
X1220381D1*
X1302445D2*
X1626707D1*
X1802429D2*
X2126715D1*
X2173299D2*
X2220396D1*
X2302437D2*
X2584600D1*
X2649524D2*
X2720381D1*
X2802445D2*
X3066937D1*
X33071Y1465748D2*
X862543D1*
X1185118D2*
X1220381D1*
X1302445D2*
X1614874D1*
X1802429D2*
X2114882D1*
X2185110D2*
X2220396D1*
X2302437D2*
X2596297D1*
X2685118D2*
X2720381D1*
X2802445D2*
X3066937D1*
X33071Y1454068D2*
X862543D1*
X1185118D2*
X1220381D1*
X1302445D2*
X1614874D1*
X1802429D2*
X2114882D1*
X2185110D2*
X2220396D1*
X2302437D2*
X2607969D1*
X2685118D2*
X2720381D1*
X2802445D2*
X3066937D1*
X33071Y1442388D2*
X862543D1*
X1185118D2*
X1220381D1*
X1302445D2*
X1614874D1*
X1802429D2*
X2114882D1*
X2185110D2*
X2220396D1*
X2302437D2*
X2614888D1*
X2685118D2*
X2720381D1*
X2802445D2*
X3066937D1*
X33071Y1430709D2*
X862543D1*
X1185118D2*
X1220381D1*
X1302445D2*
X1614874D1*
X1802429D2*
X2114882D1*
X2185110D2*
X2220396D1*
X2302437D2*
X2614888D1*
X2685118D2*
X2720381D1*
X2802445D2*
X3066937D1*
X33071Y1419029D2*
X862543D1*
X1185118D2*
X1220381D1*
X1302445D2*
X1614874D1*
X1802429D2*
X2114882D1*
X2185110D2*
X2220396D1*
X2302437D2*
X2614888D1*
X2685118D2*
X2720381D1*
X2802445D2*
X3066937D1*
X33071Y1407349D2*
X862543D1*
X1185118D2*
X1238121D1*
X1284705D2*
X1614874D1*
X1784713D2*
X2114882D1*
X2185110D2*
X2238113D1*
X2284720D2*
X2614888D1*
X2685118D2*
X2738121D1*
X2784705D2*
X3066937D1*
X33071Y1395669D2*
X862543D1*
X1185118D2*
X1238121D1*
X1284705D2*
X1614874D1*
X1784713D2*
X2114882D1*
X2185110D2*
X2238113D1*
X2284720D2*
X2498625D1*
X2511228D2*
X2614888D1*
X2685118D2*
X2738121D1*
X2784705D2*
X3066937D1*
X33071Y1383990D2*
X862543D1*
X1284705D2*
X1614874D1*
X1784713D2*
X1945005D1*
X2284720D2*
X2480631D1*
X2784705D2*
X3066937D1*
X33071Y1372310D2*
X862543D1*
X1284705D2*
X1614874D1*
X1784713D2*
X1939492D1*
X2284720D2*
X2476017D1*
X2784705D2*
X3066937D1*
X33071Y1360630D2*
X862543D1*
X1284705D2*
X1614874D1*
X1784713D2*
X1939538D1*
X2284720D2*
X2476732D1*
X2784705D2*
X3066937D1*
X33071Y1348950D2*
X862543D1*
X1284705D2*
X1614874D1*
X1784713D2*
X1945098D1*
X2284720D2*
X2483283D1*
X2784705D2*
X3066937D1*
X33071Y1337270D2*
X862543D1*
X1284705D2*
X1614874D1*
X1685126D2*
X1738129D1*
X1784713D2*
X2114882D1*
X2185110D2*
X2238136D1*
X2284720D2*
X2614888D1*
X2685118D2*
X2738121D1*
X2784705D2*
X3066937D1*
X33071Y1325591D2*
X862543D1*
X1284705D2*
X1738129D1*
X1784713D2*
X2238136D1*
X2284720D2*
X2738121D1*
X2784705D2*
X3066937D1*
X33071Y1313911D2*
X862543D1*
X1284705D2*
X1738129D1*
X1784713D2*
X2238136D1*
X2284720D2*
X2738121D1*
X2784705D2*
X3066937D1*
X33071Y1302231D2*
X862543D1*
X1284705D2*
X1738129D1*
X1784713D2*
X2238136D1*
X2284720D2*
X2738121D1*
X2784705D2*
X3066937D1*
X33071Y1290551D2*
X862543D1*
X1284705D2*
X1738129D1*
X1784713D2*
X2238136D1*
X2284720D2*
X2738121D1*
X2784705D2*
X3066937D1*
X33071Y1278871D2*
X862543D1*
X1284705D2*
X1738129D1*
X1784713D2*
X2238136D1*
X2284720D2*
X2738121D1*
X2784705D2*
X3066937D1*
X33071Y1267192D2*
X862543D1*
X1284705D2*
X1738129D1*
X1784713D2*
X2238136D1*
X2284720D2*
X2738121D1*
X2784705D2*
X3066937D1*
X33071Y1255512D2*
X862543D1*
X1284705D2*
X1738129D1*
X1784713D2*
X2238136D1*
X2284720D2*
X2738121D1*
X2784705D2*
X3066937D1*
X33071Y1243832D2*
X862543D1*
X1284705D2*
X1738129D1*
X1784713D2*
X2238136D1*
X2284720D2*
X2738121D1*
X2784705D2*
X3066937D1*
X33071Y1232152D2*
X862543D1*
X1284705D2*
X1738129D1*
X1784713D2*
X2238136D1*
X2284720D2*
X2738121D1*
X2784705D2*
X3066937D1*
X33071Y1220472D2*
X862543D1*
X1284705D2*
X1738129D1*
X1784713D2*
X2238136D1*
X2284720D2*
X2738121D1*
X2784705D2*
X3066937D1*
X33071Y1208793D2*
X862543D1*
X1284705D2*
X1738129D1*
X1784713D2*
X2238136D1*
X2284720D2*
X2738121D1*
X2784705D2*
X3066937D1*
X33071Y1197113D2*
X862543D1*
X1284705D2*
X1738129D1*
X1784713D2*
X2238136D1*
X2284720D2*
X2738121D1*
X2784705D2*
X3066937D1*
X33071Y1185433D2*
X862543D1*
X1302445D2*
X1720388D1*
X1802453D2*
X2220396D1*
X2302437D2*
X2720404D1*
X2802445D2*
X3066937D1*
X33071Y1173753D2*
X862543D1*
X1302445D2*
X1720388D1*
X1802453D2*
X2220396D1*
X2302437D2*
X2720404D1*
X2802445D2*
X3066937D1*
X33071Y1162073D2*
X862543D1*
X1302445D2*
X1720388D1*
X1802453D2*
X2220396D1*
X2302437D2*
X2720404D1*
X2802445D2*
X3066937D1*
X33071Y1150394D2*
X862543D1*
X1302445D2*
X1720388D1*
X1802453D2*
X2220396D1*
X2302437D2*
X2720404D1*
X2802445D2*
X3066937D1*
X33071Y1138714D2*
X862543D1*
X1302445D2*
X1720388D1*
X1802453D2*
X2220396D1*
X2302437D2*
X2720404D1*
X2802445D2*
X3066937D1*
X33071Y1127034D2*
X862543D1*
X1302445D2*
X1720388D1*
X1802453D2*
X2220396D1*
X2302437D2*
X2720404D1*
X2802445D2*
X3066937D1*
X33071Y1115354D2*
X862543D1*
X1302445D2*
X1720388D1*
X1802453D2*
X2220396D1*
X2302437D2*
X2720404D1*
X2802445D2*
X3066937D1*
X33071Y1103675D2*
X862543D1*
X2508114D2*
X2720404D1*
X2802445D2*
X3066937D1*
X33071Y1091995D2*
X862543D1*
X2523133D2*
X3066937D1*
X33071Y1080315D2*
X862543D1*
X2534804D2*
X3066937D1*
X33071Y1068635D2*
X862543D1*
X2546500D2*
X3066937D1*
X33071Y1056955D2*
X862543D1*
X909129D2*
X1126699D1*
X1173285D2*
X1626707D1*
X1673293D2*
X2126715D1*
X2173299D2*
X2493273D1*
X2558173D2*
X3066937D1*
X33071Y1045276D2*
X862543D1*
X909129D2*
X1126699D1*
X1173285D2*
X1186724D1*
X1224681D2*
X1536142D1*
X1574098D2*
X1626707D1*
X1673293D2*
X2126715D1*
X2173299D2*
X2504945D1*
X2569845D2*
X3066937D1*
X33071Y1033596D2*
X862543D1*
X909129D2*
X1126699D1*
X1582495D2*
X1626707D1*
X1673293D2*
X2126715D1*
X2173299D2*
X2516618D1*
X2581542D2*
X3066937D1*
X33071Y1021916D2*
X862543D1*
X909129D2*
X1126699D1*
X1584272D2*
X1626707D1*
X1673293D2*
X2126715D1*
X2173299D2*
X2528314D1*
X2593214D2*
X3066937D1*
X33071Y1010236D2*
X862543D1*
X909129D2*
X1126699D1*
X1173285D2*
X1179909D1*
X1580927D2*
X1626707D1*
X1673293D2*
X2126715D1*
X2173299D2*
X2539986D1*
X2604887D2*
X3066937D1*
X33071Y998556D2*
X862543D1*
X909129D2*
X1126699D1*
X1173285D2*
X1191984D1*
X1302445D2*
X1541378D1*
X1568839D2*
X1626707D1*
X1673293D2*
X1720388D1*
X1802429D2*
X2126715D1*
X2173299D2*
X2220396D1*
X2302437D2*
X2551659D1*
X2616583D2*
X2720381D1*
X2802445D2*
X3066937D1*
X33071Y986877D2*
X862543D1*
X909129D2*
X1126699D1*
X1173285D2*
X1220381D1*
X1302445D2*
X1626707D1*
X1673293D2*
X1720388D1*
X1802429D2*
X2126715D1*
X2173299D2*
X2220396D1*
X2302437D2*
X2563354D1*
X2628255D2*
X2720381D1*
X2802445D2*
X3066937D1*
X33071Y975197D2*
X862543D1*
X909129D2*
X1126699D1*
X1173285D2*
X1220381D1*
X1302445D2*
X1626707D1*
X1673293D2*
X1720388D1*
X1802429D2*
X2126715D1*
X2173299D2*
X2220396D1*
X2302437D2*
X2575026D1*
X2639928D2*
X2720381D1*
X2802445D2*
X3066937D1*
X33071Y963517D2*
X862543D1*
X909129D2*
X1114888D1*
X1185118D2*
X1220381D1*
X1302445D2*
X1614874D1*
X1685126D2*
X1720388D1*
X1802429D2*
X2114882D1*
X2185110D2*
X2220396D1*
X2302437D2*
X2586699D1*
X2685118D2*
X2720381D1*
X2802445D2*
X3066937D1*
X33071Y951837D2*
X862543D1*
X909129D2*
X1114888D1*
X1185118D2*
X1220381D1*
X1319677D2*
X1614874D1*
X1685126D2*
X1720388D1*
X1802429D2*
X2114882D1*
X2185110D2*
X2220396D1*
X2302437D2*
X2598395D1*
X2685118D2*
X2720381D1*
X2802445D2*
X3066937D1*
X33071Y940157D2*
X862543D1*
X909129D2*
X1114888D1*
X1185118D2*
X1220381D1*
X1333794D2*
X1614874D1*
X1685126D2*
X1720388D1*
X1802429D2*
X2114882D1*
X2185110D2*
X2220396D1*
X2302437D2*
X2610068D1*
X2685118D2*
X2720381D1*
X2802445D2*
X3066937D1*
X33071Y928478D2*
X862543D1*
X909129D2*
X1042131D1*
X1060226D2*
X1114888D1*
X1185118D2*
X1220381D1*
X1337717D2*
X1614874D1*
X1685126D2*
X1720388D1*
X1802429D2*
X2114882D1*
X2185110D2*
X2220396D1*
X2302437D2*
X2614888D1*
X2685118D2*
X2720381D1*
X2802445D2*
X3066937D1*
X33071Y916798D2*
X862543D1*
X909129D2*
X1026469D1*
X1336448D2*
X1444491D1*
X1802429D2*
X1952365D1*
X2185110D2*
X2220396D1*
X2302437D2*
X2614888D1*
X2685118D2*
X2720381D1*
X2802445D2*
X3066937D1*
X33071Y905118D2*
X862543D1*
X909129D2*
X1022201D1*
X1328996D2*
X1439369D1*
X1784713D2*
X1947243D1*
X2185110D2*
X2238113D1*
X2284720D2*
X2614888D1*
X2685118D2*
X2738121D1*
X2784705D2*
X3066937D1*
X33071Y893438D2*
X862543D1*
X909129D2*
X1023169D1*
X1328004D2*
X1439669D1*
X1784713D2*
X1947543D1*
X2185110D2*
X2238136D1*
X2284720D2*
X2587022D1*
X2605117D2*
X2614888D1*
X2685118D2*
X2738121D1*
X2784705D2*
X3066937D1*
X33071Y881759D2*
X862543D1*
X909129D2*
X1030182D1*
X1333379D2*
X1445644D1*
X1784713D2*
X1953518D1*
X1998465D2*
X2107891D1*
X2284720D2*
X2571360D1*
X2784705D2*
X3066937D1*
X33071Y870079D2*
X862543D1*
X909129D2*
X1061555D1*
X1337647D2*
X1464190D1*
X1784713D2*
X2114882D1*
X2284720D2*
X2567068D1*
X2784705D2*
X3066937D1*
X33071Y858399D2*
X862543D1*
X909129D2*
X1062547D1*
X1336655D2*
X1465160D1*
X1784713D2*
X2114882D1*
X2284720D2*
X2568060D1*
X2784705D2*
X3066937D1*
X33071Y846719D2*
X862543D1*
X909129D2*
X1069537D1*
X1329665D2*
X1472172D1*
X1514167D2*
X1614874D1*
X1784713D2*
X2114882D1*
X2284720D2*
X2575050D1*
X2784705D2*
X3066937D1*
X33071Y835039D2*
X862543D1*
X909129D2*
X1114888D1*
X1185118D2*
X1238121D1*
X1284705D2*
X1614874D1*
X1685126D2*
X1738129D1*
X1784713D2*
X2114882D1*
X2185110D2*
X2238136D1*
X2284720D2*
X2614888D1*
X2685118D2*
X2738121D1*
X2784705D2*
X3066937D1*
X33071Y823360D2*
X862543D1*
X909129D2*
X1238121D1*
X1284705D2*
X1738129D1*
X1784713D2*
X2238136D1*
X2284720D2*
X2738121D1*
X2784705D2*
X3066937D1*
X33071Y811680D2*
X862543D1*
X909129D2*
X1238121D1*
X1284705D2*
X1738129D1*
X1784713D2*
X2238136D1*
X2284720D2*
X2738121D1*
X2784705D2*
X3066937D1*
X33071Y800000D2*
X862543D1*
X909129D2*
X1238121D1*
X1284705D2*
X1738129D1*
X1784713D2*
X2238136D1*
X2284720D2*
X2738121D1*
X2784705D2*
X3066937D1*
X33071Y788320D2*
X862543D1*
X909129D2*
X1238121D1*
X1284705D2*
X1738129D1*
X1784713D2*
X2238136D1*
X2284720D2*
X2738121D1*
X2784705D2*
X3066937D1*
X33071Y776640D2*
X862543D1*
X909129D2*
X1238121D1*
X1284705D2*
X1738129D1*
X1784713D2*
X2238136D1*
X2284720D2*
X2738121D1*
X2784705D2*
X3066937D1*
X33071Y764961D2*
X862543D1*
X909129D2*
X1238121D1*
X1284705D2*
X1738129D1*
X1784713D2*
X2238136D1*
X2284720D2*
X2738121D1*
X2784705D2*
X3066937D1*
X33071Y753281D2*
X862543D1*
X909129D2*
X1238121D1*
X1284705D2*
X1738129D1*
X1784713D2*
X2238136D1*
X2284720D2*
X2738121D1*
X2784705D2*
X3066937D1*
X33071Y741601D2*
X862543D1*
X909129D2*
X1238121D1*
X1284705D2*
X1738129D1*
X1784713D2*
X2238136D1*
X2284720D2*
X2738121D1*
X2784705D2*
X3066937D1*
X33071Y729921D2*
X862543D1*
X909129D2*
X1238121D1*
X1284705D2*
X1738129D1*
X1784713D2*
X2238136D1*
X2284720D2*
X2738121D1*
X2784705D2*
X3066937D1*
X33071Y718241D2*
X862543D1*
X909129D2*
X1238121D1*
X1284705D2*
X1738129D1*
X1784713D2*
X2238136D1*
X2284720D2*
X2738121D1*
X2784705D2*
X3066937D1*
X33071Y706562D2*
X862543D1*
X909129D2*
X1238121D1*
X1284705D2*
X1738129D1*
X1784713D2*
X2238136D1*
X2284720D2*
X2738121D1*
X2784705D2*
X3066937D1*
X33071Y694882D2*
X862543D1*
X909129D2*
X1238121D1*
X1284705D2*
X1738129D1*
X1784713D2*
X2238136D1*
X2284720D2*
X2738121D1*
X2784705D2*
X3066937D1*
X33071Y683202D2*
X862543D1*
X909129D2*
X1220404D1*
X1302445D2*
X1720388D1*
X1802453D2*
X2220396D1*
X2302437D2*
X2720404D1*
X2802445D2*
X3066937D1*
X33071Y671522D2*
X862543D1*
X916049D2*
X1220404D1*
X1302445D2*
X1720388D1*
X1802453D2*
X2220396D1*
X2302437D2*
X2720404D1*
X2802445D2*
X3066937D1*
X33071Y659843D2*
X864643D1*
X927722D2*
X1220404D1*
X1302445D2*
X1720388D1*
X1802453D2*
X2220396D1*
X2302437D2*
X2720404D1*
X2802445D2*
X3066937D1*
X33071Y648163D2*
X874493D1*
X939417D2*
X1220404D1*
X1302445D2*
X1720388D1*
X1802453D2*
X2220396D1*
X2302437D2*
X2720404D1*
X2802445D2*
X3066937D1*
X33071Y636483D2*
X886189D1*
X951089D2*
X1220404D1*
X1302445D2*
X1720388D1*
X1802453D2*
X2220396D1*
X2302437D2*
X2720404D1*
X2802445D2*
X3066937D1*
X33071Y624803D2*
X897861D1*
X962762D2*
X1220404D1*
X1302445D2*
X1506682D1*
X1536612D2*
X1720388D1*
X1802453D2*
X2049575D1*
X2079504D2*
X2220396D1*
X2302437D2*
X2720404D1*
X2802445D2*
X3066937D1*
X33071Y613123D2*
X909534D1*
X974458D2*
X1220404D1*
X1302445D2*
X1495495D1*
X2090692D2*
X2220396D1*
X2302437D2*
X2720404D1*
X2802445D2*
X3066937D1*
X33071Y601444D2*
X921230D1*
X986130D2*
X1220404D1*
X1302445D2*
X1492450D1*
X2093738D2*
X2220396D1*
X2302437D2*
X2720404D1*
X2802445D2*
X3066937D1*
X33071Y589764D2*
X932903D1*
X2512659D2*
X3066937D1*
X33071Y578084D2*
X944575D1*
X2525231D2*
X3066937D1*
X33071Y566404D2*
X516264D1*
X583726D2*
X956270D1*
X2536904D2*
X3066937D1*
X33071Y554724D2*
X494072D1*
X605940D2*
X967966D1*
X2548600D2*
X3066937D1*
X33071Y543045D2*
X480531D1*
X619482D2*
X1126699D1*
X1173285D2*
X1626707D1*
X1673293D2*
X2126715D1*
X2173299D2*
X2495371D1*
X2560273D2*
X3066937D1*
X33071Y531365D2*
X470980D1*
X629008D2*
X1126699D1*
X1173285D2*
X1626707D1*
X1673293D2*
X2126715D1*
X2173299D2*
X2507045D1*
X2571945D2*
X3066937D1*
X33071Y519685D2*
X464083D1*
X635906D2*
X1126699D1*
X1173285D2*
X1626707D1*
X1673293D2*
X2126715D1*
X2173299D2*
X2518717D1*
X2583640D2*
X3066937D1*
X33071Y508005D2*
X459239D1*
X640773D2*
X1126699D1*
X1173285D2*
X1626707D1*
X1673293D2*
X2126715D1*
X2173299D2*
X2530412D1*
X2595314D2*
X3066937D1*
X33071Y496325D2*
X456079D1*
X643911D2*
X1126699D1*
X1173285D2*
X1220381D1*
X1302445D2*
X1626707D1*
X1673293D2*
X1720388D1*
X1802429D2*
X2126715D1*
X2173299D2*
X2220396D1*
X2302437D2*
X2542085D1*
X2606986D2*
X2720381D1*
X2802445D2*
X3066937D1*
X33071Y484646D2*
X454463D1*
X645525D2*
X1126699D1*
X1173285D2*
X1220381D1*
X1302445D2*
X1626707D1*
X1673293D2*
X1720388D1*
X1802429D2*
X2126715D1*
X2173299D2*
X2220396D1*
X2302437D2*
X2553757D1*
X2618681D2*
X2720381D1*
X2802445D2*
X3066937D1*
X33071Y472966D2*
X454302D1*
X645686D2*
X1126699D1*
X1173285D2*
X1220381D1*
X1302445D2*
X1626707D1*
X1673293D2*
X1720388D1*
X1802429D2*
X2126715D1*
X2173299D2*
X2220396D1*
X2302437D2*
X2565454D1*
X2630354D2*
X2720381D1*
X2802445D2*
X3066937D1*
X33071Y461286D2*
X455617D1*
X644395D2*
X1114888D1*
X1185118D2*
X1220381D1*
X1302445D2*
X1614874D1*
X1685126D2*
X1720388D1*
X1802429D2*
X2114882D1*
X2185110D2*
X2220396D1*
X2302437D2*
X2577126D1*
X2685118D2*
X2720381D1*
X2802445D2*
X3066937D1*
X33071Y449606D2*
X458432D1*
X641581D2*
X1114888D1*
X1185118D2*
X1220381D1*
X1302445D2*
X1614874D1*
X1685126D2*
X1720388D1*
X1802429D2*
X2114882D1*
X2185110D2*
X2220396D1*
X2302437D2*
X2588799D1*
X2685118D2*
X2720381D1*
X2802445D2*
X3066937D1*
X33071Y437927D2*
X462907D1*
X637105D2*
X1114888D1*
X1185118D2*
X1220381D1*
X1302445D2*
X1614874D1*
X1685126D2*
X1720388D1*
X1802429D2*
X2114882D1*
X2185110D2*
X2220396D1*
X2302437D2*
X2600495D1*
X2685118D2*
X2720381D1*
X2802445D2*
X3066937D1*
X33071Y426247D2*
X469320D1*
X630669D2*
X1114888D1*
X1185118D2*
X1220381D1*
X1302445D2*
X1614874D1*
X1685126D2*
X1720388D1*
X1802429D2*
X2114882D1*
X2185110D2*
X2220396D1*
X2302437D2*
X2612167D1*
X2685118D2*
X2720381D1*
X2802445D2*
X3066937D1*
X33071Y414567D2*
X478224D1*
X621789D2*
X1114888D1*
X1185118D2*
X1220381D1*
X1302445D2*
X1614874D1*
X1685126D2*
X1720388D1*
X1802429D2*
X2114882D1*
X2185110D2*
X2220396D1*
X2302437D2*
X2614888D1*
X2685118D2*
X2720381D1*
X2802445D2*
X3066937D1*
X33071Y402887D2*
X490705D1*
X609285D2*
X1114888D1*
X1185118D2*
X1238121D1*
X1284705D2*
X1614874D1*
X1685126D2*
X1738129D1*
X1784713D2*
X2114882D1*
X2185110D2*
X2238113D1*
X2284720D2*
X2614888D1*
X2685118D2*
X2738121D1*
X2784705D2*
X3066937D1*
X33071Y391207D2*
X510127D1*
X589861D2*
X1114888D1*
X1205833D2*
X1238121D1*
X1284705D2*
X1541378D1*
X1568839D2*
X1614874D1*
X1685126D2*
X1738129D1*
X1784713D2*
X2050059D1*
X2079020D2*
X2114882D1*
X2185110D2*
X2238136D1*
X2284720D2*
X2530390D1*
X2559373D2*
X2614888D1*
X2685118D2*
X2738121D1*
X2784705D2*
X3066937D1*
X33071Y379528D2*
X1114888D1*
X1284705D2*
X1529314D1*
X1784713D2*
X2038525D1*
X2284720D2*
X2518856D1*
X2784705D2*
X3066937D1*
X33071Y367848D2*
X1114888D1*
X1284705D2*
X1525969D1*
X1784713D2*
X2035365D1*
X2284720D2*
X2515696D1*
X2784705D2*
X3066937D1*
X33071Y356168D2*
X1114888D1*
X1284705D2*
X1527744D1*
X1784713D2*
X2037325D1*
X2284720D2*
X2517656D1*
X2784705D2*
X3066937D1*
X33071Y344488D2*
X1114888D1*
X1209825D2*
X1238121D1*
X1284705D2*
X1536142D1*
X1574098D2*
X1614874D1*
X1784713D2*
X2046046D1*
X2083033D2*
X2114882D1*
X2284720D2*
X2526399D1*
X2563387D2*
X2614888D1*
X2784705D2*
X3066937D1*
X33071Y332808D2*
X1114888D1*
X1185118D2*
X1238121D1*
X1284705D2*
X1614874D1*
X1685126D2*
X1738129D1*
X1784713D2*
X2114882D1*
X2185110D2*
X2238136D1*
X2284720D2*
X2614888D1*
X2685118D2*
X2738121D1*
X2784705D2*
X3066937D1*
X33071Y321129D2*
X1238121D1*
X1284705D2*
X1738129D1*
X1784713D2*
X2238136D1*
X2284720D2*
X2738121D1*
X2784705D2*
X3066937D1*
X33071Y309449D2*
X1238121D1*
X1284705D2*
X1738129D1*
X1784713D2*
X2238136D1*
X2284720D2*
X2738121D1*
X2784705D2*
X3066937D1*
X33071Y297769D2*
X1238121D1*
X1284705D2*
X1738129D1*
X1784713D2*
X2238136D1*
X2284720D2*
X2738121D1*
X2784705D2*
X3066937D1*
X33071Y286089D2*
X1238121D1*
X1284705D2*
X1738129D1*
X1784713D2*
X2238136D1*
X2284720D2*
X2738121D1*
X2784705D2*
X3066937D1*
X33071Y274409D2*
X1238121D1*
X1284705D2*
X1738129D1*
X1784713D2*
X2238136D1*
X2284720D2*
X2738121D1*
X2784705D2*
X3066937D1*
X33071Y262730D2*
X1238121D1*
X1284705D2*
X1738129D1*
X1784713D2*
X2238136D1*
X2284720D2*
X2738121D1*
X2784705D2*
X3066937D1*
X33071Y251050D2*
X1238121D1*
X1284705D2*
X1738129D1*
X1784713D2*
X2238136D1*
X2284720D2*
X2738121D1*
X2784705D2*
X3066937D1*
X33071Y239370D2*
X1238121D1*
X1284705D2*
X1738129D1*
X1784713D2*
X2238136D1*
X2284720D2*
X2738121D1*
X2784705D2*
X3066937D1*
X33071Y227690D2*
X1238121D1*
X1284705D2*
X1738129D1*
X1784713D2*
X2238136D1*
X2284720D2*
X2738121D1*
X2784705D2*
X3066937D1*
X33071Y216010D2*
X1238121D1*
X1284705D2*
X1738129D1*
X1784713D2*
X2238136D1*
X2284720D2*
X2738121D1*
X2784705D2*
X3066937D1*
X33071Y204331D2*
X1238121D1*
X1284705D2*
X1738129D1*
X1784713D2*
X2238136D1*
X2284720D2*
X2738121D1*
X2784705D2*
X3066937D1*
X33071Y192651D2*
X1238121D1*
X1284705D2*
X1738129D1*
X1784713D2*
X2238136D1*
X2284720D2*
X2738121D1*
X2784705D2*
X3066937D1*
X33071Y180971D2*
X1220404D1*
X1302445D2*
X1720388D1*
X1802453D2*
X2220396D1*
X2302437D2*
X2720404D1*
X2802445D2*
X3066937D1*
X33071Y169291D2*
X1220404D1*
X1302445D2*
X1720388D1*
X1802453D2*
X2220396D1*
X2302437D2*
X2720404D1*
X2802445D2*
X3066937D1*
X33071Y157612D2*
X1220404D1*
X1302445D2*
X1720388D1*
X1802453D2*
X2220396D1*
X2302437D2*
X2720404D1*
X2802445D2*
X3066937D1*
X33071Y145932D2*
X1220404D1*
X1302445D2*
X1720388D1*
X1802453D2*
X2220396D1*
X2302437D2*
X2720404D1*
X2802445D2*
X3066937D1*
X33071Y134252D2*
X1220404D1*
X1302445D2*
X1720388D1*
X1802453D2*
X2220396D1*
X2302437D2*
X2720404D1*
X2802445D2*
X3066937D1*
X33071Y122572D2*
X1220404D1*
X1302445D2*
X1720388D1*
X1802453D2*
X2220396D1*
X2302437D2*
X2720404D1*
X2802445D2*
X3066937D1*
X33071Y110892D2*
X1220404D1*
X1302445D2*
X1720388D1*
X1802453D2*
X2220396D1*
X2302437D2*
X2720404D1*
X2802445D2*
X3066937D1*
X33071Y99213D2*
X1220404D1*
X1302445D2*
X1720388D1*
X1802453D2*
X2220396D1*
X2302437D2*
X2720404D1*
X2802445D2*
X3066937D1*
X33071Y87533D2*
X3066937D1*
X33071Y75853D2*
X3066937D1*
X33071Y64173D2*
X3066937D1*
X33071Y52493D2*
X3066937D1*
X33071Y40814D2*
X3066937D1*
X458189Y2247717D2*
X547717D1*
Y2152283D1*
X452283D1*
Y2182157D1*
X385609Y2182230D1*
X381875Y2182820D1*
X378280Y2183988D1*
X374911Y2185705D1*
X371852Y2187928D1*
X362110Y2197563D1*
X313290Y2246385D1*
X212664Y2246378D1*
X212677Y2244409D1*
X136929D1*
Y2296535D1*
X212677D1*
Y2294575D1*
X325168Y2294492D1*
X328902Y2293902D1*
X332497Y2292734D1*
X335866Y2291017D1*
X338925Y2288794D1*
X348667Y2279159D1*
X397487Y2230337D1*
X452299Y2230344D1*
X452283Y2247717D1*
X458189D1*
X644436Y1593705D2*
X643883Y1587825D1*
X642966Y1581993D1*
X641686Y1576228D1*
X640050Y1570555D1*
X638062Y1564996D1*
X635732Y1559571D1*
X633068Y1554301D1*
X630080Y1549207D1*
X626781Y1544311D1*
X623182Y1539630D1*
X619299Y1535182D1*
X615146Y1530986D1*
X610739Y1527055D1*
X606096Y1523408D1*
X601234Y1520058D1*
X596172Y1517017D1*
X590930Y1514298D1*
X585530Y1511911D1*
X579991Y1509866D1*
X574336Y1508169D1*
X568585Y1506829D1*
X562762Y1505852D1*
X556890Y1505238D1*
X550990Y1504992D1*
X545087Y1505114D1*
X539202Y1505605D1*
X533361Y1506462D1*
X527583Y1507681D1*
X521894Y1509257D1*
X516312Y1511186D1*
X510864Y1513461D1*
X505566Y1516070D1*
X500442Y1519003D1*
X495512Y1522251D1*
X490793Y1525801D1*
X486304Y1529636D1*
X482064Y1533747D1*
X478089Y1538112D1*
X474394Y1542717D1*
X470992Y1547543D1*
X467899Y1552572D1*
X465125Y1557785D1*
X462681Y1563160D1*
X460579Y1568677D1*
X458823Y1574315D1*
X457424Y1580051D1*
X456383Y1585864D1*
X455709Y1591730D1*
X455402Y1597626D1*
X455462Y1603530D1*
X455891Y1609420D1*
X456686Y1615270D1*
X457845Y1621060D1*
X459362Y1626766D1*
X461232Y1632366D1*
X463449Y1637840D1*
X466003Y1643164D1*
X468883Y1648318D1*
X472079Y1653282D1*
X475579Y1658038D1*
X479367Y1662567D1*
X483433Y1666849D1*
X487756Y1670870D1*
X492323Y1674614D1*
X497113Y1678066D1*
X502110Y1681211D1*
X507293Y1684039D1*
X512643Y1686539D1*
X518138Y1688699D1*
X523756Y1690513D1*
X529478Y1691974D1*
X535280Y1693073D1*
X541138Y1693810D1*
X547030Y1694178D1*
X552934Y1694180D1*
X558828Y1693814D1*
X564686Y1693079D1*
X570488Y1691980D1*
X576210Y1690524D1*
X581829Y1688711D1*
X587325Y1686552D1*
X592676Y1684055D1*
X597860Y1681228D1*
X602858Y1678085D1*
X607650Y1674635D1*
X612218Y1670894D1*
X616543Y1666874D1*
X620609Y1662592D1*
X624400Y1658066D1*
X627902Y1653311D1*
X631100Y1648348D1*
X633982Y1643194D1*
X636537Y1637871D1*
X638755Y1632399D1*
X640627Y1626799D1*
X642147Y1621094D1*
X643308Y1615304D1*
X644105Y1609454D1*
X644619Y1599606D1*
X644436Y1593705D1*
Y471657D2*
X643883Y465778D1*
X642966Y459946D1*
X641686Y454181D1*
X640050Y448508D1*
X638062Y442949D1*
X635732Y437524D1*
X633068Y432253D1*
X630080Y427160D1*
X626781Y422264D1*
X623182Y417583D1*
X619299Y413135D1*
X615146Y408938D1*
X610739Y405008D1*
X606096Y401361D1*
X601234Y398010D1*
X596172Y394970D1*
X590930Y392251D1*
X585530Y389864D1*
X579991Y387819D1*
X574336Y386122D1*
X568585Y384782D1*
X562762Y383804D1*
X556890Y383190D1*
X550990Y382945D1*
X545087Y383067D1*
X539202Y383558D1*
X533361Y384415D1*
X527583Y385634D1*
X521894Y387210D1*
X516312Y389139D1*
X510864Y391413D1*
X505566Y394022D1*
X500442Y396955D1*
X495512Y400203D1*
X490793Y403753D1*
X486304Y407589D1*
X482064Y411699D1*
X478089Y416064D1*
X474394Y420669D1*
X470992Y425496D1*
X467899Y430525D1*
X465125Y435738D1*
X462681Y441113D1*
X460579Y446630D1*
X458823Y452268D1*
X457424Y458004D1*
X456383Y463816D1*
X455709Y469682D1*
X455402Y475579D1*
X455462Y481483D1*
X455891Y487373D1*
X456686Y493223D1*
X457845Y499013D1*
X459362Y504719D1*
X461232Y510319D1*
X463449Y515793D1*
X466003Y521117D1*
X468883Y526270D1*
X472079Y531235D1*
X475579Y535991D1*
X479367Y540520D1*
X483433Y544802D1*
X487756Y548823D1*
X492323Y552567D1*
X497113Y556018D1*
X502110Y559164D1*
X507293Y561992D1*
X512643Y564492D1*
X518138Y566652D1*
X523756Y568466D1*
X529478Y569927D1*
X535280Y571026D1*
X541138Y571762D1*
X547030Y572131D1*
X552934Y572133D1*
X558828Y571766D1*
X564686Y571031D1*
X570488Y569933D1*
X576210Y568476D1*
X581829Y566664D1*
X587325Y564505D1*
X592676Y562008D1*
X597860Y559181D1*
X602858Y556038D1*
X607650Y552588D1*
X612218Y548846D1*
X616543Y544827D1*
X620609Y540545D1*
X624400Y536018D1*
X627902Y531264D1*
X631100Y526301D1*
X633982Y521147D1*
X636537Y515824D1*
X638755Y510352D1*
X640627Y504752D1*
X642147Y499047D1*
X643308Y493257D1*
X644105Y487407D1*
X644619Y477559D1*
X644436Y471657D1*
X833937Y3121408D2*
Y3105630D1*
X777211D1*
X777260Y3054287D1*
X780370Y3051177D1*
X782955Y3047619D1*
X784953Y3043699D1*
X786312Y3039516D1*
X787000Y3035172D1*
Y3030773D1*
X786312Y3026429D1*
X784953Y3022245D1*
X782955Y3018325D1*
X780370Y3014768D1*
X777260Y3011657D1*
X773702Y3009072D1*
X769782Y3007075D1*
X765598Y3005715D1*
X761255Y3005028D1*
X756856D1*
X752512Y3005715D1*
X748328Y3007075D1*
X744408Y3009072D1*
X740850Y3011657D1*
X737740Y3014768D1*
X735155Y3018325D1*
X733157Y3022245D1*
X731798Y3026429D1*
X731110Y3030773D1*
Y3035172D1*
X731798Y3039516D1*
X733157Y3043699D1*
X735155Y3047619D1*
X737740Y3051177D1*
X740885Y3054315D1*
X740923Y3160678D1*
X741369Y3163499D1*
X742251Y3166213D1*
X743546Y3168756D1*
X745224Y3171064D1*
X761941Y3187862D1*
X764112Y3189715D1*
X766546Y3191206D1*
X769182Y3192299D1*
X771958Y3192965D1*
X774803Y3193189D1*
X1188331Y3193205D1*
X1191441Y3196315D1*
X1194999Y3198900D1*
X1198919Y3200898D1*
X1203102Y3202257D1*
X1207446Y3202945D1*
X1211845D1*
X1216189Y3202257D1*
X1220373Y3200898D1*
X1224293Y3198900D1*
X1227850Y3196315D1*
X1230961Y3193205D1*
X1233546Y3189647D1*
X1235543Y3185727D1*
X1236903Y3181543D1*
X1237591Y3177199D1*
Y3172801D1*
X1236903Y3168457D1*
X1235543Y3164273D1*
X1233546Y3160353D1*
X1230961Y3156795D1*
X1227850Y3153685D1*
X1224293Y3151100D1*
X1220373Y3149102D1*
X1216189Y3147743D1*
X1211845Y3147055D1*
X1207446D1*
X1203102Y3147743D1*
X1198919Y3149102D1*
X1194999Y3151100D1*
X1191441Y3153685D1*
X1188303Y3156829D1*
X901521Y3156811D1*
X910986Y3147437D1*
X932175Y3126248D1*
X988268Y3126255D1*
Y3106577D1*
X1211720Y3106570D1*
X1211732Y3126264D1*
X1272794D1*
X1304862Y3158370D1*
X1304843Y3293001D1*
X1302322Y3296024D1*
X1300024Y3299774D1*
X1298340Y3303837D1*
X1297314Y3308115D1*
X1296969Y3312500D1*
X1297314Y3316885D1*
X1298340Y3321163D1*
X1300024Y3325226D1*
X1302322Y3328976D1*
X1305178Y3332322D1*
X1308524Y3335178D1*
X1312274Y3337476D1*
X1316337Y3339160D1*
X1320615Y3340186D1*
X1322314Y3340387D1*
X884127Y3340374D1*
X597114Y3053323D1*
X597126Y3000885D1*
X624685Y3000866D1*
X624714Y2949885D1*
X658789Y2915810D1*
X805618Y2915827D1*
X805630Y2933937D1*
X835735D1*
X847243Y2945462D1*
X843846Y2948823D1*
X842659Y2950328D1*
X690606Y2950299D1*
X687496Y2947189D1*
X683938Y2944604D1*
X680018Y2942606D1*
X675835Y2941247D1*
X671491Y2940559D1*
X667092D1*
X662748Y2941247D1*
X658564Y2942606D1*
X654644Y2944604D1*
X651087Y2947189D1*
X647976Y2950299D1*
X645391Y2953857D1*
X643394Y2957777D1*
X642034Y2961961D1*
X641346Y2966304D1*
Y2970703D1*
X642034Y2975047D1*
X643394Y2979231D1*
X645391Y2983151D1*
X647976Y2986709D1*
X651087Y2989819D1*
X654644Y2992404D1*
X658564Y2994402D1*
X662748Y2995761D1*
X667092Y2996449D1*
X671491D1*
X675835Y2995761D1*
X680018Y2994402D1*
X683938Y2992404D1*
X687496Y2989819D1*
X690634Y2986675D1*
X845188Y2986693D1*
X848685Y2989706D1*
X852436Y2992004D1*
X856499Y2993688D1*
X860777Y2994714D1*
X865161Y2995059D1*
X869546Y2994714D1*
X873824Y2993688D1*
X877887Y2992004D1*
X881638Y2989706D1*
X884983Y2986849D1*
X887840Y2983504D1*
X890138Y2979753D1*
X891822Y2975690D1*
X892848Y2971412D1*
X893193Y2967028D1*
X892848Y2962643D1*
X892173Y2959615D1*
X959866Y2959715D1*
X958182Y2963778D1*
X957156Y2968056D1*
X956811Y2972441D1*
X957156Y2976825D1*
X958182Y2981104D1*
X959866Y2985167D1*
X962164Y2988917D1*
X964701Y2991915D1*
X964685Y3036732D1*
X954848Y3046560D1*
X898740Y3046570D1*
Y3102696D1*
X880005Y3121404D1*
X833916Y3121378D1*
X671715Y2527441D2*
X707425D1*
X712105Y2532060D1*
X714664Y2533920D1*
X717483Y2535356D1*
X720491Y2536333D1*
X723615Y2536828D1*
X742913Y2536890D1*
X763921D1*
Y2576260D1*
X763349Y2576849D1*
X760530Y2578285D1*
X757971Y2580144D1*
X727579Y2610450D1*
X707400Y2630627D1*
X671722Y2630630D1*
X671732Y2527444D1*
X733937Y2496598D2*
Y2455630D1*
X671722D1*
X671732Y2312318D1*
X895004Y2089043D1*
X899552Y2089055D1*
X897150Y2090890D1*
X894039Y2094000D1*
X891454Y2097558D1*
X889457Y2101478D1*
X888097Y2105661D1*
X887409Y2110005D1*
Y2114404D1*
X888097Y2118748D1*
X889457Y2122932D1*
X891454Y2126852D1*
X894039Y2130409D1*
X897150Y2133520D1*
X900707Y2136105D1*
X904627Y2138102D1*
X908811Y2139462D1*
X913155Y2140150D1*
X917554D1*
X921898Y2139462D1*
X926081Y2138102D1*
X930001Y2136105D1*
X933559Y2133520D1*
X936697Y2130375D1*
X1130421Y2130394D1*
X1129535Y2135596D1*
Y2139995D1*
X1130223Y2144339D1*
X1131583Y2148522D1*
X1133580Y2152442D1*
X1136165Y2156000D1*
X1139276Y2159110D1*
X1142833Y2161696D1*
X1146753Y2163693D1*
X1150937Y2165052D1*
X1155281Y2165740D1*
X1159680D1*
X1164024Y2165052D1*
X1168207Y2163693D1*
X1172127Y2161696D1*
X1175685Y2159110D1*
X1178823Y2155966D1*
X1220370Y2156000D1*
X1223480Y2159110D1*
X1227038Y2161696D1*
X1230958Y2163693D1*
X1235142Y2165052D1*
X1239486Y2165740D1*
X1243885D1*
X1248228Y2165052D1*
X1252412Y2163693D1*
X1256332Y2161696D1*
X1259890Y2159110D1*
X1263000Y2156000D1*
X1265585Y2152442D1*
X1267583Y2148522D1*
X1268942Y2144339D1*
X1269630Y2139995D1*
Y2135596D1*
X1268942Y2131252D1*
X1268697Y2130383D1*
X1287343Y2130409D1*
X1290453Y2133520D1*
X1294010Y2136105D1*
X1297930Y2138102D1*
X1302114Y2139462D1*
X1306458Y2140150D1*
X1310857D1*
X1315201Y2139462D1*
X1316467Y2139105D1*
X1316457Y2194244D1*
X1313440Y2193577D1*
X1309055Y2193232D1*
X1304671Y2193577D1*
X1300392Y2194604D1*
X1296329Y2196287D1*
X1292579Y2198585D1*
X1289234Y2201442D1*
X1287713Y2203093D1*
X1153205Y2203059D1*
X1150094Y2199949D1*
X1146537Y2197364D1*
X1142617Y2195366D1*
X1138433Y2194007D1*
X1134089Y2193319D1*
X1129690D1*
X1125346Y2194007D1*
X1121163Y2195366D1*
X1117243Y2197364D1*
X1113685Y2199949D1*
X1110575Y2203059D1*
X1107990Y2206617D1*
X1105992Y2210537D1*
X1104633Y2214720D1*
X1103945Y2219064D1*
Y2223463D1*
X1104633Y2227807D1*
X1105992Y2231991D1*
X1107990Y2235911D1*
X1110575Y2239469D1*
X1113685Y2242579D1*
X1117243Y2245164D1*
X1121163Y2247161D1*
X1125346Y2248521D1*
X1129690Y2249209D1*
X1134089D1*
X1138433Y2248521D1*
X1142617Y2247161D1*
X1146537Y2245164D1*
X1150094Y2242579D1*
X1153232Y2239434D1*
X1287740Y2239469D1*
X1290850Y2242579D1*
X1294408Y2245164D1*
X1298328Y2247161D1*
X1302512Y2248521D1*
X1306856Y2249209D1*
X1311255D1*
X1315598Y2248521D1*
X1316467Y2248276D1*
X1316457Y2364765D1*
X1283642Y2397567D1*
X1241063Y2397559D1*
Y2411331D1*
X1208955Y2411339D1*
X1208937Y2397559D1*
X1167576D1*
X1161123Y2391168D1*
X1158564Y2389308D1*
X1155745Y2387873D1*
X1152738Y2386895D1*
X1149613Y2386400D1*
X1130315Y2386339D1*
X1029423Y2386400D1*
X1026298Y2386895D1*
X1023290Y2387873D1*
X1020471Y2389308D1*
X1017912Y2391168D1*
X1009959Y2399034D1*
X1007904Y2401440D1*
X1006252Y2404136D1*
X1005042Y2407058D1*
X1004303Y2410134D1*
X1004055Y2413920D1*
X985293Y2413898D1*
X985315Y2389633D1*
X993782Y2381182D1*
X1076457Y2381181D1*
Y2369348D1*
X1133937Y2369370D1*
Y2297559D1*
X1066063D1*
Y2305425D1*
X969213Y2305433D1*
Y2348732D1*
X965619Y2352331D1*
X965568Y2302159D1*
X965073Y2299034D1*
X964096Y2296026D1*
X962660Y2293207D1*
X960801Y2290648D1*
X947198Y2276959D1*
X930773Y2260533D1*
X930787Y2218819D1*
X823543D1*
Y2230608D1*
X766063Y2230630D1*
Y2302441D1*
X833937D1*
Y2294575D1*
X907812Y2294567D1*
X925327Y2312101D1*
X925315Y2409970D1*
X862323Y2409961D1*
Y2413906D1*
X846575Y2413898D1*
Y2487416D1*
X837423Y2496570D1*
X733958Y2496575D1*
X877441Y2913106D2*
Y2892575D1*
X882060Y2887895D1*
X883920Y2885336D1*
X885356Y2882517D1*
X886333Y2879509D1*
X886828Y2876385D1*
X886890Y2857087D1*
X886932Y2841466D1*
X888142Y2844387D1*
X889794Y2847084D1*
X891849Y2849490D1*
X897182Y2854824D1*
X897510Y2858715D1*
X898537Y2862993D1*
X900220Y2867056D1*
X902518Y2870807D1*
X905375Y2874152D1*
X908720Y2877009D1*
X912471Y2879307D1*
X916534Y2880991D1*
X920812Y2882017D1*
X925197Y2882362D1*
X929581Y2882017D1*
X933860Y2880991D1*
X937923Y2879307D1*
X941673Y2877009D1*
X945018Y2874152D1*
X947875Y2870807D1*
X950173Y2867056D1*
X951857Y2862993D1*
X952883Y2858715D1*
X953228Y2854331D1*
X952883Y2849946D1*
X951857Y2845668D1*
X950173Y2841605D1*
X949295Y2840037D1*
X996388Y2840039D1*
X996181Y2843504D1*
X996526Y2847888D1*
X997552Y2852167D1*
X999236Y2856230D1*
X1001534Y2859980D1*
X1004391Y2863325D1*
X1007736Y2866182D1*
X1011487Y2868480D1*
X1015550Y2870164D1*
X1019828Y2871190D1*
X1024213Y2871535D1*
X1028597Y2871190D1*
X1032875Y2870164D1*
X1036938Y2868480D1*
X1040689Y2866182D1*
X1042702Y2864556D1*
X1046573Y2867404D1*
X1050493Y2869402D1*
X1054677Y2870761D1*
X1059021Y2871449D1*
X1063420D1*
X1067764Y2870761D1*
X1071948Y2869402D1*
X1075867Y2867404D1*
X1079425Y2864819D1*
X1082535Y2861709D1*
X1085121Y2858151D1*
X1087118Y2854231D1*
X1088478Y2850047D1*
X1089165Y2845703D1*
Y2841304D1*
X1088478Y2836961D1*
X1088238Y2836108D1*
X1103425Y2836102D1*
Y2753402D1*
X1216042Y2753425D1*
X1216063Y2768396D1*
X1109129Y2875328D1*
X1049134Y2875315D1*
Y2915385D1*
X879726Y2915374D1*
X877457Y2913094D1*
X1252673Y2794370D2*
X1283937D1*
Y2722559D1*
X1242575D1*
X1237895Y2717940D1*
X1235336Y2716080D1*
X1232517Y2714644D1*
X1229509Y2713667D1*
X1226385Y2713172D1*
X1207087Y2713110D1*
X1186080D1*
X1186510Y2711862D1*
X1188035Y2711550D1*
X1191304Y2712004D1*
X1195703D1*
X1200047Y2711316D1*
X1204231Y2709957D1*
X1208151Y2707959D1*
X1211709Y2705374D1*
X1214819Y2702264D1*
X1217404Y2698706D1*
X1219402Y2694786D1*
X1220761Y2690602D1*
X1221449Y2686259D1*
Y2681860D1*
X1220761Y2677516D1*
X1219402Y2673332D1*
X1218148Y2670740D1*
X1223318Y2670524D1*
X1224843Y2670211D1*
X1228115Y2670661D1*
X1232514D1*
X1236858Y2669974D1*
X1241042Y2668614D1*
X1244962Y2666617D1*
X1248520Y2664031D1*
X1251630Y2660921D1*
X1254215Y2657364D1*
X1256213Y2653444D1*
X1257572Y2649260D1*
X1258249Y2645009D1*
X1920787Y3307562D1*
X1921133Y3311471D1*
X1922159Y3315749D1*
X1923843Y3319812D1*
X1926140Y3323563D1*
X1928997Y3326908D1*
X1932343Y3329765D1*
X1936093Y3332063D1*
X1940156Y3333747D1*
X1944434Y3334773D1*
X1948819Y3335118D1*
X1953203Y3334773D1*
X1957482Y3333747D1*
X1961545Y3332063D1*
X1965295Y3329765D1*
X1968041Y3327462D1*
X1968031Y3414577D1*
X1963717Y3419010D1*
X1959315Y3425068D1*
X1955916Y3431740D1*
X1953602Y3438861D1*
X1952430Y3446256D1*
Y3453744D1*
X1953602Y3461139D1*
X1955916Y3468260D1*
X1959315Y3474932D1*
X1963717Y3480990D1*
X1969010Y3486283D1*
X1975068Y3490685D1*
X1981740Y3494084D1*
X1988861Y3496398D1*
X1996256Y3497570D1*
X2003744D1*
X2011139Y3496398D1*
X2018260Y3494084D1*
X2024932Y3490685D1*
X2030990Y3486283D1*
X2036283Y3480990D1*
X2040685Y3474932D1*
X2044084Y3468260D1*
X2046398Y3461139D1*
X2047570Y3453744D1*
Y3446256D1*
X2046398Y3438861D1*
X2044084Y3431740D1*
X2043319Y3430079D1*
X2053319Y3440093D1*
X2052430Y3446256D1*
Y3453744D1*
X2053602Y3461139D1*
X2055916Y3468260D1*
X2059315Y3474932D1*
X2063717Y3480990D1*
X2069010Y3486283D1*
X2075068Y3490685D1*
X2081740Y3494084D1*
X2088861Y3496398D1*
X2096256Y3497570D1*
X2103744D1*
X2111139Y3496398D1*
X2118260Y3494084D1*
X2124932Y3490685D1*
X2130990Y3486283D1*
X2136283Y3480990D1*
X2140685Y3474932D1*
X2144084Y3468260D1*
X2146398Y3461139D1*
X2147570Y3453744D1*
Y3446256D1*
X2146398Y3438861D1*
X2144084Y3431740D1*
X2140685Y3425068D1*
X2136283Y3419010D1*
X2130990Y3413717D1*
X2124932Y3409315D1*
X2118260Y3405916D1*
X2111139Y3403602D1*
X2103744Y3402430D1*
X2096256D1*
X2088861Y3403602D1*
X2081740Y3405916D1*
X2077941Y3407706D1*
X2055583Y3385344D1*
X2055245Y3381442D1*
X2054219Y3377164D1*
X2052535Y3373101D1*
X2050238Y3369350D1*
X2047381Y3366005D1*
X2044035Y3363148D1*
X2040285Y3360850D1*
X2036222Y3359167D1*
X2031944Y3358140D1*
X2027559Y3357795D1*
X2023175Y3358140D1*
X2018896Y3359167D1*
X2014833Y3360850D1*
X2011083Y3363148D1*
X2008337Y3365451D1*
X2008285Y3285820D1*
X2007790Y3282696D1*
X2006812Y3279688D1*
X2005377Y3276869D1*
X2003517Y3274310D1*
X1989915Y3260621D1*
X1335958Y2606663D1*
X1338110Y2606753D1*
X2158239Y3426903D1*
X2155916Y3431740D1*
X2153602Y3438861D1*
X2152430Y3446256D1*
Y3453744D1*
X2153602Y3461139D1*
X2155916Y3468260D1*
X2159315Y3474932D1*
X2163717Y3480990D1*
X2169010Y3486283D1*
X2175068Y3490685D1*
X2181740Y3494084D1*
X2188861Y3496398D1*
X2196256Y3497570D1*
X2203744D1*
X2211139Y3496398D1*
X2218260Y3494084D1*
X2224932Y3490685D1*
X2230990Y3486283D1*
X2236283Y3480990D1*
X2240685Y3474932D1*
X2244084Y3468260D1*
X2246398Y3461139D1*
X2247570Y3453744D1*
Y3446256D1*
X2246398Y3438861D1*
X2244084Y3431740D1*
X2240685Y3425068D1*
X2236283Y3419010D1*
X2230990Y3413717D1*
X2224932Y3409315D1*
X2218260Y3405916D1*
X2211139Y3403602D1*
X2203744Y3402430D1*
X2196256D1*
X2191430Y3403091D1*
X2182396Y3394047D1*
X2187239Y3394087D1*
X2191583Y3393399D1*
X2195766Y3392039D1*
X2199686Y3390042D1*
X2203244Y3387457D1*
X2206354Y3384346D1*
X2208940Y3380789D1*
X2210937Y3376869D1*
X2212297Y3372685D1*
X2212984Y3368341D1*
X2212927Y3363455D1*
X2265984Y3416538D1*
X2261396Y3421953D1*
X2257484Y3428337D1*
X2254619Y3435255D1*
X2252871Y3442535D1*
X2252283Y3450000D1*
X2252871Y3457465D1*
X2254619Y3464745D1*
X2257484Y3471663D1*
X2261396Y3478047D1*
X2266260Y3483740D1*
X2271953Y3488604D1*
X2278337Y3492516D1*
X2285255Y3495381D1*
X2292535Y3497129D1*
X2300000Y3497717D1*
X2307465Y3497129D1*
X2314745Y3495381D1*
X2321663Y3492516D1*
X2328047Y3488604D1*
X2333740Y3483740D1*
X2338604Y3478047D1*
X2342516Y3471663D1*
X2345381Y3464745D1*
X2347129Y3457465D1*
X2347862Y3453154D1*
X2348110Y3450000D1*
X2347862Y3446846D1*
X2347129Y3442535D1*
X2346013Y3437495D1*
X2352659Y3444159D1*
X2352283Y3450000D1*
X2352871Y3457465D1*
X2354619Y3464745D1*
X2357484Y3471663D1*
X2361396Y3478047D1*
X2366260Y3483740D1*
X2371953Y3488604D1*
X2378337Y3492516D1*
X2385255Y3495381D1*
X2392535Y3497129D1*
X2400000Y3497717D1*
X2407465Y3497129D1*
X2414745Y3495381D1*
X2421663Y3492516D1*
X2428047Y3488604D1*
X2433740Y3483740D1*
X2438604Y3478047D1*
X2442516Y3471663D1*
X2445381Y3464745D1*
X2447129Y3457465D1*
X2447717Y3450000D1*
X2447129Y3442535D1*
X2445381Y3435255D1*
X2442516Y3428337D1*
X2438604Y3421953D1*
X2433740Y3416260D1*
X2428047Y3411396D1*
X2421663Y3407484D1*
X2414745Y3404619D1*
X2407465Y3402871D1*
X2400000Y3402283D1*
X2392535Y3402871D1*
X2385255Y3404619D1*
X2378337Y3407484D1*
X2374909Y3409421D1*
X2331169Y3365655D1*
X2330836Y3361757D1*
X2329810Y3357479D1*
X2328126Y3353416D1*
X2325828Y3349665D1*
X2322971Y3346320D1*
X2319626Y3343463D1*
X2315875Y3341165D1*
X2311812Y3339482D1*
X2307534Y3338455D1*
X2303150Y3338110D1*
X2298765Y3338455D1*
X2294487Y3339482D1*
X2290424Y3341165D1*
X2286673Y3343463D1*
X2283328Y3346320D1*
X2280471Y3349665D1*
X2278173Y3353416D1*
X2276490Y3357479D1*
X2275463Y3361757D1*
X2275118Y3366142D1*
X2275262Y3368828D1*
X1483568Y2577108D1*
X1488420Y2577157D1*
X1492764Y2576470D1*
X1496948Y2575110D1*
X1500867Y2573113D1*
X1504425Y2570528D1*
X1507535Y2567417D1*
X1510121Y2563860D1*
X1512118Y2559940D1*
X1513478Y2555756D1*
X1514165Y2551412D1*
Y2547013D1*
X1513478Y2542669D1*
X1512118Y2538486D1*
X1510121Y2534566D1*
X1507535Y2531008D1*
X1504391Y2527870D1*
X1504409Y2418945D1*
X1749769Y2173614D1*
X1754168D1*
X1758512Y2172927D1*
X1762696Y2171567D1*
X1766615Y2169570D1*
X1770173Y2166984D1*
X1773283Y2163874D1*
X1775869Y2160316D1*
X1777866Y2156396D1*
X1779226Y2152213D1*
X1779913Y2147869D1*
Y2143470D1*
X1779226Y2139126D1*
X1777866Y2134942D1*
X1775869Y2131022D1*
X1773283Y2127465D1*
X1770173Y2124354D1*
X1766615Y2121769D1*
X1762696Y2119772D1*
X1758512Y2118412D1*
X1754168Y2117724D1*
X1749769D1*
X1745425Y2118412D1*
X1741241Y2119772D1*
X1737322Y2121769D1*
X1733764Y2124354D1*
X1730654Y2127465D1*
X1728068Y2131022D1*
X1726071Y2134942D1*
X1724711Y2139126D1*
X1724024Y2143470D1*
X1724029Y2147911D1*
X1472390Y2399605D1*
X1470711Y2401913D1*
X1469416Y2404457D1*
X1468534Y2407171D1*
X1468088Y2409991D1*
X1468031Y2435039D1*
X1468016Y2527898D1*
X1464906Y2531008D1*
X1462320Y2534566D1*
X1460323Y2538486D1*
X1458963Y2542669D1*
X1458276Y2547013D1*
X1458333Y2551899D1*
X1407777Y2501404D1*
X1405218Y2499545D1*
X1402399Y2498109D1*
X1399391Y2497131D1*
X1396266Y2496636D1*
X1376969Y2496575D1*
X1262987D1*
X1265134Y2493041D1*
X1266818Y2488978D1*
X1267844Y2484699D1*
X1268189Y2480315D1*
X1267844Y2475930D1*
X1266818Y2471652D1*
X1265958Y2469377D1*
X1308937Y2469370D1*
Y2434836D1*
X1355408Y2388287D1*
X1357449Y2385478D1*
X1359025Y2382385D1*
X1360097Y2379083D1*
X1360640Y2375654D1*
X1360709Y2362106D1*
Y2089046D1*
X1375516Y2089055D1*
X1374618Y2094257D1*
Y2098656D1*
X1375306Y2103000D1*
X1376665Y2107184D1*
X1378663Y2111104D1*
X1381248Y2114661D1*
X1384358Y2117772D1*
X1387916Y2120357D1*
X1391836Y2122354D1*
X1396020Y2123714D1*
X1400364Y2124402D1*
X1404762D1*
X1409106Y2123714D1*
X1413290Y2122354D1*
X1417210Y2120357D1*
X1420768Y2117772D1*
X1423906Y2114627D1*
X2446799Y2114661D1*
X2449909Y2117772D1*
X2453467Y2120357D1*
X2457387Y2122354D1*
X2461571Y2123714D1*
X2465915Y2124402D1*
X2470314D1*
X2474657Y2123714D1*
X2478841Y2122354D1*
X2482761Y2120357D1*
X2486319Y2117772D1*
X2489429Y2114661D1*
X2492014Y2111104D1*
X2494012Y2107184D1*
X2495371Y2103000D1*
X2496059Y2098656D1*
Y2094257D1*
X2495371Y2089913D1*
X2495126Y2089045D1*
X2521421Y2088987D1*
X2524850Y2088444D1*
X2528152Y2087371D1*
X2531245Y2085795D1*
X2534055Y2083753D1*
X2543682Y2074223D1*
X2648551Y1969354D1*
X2683937Y1969370D1*
Y1888669D1*
X2739298Y1888661D1*
X2739290Y1911724D1*
X2721570Y1911732D1*
Y2001260D1*
X2801255D1*
Y1911732D1*
X2783516D1*
X2783547Y1688286D1*
X2801264Y1688268D1*
Y1598740D1*
X2721579D1*
Y1688268D1*
X2739319D1*
X2739295Y1844407D1*
X2683934Y1844409D1*
X2683937Y1830630D1*
X2616063D1*
Y1848369D1*
X2489429Y1848331D1*
X2486319Y1845220D1*
X2482761Y1842635D1*
X2478841Y1840638D1*
X2474657Y1839278D1*
X2470314Y1838591D1*
X2465915D1*
X2461571Y1839278D1*
X2457387Y1840638D1*
X2453467Y1842635D1*
X2449909Y1845220D1*
X2446799Y1848331D1*
X2444214Y1851888D1*
X2442217Y1855808D1*
X2440857Y1859992D1*
X2440169Y1864336D1*
Y1868735D1*
X2440857Y1873079D1*
X2442217Y1877262D1*
X2444214Y1881182D1*
X2446799Y1884740D1*
X2449909Y1887850D1*
X2453467Y1890436D1*
X2457387Y1892433D1*
X2461571Y1893793D1*
X2465915Y1894480D1*
X2470314D1*
X2474657Y1893793D1*
X2478841Y1892433D1*
X2482761Y1890436D1*
X2486319Y1887850D1*
X2489457Y1884706D1*
X2616052Y1884724D1*
X2616063Y1939290D1*
X2510517Y2044807D1*
X2276013Y2044803D1*
X2278680Y2042459D1*
X2281537Y2039114D1*
X2283835Y2035364D1*
X2285518Y2031301D1*
X2286545Y2027022D1*
X2286890Y2022638D1*
X2286545Y2018253D1*
X2285518Y2013975D1*
X2283835Y2009912D1*
X2281537Y2006161D1*
X2278680Y2002816D1*
X2277029Y2001295D1*
X2301255Y2001260D1*
Y1911732D1*
X2283516D1*
X2283547Y1688286D1*
X2301264Y1688268D1*
Y1598740D1*
X2221579D1*
Y1688268D1*
X2239319D1*
X2239295Y1844407D1*
X2183934Y1844409D1*
X2183937Y1830630D1*
X2116063D1*
Y1969370D1*
X2127898D1*
X2127874Y2044816D1*
X1995096Y2044803D1*
X1995801Y2041636D1*
X1996146Y2037252D1*
X1995801Y2032867D1*
X1994774Y2028589D1*
X1993091Y2024526D1*
X1990793Y2020776D1*
X1987936Y2017430D1*
X1984591Y2014573D1*
X1980840Y2012276D1*
X1976777Y2010592D1*
X1972499Y2009566D1*
X1968114Y2009220D1*
X1963730Y2009566D1*
X1959451Y2010592D1*
X1955388Y2012276D1*
X1951638Y2014573D1*
X1948293Y2017430D1*
X1946772Y2019081D1*
X1777685Y2019063D1*
X1779226Y2014417D1*
X1779913Y2010073D1*
Y2005675D1*
X1779205Y2001256D1*
X1801255Y2001260D1*
Y1911732D1*
X1783516D1*
X1783546Y1688287D1*
X1801264Y1688268D1*
Y1598740D1*
X1721579D1*
Y1688268D1*
X1739319D1*
X1739287Y1844406D1*
X1683925Y1844409D1*
X1683937Y1830630D1*
X1616063D1*
Y1969370D1*
X1627898D1*
X1627874Y2013765D1*
X1625324Y2012276D1*
X1621261Y2010592D1*
X1616983Y2009566D1*
X1612598Y2009220D1*
X1608214Y2009566D1*
X1603936Y2010592D1*
X1599873Y2012276D1*
X1596122Y2014573D1*
X1592777Y2017430D1*
X1591256Y2019081D1*
X1263000Y2019047D1*
X1259890Y2015937D1*
X1256332Y2013352D1*
X1252412Y2011354D1*
X1248228Y2009995D1*
X1243885Y2009307D1*
X1239486D1*
X1235142Y2009995D1*
X1233064Y2010581D1*
X1242388Y2001244D1*
X1301255Y2001260D1*
Y1911732D1*
X1283516D1*
X1283547Y1688286D1*
X1301264Y1688268D1*
Y1598740D1*
X1221579D1*
Y1688268D1*
X1239319D1*
X1239295Y1844407D1*
X1183934Y1844409D1*
X1183937Y1830630D1*
X1116063D1*
Y1969370D1*
X1127898D1*
X1127874Y2044816D1*
X907944Y2044803D1*
X907953Y1596911D1*
X1634252Y1596929D1*
X2521421Y1596861D1*
X2524850Y1596318D1*
X2528152Y1595245D1*
X2531245Y1593669D1*
X2534055Y1591627D1*
X2543682Y1582097D1*
X2656413Y1469366D1*
X2683937Y1469370D1*
Y1388669D1*
X2739298Y1388661D1*
X2739290Y1411724D1*
X2721570Y1411732D1*
Y1501260D1*
X2801255D1*
Y1411732D1*
X2783516D1*
X2783547Y1188286D1*
X2801264Y1188268D1*
Y1098740D1*
X2721579D1*
Y1188268D1*
X2739319D1*
X2739295Y1344407D1*
X2683934Y1344409D1*
X2683937Y1330630D1*
X2616063D1*
Y1348370D1*
X2524743Y1348289D1*
X2521398Y1345432D1*
X2517647Y1343134D1*
X2513584Y1341450D1*
X2509306Y1340424D1*
X2504921Y1340079D1*
X2500537Y1340424D1*
X2496259Y1341450D1*
X2492196Y1343134D1*
X2488445Y1345432D1*
X2485100Y1348289D1*
X2482243Y1351634D1*
X2479945Y1355385D1*
X2478261Y1359448D1*
X2477235Y1363726D1*
X2476890Y1368110D1*
X2477235Y1372495D1*
X2478261Y1376773D1*
X2479945Y1380836D1*
X2482243Y1384587D1*
X2485100Y1387932D1*
X2488445Y1390789D1*
X2492196Y1393087D1*
X2496259Y1394770D1*
X2500537Y1395797D1*
X2504921Y1396142D1*
X2509306Y1395797D1*
X2513584Y1394770D1*
X2517647Y1393087D1*
X2521398Y1390789D1*
X2524743Y1387932D1*
X2527499Y1384715D1*
X2616042Y1384724D1*
X2616063Y1447133D1*
X2510496Y1552702D1*
X2172113Y1552677D1*
X2172126Y1469357D1*
X2183937Y1469370D1*
Y1388669D1*
X2239298Y1388661D1*
X2239290Y1411724D1*
X2221570Y1411732D1*
Y1501260D1*
X2301255D1*
Y1411732D1*
X2283514D1*
X2283547Y1188286D1*
X2301264Y1188268D1*
Y1104783D1*
X2501736Y1104735D1*
X2505165Y1104192D1*
X2508467Y1103119D1*
X2511560Y1101543D1*
X2514370Y1099503D1*
X2523997Y1089971D1*
X2644591Y969378D1*
X2683937Y969370D1*
Y888669D1*
X2739298Y888661D1*
X2739290Y911724D1*
X2721570Y911732D1*
Y1001260D1*
X2801255D1*
Y911732D1*
X2783516D1*
X2783547Y688286D1*
X2801264Y688268D1*
Y598740D1*
X2721579D1*
Y688268D1*
X2739319D1*
X2739295Y844407D1*
X2683934Y844409D1*
X2683937Y830630D1*
X2616063D1*
Y846894D1*
X2612543Y843857D1*
X2608793Y841559D1*
X2604730Y839875D1*
X2600451Y838849D1*
X2596067Y838504D1*
X2591682Y838849D1*
X2587404Y839875D1*
X2583341Y841559D1*
X2579591Y843857D1*
X2576245Y846714D1*
X2573388Y850059D1*
X2571091Y853810D1*
X2569407Y857873D1*
X2568381Y862151D1*
X2568035Y866535D1*
X2568381Y870920D1*
X2569407Y875198D1*
X2571091Y879261D1*
X2573388Y883012D1*
X2576245Y886357D1*
X2579591Y889214D1*
X2583341Y891512D1*
X2587404Y893196D1*
X2591682Y894222D1*
X2596067Y894567D1*
X2600451Y894222D1*
X2604730Y893196D1*
X2608793Y891512D1*
X2612543Y889214D1*
X2616058Y886173D1*
X2616063Y935322D1*
X2490823Y1060564D1*
X2172129Y1060551D1*
X2172126Y969388D1*
X2183937Y969370D1*
Y888669D1*
X2239298Y888661D1*
X2239290Y911724D1*
X2221570Y911732D1*
Y1001260D1*
X2301255D1*
Y911732D1*
X2283516D1*
X2283547Y688286D1*
X2301264Y688268D1*
Y598740D1*
X2221579D1*
Y688268D1*
X2239319D1*
X2239295Y844407D1*
X2183934Y844409D1*
X2183937Y830630D1*
X2116063D1*
Y874760D1*
X2109000Y881812D1*
X1997303Y881795D1*
X1994193Y878685D1*
X1990635Y876100D1*
X1986715Y874102D1*
X1982531Y872743D1*
X1978188Y872055D1*
X1973789D1*
X1969445Y872743D1*
X1965261Y874102D1*
X1961341Y876100D1*
X1957783Y878685D1*
X1954673Y881795D1*
X1952088Y885353D1*
X1950091Y889273D1*
X1948731Y893457D1*
X1948043Y897801D1*
Y902199D1*
X1948731Y906543D1*
X1950091Y910727D1*
X1952088Y914647D1*
X1954673Y918205D1*
X1957783Y921315D1*
X1961341Y923900D1*
X1965261Y925898D1*
X1969445Y927257D1*
X1973789Y927945D1*
X1978188D1*
X1982531Y927257D1*
X1986715Y925898D1*
X1990635Y923900D1*
X1994193Y921315D1*
X1997331Y918171D1*
X2116075Y918189D1*
X2116063Y969370D1*
X2127898D1*
X2127874Y1060549D1*
X1672092Y1060551D1*
X1672126Y969388D1*
X1683937Y969370D1*
Y918181D1*
X1702693Y918205D1*
X1705803Y921315D1*
X1709361Y923900D1*
X1713281Y925898D1*
X1717465Y927257D1*
X1721577Y927917D1*
X1721570Y1001260D1*
X1801255D1*
Y911732D1*
X1783516D1*
X1783547Y688286D1*
X1801264Y688268D1*
Y613642D1*
X2039839Y613661D1*
X2041861Y616870D1*
X2044718Y620215D1*
X2048063Y623072D1*
X2051814Y625370D1*
X2055877Y627054D1*
X2060155Y628080D1*
X2064539Y628425D1*
X2068924Y628080D1*
X2073202Y627054D1*
X2077265Y625370D1*
X2081016Y623072D1*
X2084361Y620215D1*
X2087218Y616870D1*
X2089516Y613119D1*
X2091199Y609056D1*
X2092226Y604778D1*
X2092571Y600394D1*
X2092226Y596009D1*
X2091551Y592982D1*
X2500000Y592992D1*
X2503461Y592719D1*
X2506837Y591909D1*
X2510045Y590580D1*
X2513005Y588766D1*
X2515646Y586512D1*
X2632781Y469377D1*
X2683937Y469370D1*
Y388669D1*
X2739298Y388661D1*
X2739290Y411724D1*
X2721570Y411732D1*
Y501260D1*
X2801255D1*
Y411732D1*
X2783514D1*
X2783547Y188286D1*
X2801264Y188268D1*
Y98740D1*
X2721579D1*
Y188268D1*
X2739319D1*
X2739295Y344407D1*
X2683934Y344409D1*
X2683937Y330630D1*
X2616063D1*
Y348370D1*
X2566201Y348331D1*
X2563091Y345220D1*
X2559533Y342635D1*
X2555613Y340638D1*
X2551429Y339278D1*
X2547085Y338591D1*
X2542686D1*
X2538343Y339278D1*
X2534159Y340638D1*
X2530239Y342635D1*
X2526681Y345220D1*
X2523571Y348331D1*
X2520986Y351888D1*
X2518988Y355808D1*
X2517629Y359992D1*
X2516941Y364336D1*
Y368735D1*
X2517629Y373079D1*
X2518988Y377262D1*
X2520986Y381182D1*
X2523571Y384740D1*
X2526681Y387850D1*
X2530239Y390436D1*
X2534159Y392433D1*
X2538343Y393793D1*
X2542686Y394480D1*
X2547085D1*
X2551429Y393793D1*
X2555613Y392433D1*
X2559533Y390436D1*
X2563091Y387850D1*
X2566228Y384706D1*
X2616052Y384724D1*
X2616063Y423510D1*
X2490822Y548755D1*
X2172129Y548740D1*
X2172126Y469388D1*
X2183937Y469370D1*
Y388669D1*
X2239298Y388661D1*
X2239290Y411724D1*
X2221570Y411732D1*
Y501260D1*
X2301255D1*
Y411732D1*
X2283516D1*
X2283547Y188286D1*
X2301264Y188268D1*
Y98740D1*
X2221579D1*
Y188268D1*
X2239319D1*
X2239295Y344407D1*
X2183934Y344409D1*
X2183937Y330630D1*
X2116063D1*
Y348369D1*
X2085854Y348331D1*
X2082744Y345220D1*
X2079186Y342635D1*
X2075266Y340638D1*
X2071083Y339278D1*
X2066739Y338591D1*
X2062340D1*
X2057996Y339278D1*
X2053812Y340638D1*
X2049892Y342635D1*
X2046335Y345220D1*
X2043224Y348331D1*
X2040639Y351888D1*
X2038642Y355808D1*
X2037282Y359992D1*
X2036594Y364336D1*
Y368735D1*
X2037282Y373079D1*
X2038642Y377262D1*
X2040639Y381182D1*
X2043224Y384740D1*
X2046335Y387850D1*
X2049892Y390436D1*
X2053812Y392433D1*
X2057996Y393793D1*
X2062340Y394480D1*
X2066739D1*
X2071083Y393793D1*
X2075266Y392433D1*
X2079186Y390436D1*
X2082744Y387850D1*
X2085882Y384706D1*
X2116051Y384724D1*
X2116063Y469370D1*
X2127898D1*
X2127874Y548738D1*
X1672092Y548740D1*
X1672126Y469388D1*
X1683937Y469370D1*
Y388669D1*
X1739298Y388661D1*
X1739290Y411724D1*
X1721570Y411732D1*
Y501260D1*
X1801255D1*
Y411732D1*
X1783514D1*
X1783547Y188286D1*
X1801264Y188268D1*
Y98740D1*
X1721579D1*
Y188268D1*
X1739319D1*
X1739295Y344407D1*
X1683934Y344409D1*
X1683937Y330630D1*
X1616063D1*
Y348369D1*
X1576757Y348346D1*
X1573323Y344827D1*
X1569765Y342241D1*
X1565845Y340244D1*
X1561661Y338885D1*
X1557318Y338197D1*
X1552919D1*
X1548575Y338885D1*
X1544391Y340244D1*
X1540471Y342241D1*
X1536913Y344827D1*
X1533803Y347937D1*
X1531218Y351495D1*
X1529220Y355415D1*
X1527861Y359598D1*
X1527173Y363942D1*
Y368341D1*
X1527861Y372685D1*
X1529220Y376869D1*
X1531218Y380789D1*
X1533803Y384346D1*
X1536913Y387457D1*
X1540471Y390042D1*
X1544391Y392039D1*
X1548575Y393399D1*
X1552919Y394087D1*
X1557318D1*
X1561661Y393399D1*
X1565845Y392039D1*
X1569765Y390042D1*
X1573323Y387457D1*
X1576101Y384706D1*
X1616042Y384724D1*
X1616063Y469370D1*
X1627898D1*
X1627874Y548738D1*
X1172092Y548740D1*
X1172126Y469388D1*
X1183937Y469370D1*
Y393559D1*
X1186954Y394222D1*
X1191339Y394567D1*
X1195723Y394222D1*
X1200001Y393196D1*
X1204064Y391512D1*
X1207815Y389214D1*
X1211160Y386357D1*
X1212681Y384706D1*
X1239298Y384724D1*
X1239290Y411724D1*
X1221570Y411732D1*
Y501260D1*
X1301255D1*
Y411732D1*
X1283516D1*
X1283547Y188286D1*
X1301264Y188268D1*
Y98740D1*
X1221579D1*
Y188268D1*
X1239319D1*
X1239295Y348374D1*
X1212654Y348331D1*
X1209543Y345220D1*
X1205986Y342635D1*
X1202066Y340638D1*
X1197882Y339278D1*
X1193538Y338591D1*
X1189139D1*
X1184795Y339278D1*
X1183942Y339518D1*
X1183937Y330630D1*
X1116063D1*
Y469370D1*
X1127898D1*
X1127874Y548738D1*
X982516Y548808D1*
X979087Y549352D1*
X975785Y550424D1*
X972692Y552000D1*
X969882Y554042D1*
X960255Y563572D1*
X869003Y654921D1*
X866961Y657731D1*
X865385Y660824D1*
X864312Y664126D1*
X863769Y667555D1*
X863701Y681102D1*
Y2057786D1*
X632782Y2288780D1*
X630740Y2291589D1*
X629164Y2294682D1*
X628092Y2297984D1*
X627549Y2301413D1*
X627480Y2314961D1*
Y2884552D1*
X602659Y2909358D1*
X525315Y2909370D1*
Y2933014D1*
X449669Y2932992D1*
X449685Y2909370D1*
X385531D1*
X320923Y2844749D1*
X320945Y2758319D1*
X375752Y2758278D1*
X379181Y2757735D1*
X382483Y2756663D1*
X385576Y2755087D1*
X388386Y2753046D1*
X398013Y2743514D1*
X418007Y2723425D1*
X420047Y2720615D1*
X421623Y2717522D1*
X422696Y2714220D1*
X423257Y2710337D1*
X423239Y2710791D1*
X423257Y2710337D1*
X427244Y2709537D1*
Y2648521D1*
X491079Y2648513D1*
X491063Y2702441D1*
X558937D1*
Y2630630D1*
X543181D1*
X543189Y2594361D1*
X558937Y2594370D1*
Y2455630D1*
X491063D1*
Y2481121D1*
X465004Y2507171D1*
X322909Y2507155D1*
X322913Y2499669D1*
X340630Y2499685D1*
Y2400315D1*
X279245D1*
X249113Y2370261D1*
X246054Y2368038D1*
X242685Y2366322D1*
X239089Y2365154D1*
X235356Y2364562D1*
X221654Y2364488D1*
X212680D1*
X212677Y2362520D1*
X136929D1*
Y2404850D1*
X111339Y2404843D1*
Y2480591D1*
X175276D1*
Y2414638D1*
X212677Y2414646D1*
Y2412685D1*
X223500Y2412677D1*
X249133Y2438325D1*
X249134Y2499685D1*
X274717D1*
X274724Y2590466D1*
X272756Y2590482D1*
Y2610189D1*
X258150Y2610167D1*
Y2557008D1*
X91850D1*
Y2640630D1*
X230885D1*
X235983Y2645652D1*
X238542Y2647512D1*
X241361Y2648948D1*
X244787Y2650008D1*
X244369Y2649925D1*
X244787Y2650008D1*
X241341Y2651071D1*
X238522Y2652507D1*
X235963Y2654366D1*
X230870Y2659371D1*
X91850Y2659370D1*
Y2742992D1*
X258150D1*
Y2689819D1*
X272780Y2689852D1*
X272756Y2709537D1*
X276701D1*
X276761Y2855673D1*
X277304Y2859102D1*
X278377Y2862404D1*
X279953Y2865497D1*
X281995Y2868307D1*
X291525Y2877934D1*
X350329Y2936739D1*
X350315Y3000866D1*
X449685D1*
Y2977220D1*
X525331Y2977244D1*
X525315Y3000866D1*
X552882D1*
X552942Y3064236D1*
X553486Y3067665D1*
X554558Y3070967D1*
X556134Y3074060D1*
X558176Y3076870D1*
X567706Y3086497D1*
X642953Y3161744D1*
X638879Y3163079D1*
X634959Y3165076D1*
X631402Y3167661D1*
X628291Y3170772D1*
X625706Y3174329D1*
X623709Y3178249D1*
X622349Y3182433D1*
X621661Y3186777D1*
Y3191176D1*
X622349Y3195520D1*
X623709Y3199703D1*
X625706Y3203623D1*
X627072Y3205635D1*
X616063Y3205630D1*
Y3279871D1*
X504600Y3279843D1*
X504606Y3223346D1*
X401299D1*
Y3326654D1*
X504606D1*
Y3320125D1*
X616063Y3320157D1*
Y3344370D1*
X683937D1*
Y3205630D1*
X672150D1*
X674583Y3201702D1*
X676266Y3197639D1*
X676837Y3195612D1*
X800427Y3319218D1*
X796360Y3320559D1*
X792440Y3322556D1*
X788882Y3325142D1*
X785772Y3328252D1*
X783186Y3331810D1*
X781189Y3335730D1*
X779829Y3339913D1*
X779142Y3344257D1*
Y3348656D1*
X779829Y3353000D1*
X781189Y3357184D1*
X783186Y3361104D1*
X785772Y3364661D1*
X788882Y3367772D1*
X792440Y3370357D1*
X796360Y3372354D1*
X800543Y3373714D1*
X804887Y3374402D1*
X806614Y3374470D1*
X834412Y3402289D1*
X752283Y3402283D1*
Y3497717D1*
X847717D1*
Y3415570D1*
X858521Y3426398D1*
X855916Y3431740D1*
X853602Y3438861D1*
X852430Y3446256D1*
Y3453744D1*
X853602Y3461139D1*
X855916Y3468260D1*
X859315Y3474932D1*
X863717Y3480990D1*
X869010Y3486283D1*
X875068Y3490685D1*
X881740Y3494084D1*
X888861Y3496398D1*
X896256Y3497570D1*
X903744D1*
X911139Y3496398D1*
X918260Y3494084D1*
X924932Y3490685D1*
X930990Y3486283D1*
X936283Y3480990D1*
X940685Y3474932D1*
X944084Y3468260D1*
X946398Y3461139D1*
X947570Y3453744D1*
Y3446256D1*
X946398Y3438861D1*
X944084Y3431740D1*
X940685Y3425068D1*
X936283Y3419010D1*
X930990Y3413717D1*
X924932Y3409315D1*
X918260Y3405916D1*
X911139Y3403602D1*
X903744Y3402430D1*
X896256D1*
X892091Y3402959D1*
X873713Y3384576D1*
X957677Y3384626D1*
X977908D1*
X977874Y3407738D1*
X971953Y3411396D1*
X966260Y3416260D1*
X961396Y3421953D1*
X957484Y3428337D1*
X954619Y3435255D1*
X952871Y3442535D1*
X952283Y3450000D1*
X952871Y3457465D1*
X954619Y3464745D1*
X957484Y3471663D1*
X961396Y3478047D1*
X966260Y3483740D1*
X971953Y3488604D1*
X978337Y3492516D1*
X985255Y3495381D1*
X992535Y3497129D1*
X1000000Y3497717D1*
X1007465Y3497129D1*
X1014745Y3495381D1*
X1021663Y3492516D1*
X1028047Y3488604D1*
X1033740Y3483740D1*
X1038604Y3478047D1*
X1042516Y3471663D1*
X1045381Y3464745D1*
X1047129Y3457465D1*
X1047717Y3450000D1*
X1047129Y3442535D1*
X1045381Y3435255D1*
X1042516Y3428337D1*
X1038604Y3421953D1*
X1033740Y3416260D1*
X1028047Y3411396D1*
X1022110Y3407735D1*
X1022126Y3384601D1*
X1213406Y3384626D1*
X1209934Y3388046D1*
X1207349Y3391604D1*
X1205352Y3395524D1*
X1203992Y3399707D1*
X1203499Y3402403D1*
X1196256Y3402430D1*
X1188861Y3403602D1*
X1181740Y3405916D1*
X1175068Y3409315D1*
X1169010Y3413717D1*
X1163717Y3419010D1*
X1159315Y3425068D1*
X1155916Y3431740D1*
X1153602Y3438861D1*
X1152430Y3446256D1*
Y3453744D1*
X1153602Y3461139D1*
X1155916Y3468260D1*
X1159315Y3474932D1*
X1163717Y3480990D1*
X1169010Y3486283D1*
X1175068Y3490685D1*
X1181740Y3494084D1*
X1188861Y3496398D1*
X1196256Y3497570D1*
X1203744D1*
X1211139Y3496398D1*
X1218260Y3494084D1*
X1224932Y3490685D1*
X1230990Y3486283D1*
X1236283Y3480990D1*
X1240685Y3474932D1*
X1244084Y3468260D1*
X1246398Y3461139D1*
X1247570Y3453744D1*
Y3446256D1*
X1246398Y3438861D1*
X1244084Y3431740D1*
X1243975Y3431227D1*
X1247726Y3428929D1*
X1251071Y3426072D1*
X1253928Y3422727D1*
X1256226Y3418976D1*
X1257909Y3414913D1*
X1258936Y3410635D1*
X1259281Y3406251D1*
X1258936Y3401866D1*
X1257909Y3397588D1*
X1256226Y3393525D1*
X1253928Y3389774D1*
X1251071Y3386429D1*
X1249042Y3384610D1*
X1815861Y3384626D1*
X1858209Y3427000D1*
X1855916Y3431740D1*
X1853602Y3438861D1*
X1852430Y3446256D1*
Y3453744D1*
X1853602Y3461139D1*
X1855916Y3468260D1*
X1859315Y3474932D1*
X1863717Y3480990D1*
X1869010Y3486283D1*
X1875068Y3490685D1*
X1881740Y3494084D1*
X1888861Y3496398D1*
X1896256Y3497570D1*
X1903744D1*
X1911139Y3496398D1*
X1918260Y3494084D1*
X1924932Y3490685D1*
X1930990Y3486283D1*
X1936283Y3480990D1*
X1940685Y3474932D1*
X1944084Y3468260D1*
X1946398Y3461139D1*
X1947570Y3453744D1*
Y3446256D1*
X1946398Y3438861D1*
X1944084Y3431740D1*
X1940685Y3425068D1*
X1936283Y3419010D1*
X1930990Y3413717D1*
X1924932Y3409315D1*
X1918260Y3405916D1*
X1911139Y3403602D1*
X1903744Y3402430D1*
X1896256D1*
X1840646Y3346854D1*
X1838005Y3344600D1*
X1835045Y3342786D1*
X1831837Y3341457D1*
X1828461Y3340647D1*
X1825000Y3340374D1*
X1327945D1*
X1331543Y3339757D1*
X1335727Y3338398D1*
X1339647Y3336400D1*
X1343205Y3333815D1*
X1346315Y3330705D1*
X1348900Y3327147D1*
X1350898Y3323227D1*
X1352257Y3319043D1*
X1352945Y3314699D1*
Y3310301D1*
X1352257Y3305957D1*
X1350898Y3301773D1*
X1348900Y3297853D1*
X1346315Y3294295D1*
X1345142Y3293026D1*
X1345096Y3148419D1*
X1344601Y3145294D1*
X1343623Y3142286D1*
X1342188Y3139467D1*
X1340328Y3136908D1*
X1326726Y3123219D1*
X1301264Y3097756D1*
X1301260Y3046579D1*
X1211732D1*
Y3066256D1*
X992146Y3066255D1*
X1000171Y3058165D1*
X1002030Y3055606D1*
X1003466Y3052787D1*
X1004444Y3049780D1*
X1004938Y3046655D1*
X1005000Y3027357D1*
X1005038Y3023900D1*
X1008958Y3025898D1*
X1013142Y3027257D1*
X1017486Y3027945D1*
X1021885D1*
X1026228Y3027257D1*
X1030412Y3025898D1*
X1034332Y3023900D1*
X1037890Y3021315D1*
X1041000Y3018205D1*
X1042539Y3016213D1*
X1188331Y3016236D1*
X1191441Y3019346D1*
X1194999Y3021932D1*
X1198919Y3023929D1*
X1203102Y3025289D1*
X1207446Y3025976D1*
X1211845D1*
X1216189Y3025289D1*
X1220373Y3023929D1*
X1224293Y3021932D1*
X1227850Y3019346D1*
X1230961Y3016236D1*
X1233546Y3012678D1*
X1235543Y3008759D1*
X1236903Y3004575D1*
X1237591Y3000231D1*
Y2995832D1*
X1236903Y2991488D1*
X1235543Y2987304D1*
X1233546Y2983385D1*
X1230961Y2979827D1*
X1227850Y2976717D1*
X1224293Y2974131D1*
X1220373Y2972134D1*
X1216189Y2970774D1*
X1211845Y2970087D1*
X1207446D1*
X1203102Y2970774D1*
X1198919Y2972134D1*
X1194999Y2974131D1*
X1191441Y2976717D1*
X1188303Y2979861D1*
X1039147Y2979843D1*
X1036161Y2977322D1*
X1032411Y2975024D1*
X1028348Y2973340D1*
X1024070Y2972314D1*
X1019685Y2971969D1*
X1015301Y2972314D1*
X1012869Y2972820D1*
X1012529Y2968056D1*
X1011503Y2963778D1*
X1009764Y2959617D1*
X1049143Y2959626D1*
X1049134Y2974685D1*
X1140630D1*
Y2906379D1*
X1252661Y2794378D1*
X1183925Y1402441D2*
X1183937Y1388669D1*
X1239298Y1388661D1*
X1239286Y1411727D1*
X1221570Y1411732D1*
Y1501260D1*
X1301255D1*
Y1411732D1*
X1283516D1*
X1283546Y1188287D1*
X1301264Y1188268D1*
Y1104783D1*
X1721581Y1104803D1*
X1721579Y1188268D1*
X1739319D1*
X1739295Y1348374D1*
X1683948Y1348346D1*
X1683937Y1330630D1*
X1616063D1*
Y1469370D1*
X1627898D1*
X1627874Y1552705D1*
X1172112Y1552677D1*
X1172126Y1469357D1*
X1183937Y1469370D1*
X1183913Y1397559D1*
X2183937Y1344424D2*
Y1330630D1*
X2116063D1*
Y1348369D1*
X1989429Y1348331D1*
X1986319Y1345220D1*
X1982761Y1342635D1*
X1978841Y1340638D1*
X1974657Y1339278D1*
X1970314Y1338591D1*
X1965915D1*
X1961571Y1339278D1*
X1957387Y1340638D1*
X1953467Y1342635D1*
X1949909Y1345220D1*
X1946799Y1348331D1*
X1944214Y1351888D1*
X1942217Y1355808D1*
X1940857Y1359992D1*
X1940169Y1364336D1*
Y1368735D1*
X1940857Y1373079D1*
X1942217Y1377262D1*
X1944214Y1381182D1*
X1946799Y1384740D1*
X1949909Y1387850D1*
X1953467Y1390436D1*
X1957387Y1392433D1*
X1961571Y1393793D1*
X1965915Y1394480D1*
X1970314D1*
X1974657Y1393793D1*
X1978841Y1392433D1*
X1982761Y1390436D1*
X1986319Y1387850D1*
X1989457Y1384706D1*
X2116052Y1384724D1*
X2116063Y1469370D1*
X2127898D1*
X2127874Y1552705D1*
X1820007Y1552677D1*
X1820993Y1548479D1*
X1821339Y1544094D1*
X1820993Y1539710D1*
X1819967Y1535432D1*
X1818283Y1531369D1*
X1815986Y1527618D1*
X1813129Y1524273D1*
X1809783Y1521416D1*
X1806033Y1519118D1*
X1801970Y1517434D1*
X1797692Y1516408D1*
X1793307Y1516063D1*
X1791066Y1516155D1*
X1779597Y1504661D1*
X1780625Y1501260D1*
X1801255D1*
Y1411732D1*
X1783514D1*
X1783547Y1188252D1*
X1801264Y1188268D1*
Y1104783D1*
X2221581Y1104803D1*
X2221579Y1188268D1*
X2239319D1*
X2239295Y1344407D1*
X2183934Y1344409D1*
X1183937Y844424D2*
Y830630D1*
X1116063D1*
Y848369D1*
X1111866Y848331D1*
X1108756Y845220D1*
X1105198Y842635D1*
X1101278Y840638D1*
X1097094Y839278D1*
X1092751Y838591D1*
X1088352D1*
X1084008Y839278D1*
X1079824Y840638D1*
X1075904Y842635D1*
X1072346Y845220D1*
X1069236Y848331D1*
X1066651Y851888D1*
X1064654Y855808D1*
X1063294Y859992D1*
X1062606Y864336D1*
Y868735D1*
X1063294Y873079D1*
X1064531Y876932D1*
X1059844Y874915D1*
X1055566Y873888D1*
X1051181Y873543D1*
X1046797Y873888D1*
X1042518Y874915D1*
X1038455Y876598D1*
X1034705Y878896D1*
X1031360Y881753D1*
X1028503Y885098D1*
X1026205Y888849D1*
X1024521Y892912D1*
X1023495Y897190D1*
X1023150Y901575D1*
X1023495Y905959D1*
X1024521Y910238D1*
X1026205Y914301D1*
X1028503Y918051D1*
X1031360Y921396D1*
X1034705Y924253D1*
X1038455Y926551D1*
X1042518Y928235D1*
X1046797Y929261D1*
X1051181Y929606D1*
X1055566Y929261D1*
X1059844Y928235D1*
X1063907Y926551D1*
X1067657Y924253D1*
X1071003Y921396D1*
X1073759Y918180D1*
X1116072Y918189D1*
X1116063Y969370D1*
X1127898D1*
X1127874Y1060549D1*
X907944Y1060551D1*
X907953Y678450D1*
X993423Y592987D1*
X1494619Y592992D1*
X1493967Y596009D1*
X1493622Y600394D1*
X1493967Y604778D1*
X1494993Y609056D1*
X1496677Y613119D1*
X1498975Y616870D1*
X1501832Y620215D1*
X1505177Y623072D1*
X1508928Y625370D1*
X1512991Y627054D1*
X1517269Y628080D1*
X1521654Y628425D1*
X1526038Y628080D1*
X1530316Y627054D1*
X1534379Y625370D1*
X1538130Y623072D1*
X1541475Y620215D1*
X1544332Y616870D1*
X1546332Y613652D1*
X1721588Y613661D1*
X1721579Y688268D1*
X1739319D1*
X1739295Y844407D1*
X1683934Y844409D1*
X1683937Y830630D1*
X1616063D1*
Y848369D1*
X1514484Y848331D1*
X1511374Y845220D1*
X1507816Y842635D1*
X1503896Y840638D1*
X1499713Y839278D1*
X1495369Y838591D1*
X1490970D1*
X1486626Y839278D1*
X1482442Y840638D1*
X1478522Y842635D1*
X1474965Y845220D1*
X1471854Y848331D1*
X1469269Y851888D1*
X1467272Y855808D1*
X1465912Y859992D1*
X1465224Y864336D1*
Y868735D1*
X1465713Y872076D1*
X1461571Y872743D1*
X1457387Y874102D1*
X1453467Y876100D1*
X1449909Y878685D1*
X1446799Y881795D1*
X1444214Y885353D1*
X1442217Y889273D1*
X1440857Y893457D1*
X1440169Y897801D1*
Y902199D1*
X1440857Y906543D1*
X1442217Y910727D1*
X1444214Y914647D1*
X1446799Y918205D1*
X1449909Y921315D1*
X1453467Y923900D1*
X1457387Y925898D1*
X1461571Y927257D1*
X1465915Y927945D1*
X1470314D1*
X1474657Y927257D1*
X1478841Y925898D1*
X1482761Y923900D1*
X1486319Y921315D1*
X1489457Y918171D1*
X1616052Y918189D1*
X1616063Y969370D1*
X1627898D1*
X1627874Y1060549D1*
X1172092Y1060551D1*
X1172126Y969388D1*
X1183937Y969370D1*
Y918181D1*
X1186945Y918205D1*
X1190055Y921315D1*
X1193613Y923900D1*
X1197533Y925898D1*
X1201717Y927257D1*
X1206060Y927945D1*
X1210459D1*
X1214803Y927257D1*
X1218987Y925898D1*
X1221563Y924652D1*
X1221570Y1000510D1*
X1218434Y998646D1*
X1214371Y996962D1*
X1210093Y995936D1*
X1205709Y995591D1*
X1201324Y995936D1*
X1197046Y996962D1*
X1192983Y998646D1*
X1189232Y1000944D1*
X1185887Y1003801D1*
X1183030Y1007146D1*
X1180732Y1010896D1*
X1179049Y1014959D1*
X1178022Y1019238D1*
X1177677Y1023622D1*
X1178022Y1028007D1*
X1179049Y1032285D1*
X1180732Y1036348D1*
X1183030Y1040098D1*
X1185887Y1043444D1*
X1189232Y1046301D1*
X1192983Y1048598D1*
X1197046Y1050282D1*
X1201324Y1051308D1*
X1205709Y1051654D1*
X1210093Y1051308D1*
X1214371Y1050282D1*
X1218434Y1048598D1*
X1222185Y1046301D1*
X1225530Y1043444D1*
X1227051Y1041793D1*
X1533803Y1041827D1*
X1536913Y1044937D1*
X1540471Y1047522D1*
X1544391Y1049520D1*
X1548575Y1050879D1*
X1552919Y1051567D1*
X1557318D1*
X1561661Y1050879D1*
X1565845Y1049520D1*
X1569765Y1047522D1*
X1573323Y1044937D1*
X1576433Y1041827D1*
X1579018Y1038269D1*
X1581016Y1034349D1*
X1582375Y1030165D1*
X1583063Y1025822D1*
Y1021423D1*
X1582375Y1017079D1*
X1581016Y1012895D1*
X1579018Y1008975D1*
X1576433Y1005417D1*
X1573323Y1002307D1*
X1569765Y999722D1*
X1565845Y997724D1*
X1561661Y996365D1*
X1557318Y995677D1*
X1552919D1*
X1548575Y996365D1*
X1544391Y997724D1*
X1540471Y999722D1*
X1536913Y1002307D1*
X1533776Y1005451D1*
X1227024Y1005417D1*
X1223913Y1002307D1*
X1222584Y1001259D1*
X1301255Y1001260D1*
Y952609D1*
X1304273Y953277D1*
X1308657Y953622D1*
X1313042Y953277D1*
X1317320Y952251D1*
X1321383Y950567D1*
X1325134Y948269D1*
X1328479Y945412D1*
X1331336Y942067D1*
X1333634Y938316D1*
X1335318Y934253D1*
X1336344Y929975D1*
X1336689Y925591D1*
X1336344Y921206D1*
X1335318Y916928D1*
X1333634Y912865D1*
X1331336Y909114D1*
X1328479Y905769D1*
X1326828Y904248D1*
X1326862Y887850D1*
X1329972Y884740D1*
X1332558Y881182D1*
X1334555Y877262D1*
X1335915Y873079D1*
X1336602Y868735D1*
Y864336D1*
X1335915Y859992D1*
X1334555Y855808D1*
X1332558Y851888D1*
X1329972Y848331D1*
X1326862Y845220D1*
X1323304Y842635D1*
X1319385Y840638D1*
X1315201Y839278D1*
X1310857Y838591D1*
X1306458D1*
X1302114Y839278D1*
X1297930Y840638D1*
X1294010Y842635D1*
X1290453Y845220D1*
X1287343Y848331D1*
X1284757Y851888D1*
X1283534Y854130D1*
X1283547Y688286D1*
X1301264Y688268D1*
Y598740D1*
X1221579D1*
Y688268D1*
X1239319D1*
X1239295Y844407D1*
X1183934Y844409D1*
X671715Y2702441D2*
X715268D1*
X715276Y2766480D1*
X681333Y2800398D1*
X676934D1*
X672591Y2801085D1*
X671722Y2801331D1*
X671732Y2702441D1*
X496969Y2594370D2*
X506819D1*
X506811Y2612144D1*
X427259Y2612135D1*
X427244Y2590472D1*
X375118D1*
Y2703848D1*
X364836Y2714109D1*
X320936Y2714094D1*
X320945Y2709547D1*
X324882Y2709537D1*
Y2590482D1*
X322921D1*
X322913Y2555337D1*
X476891Y2555270D1*
X480625Y2554678D1*
X484220Y2553510D1*
X487589Y2551794D1*
X490969Y2549276D1*
X490648Y2549571D1*
X490969Y2549276D1*
X491063Y2569803D1*
Y2594370D1*
X496969D1*
X135552Y2241417D2*
X216614D1*
Y2181417D1*
X175253D1*
X175276Y2119409D1*
X111339D1*
Y2195157D1*
X133000D1*
X132992Y2227669D1*
X130324Y2222362D1*
X127043Y2217848D1*
X123097Y2213902D1*
X118583Y2210621D1*
X113610Y2208088D1*
X108302Y2206364D1*
X102790Y2205491D1*
X97210D1*
X91698Y2206364D1*
X86390Y2208088D1*
X81417Y2210621D1*
X76903Y2213902D1*
X72957Y2217848D1*
X69676Y2222362D1*
X67143Y2227335D1*
X65419Y2232643D1*
X64546Y2238155D1*
Y2243735D1*
X65419Y2249247D1*
X67143Y2254555D1*
X69676Y2259528D1*
X72957Y2264042D1*
X76903Y2267988D1*
X81417Y2271269D1*
X86390Y2273802D1*
X91698Y2275526D1*
X97210Y2276399D1*
X102790D1*
X108302Y2275526D1*
X113610Y2273802D1*
X118583Y2271269D1*
X123097Y2267988D1*
X127043Y2264042D1*
X130324Y2259528D1*
X132857Y2254555D1*
X134581Y2249247D1*
X135454Y2243735D1*
X135546Y2241413D1*
X31899Y2195157D2*
X88661D1*
Y2119409D1*
X31890D1*
Y31890D1*
X3068110D1*
Y3568110D1*
X31890D1*
Y2480596D1*
X88661Y2480591D1*
Y2404843D1*
X31890Y2404724D1*
Y2195148D1*
X135454Y2356265D2*
X134581Y2350753D1*
X132857Y2345445D1*
X130324Y2340472D1*
X127043Y2335958D1*
X123097Y2332012D1*
X118583Y2328731D1*
X113610Y2326198D1*
X108302Y2324474D1*
X102790Y2323601D1*
X97210D1*
X91698Y2324474D1*
X86390Y2326198D1*
X81417Y2328731D1*
X76903Y2332012D1*
X72957Y2335958D1*
X69676Y2340472D1*
X67143Y2345445D1*
X65419Y2350753D1*
X64546Y2356265D1*
Y2361845D1*
X65419Y2367357D1*
X67143Y2372665D1*
X69676Y2377638D1*
X72957Y2382152D1*
X76903Y2386098D1*
X81417Y2389379D1*
X86390Y2391912D1*
X91698Y2393636D1*
X97210Y2394509D1*
X102790D1*
X108302Y2393636D1*
X113610Y2391912D1*
X118583Y2389379D1*
X123097Y2386098D1*
X127043Y2382152D1*
X130324Y2377638D1*
X132857Y2372665D1*
X134581Y2367357D1*
X135454Y2361845D1*
Y2356265D1*
X2532866Y2512564D2*
X2532178Y2508220D1*
X2530819Y2504037D1*
X2528822Y2500117D1*
X2526236Y2496559D1*
X2523126Y2493449D1*
X2519568Y2490864D1*
X2515648Y2488866D1*
X2511465Y2487507D1*
X2507121Y2486819D1*
X2502722D1*
X2498378Y2487507D1*
X2494194Y2488866D1*
X2490274Y2490864D1*
X2486717Y2493449D1*
X2483579Y2496593D1*
X1758520Y2496559D1*
X1755409Y2493449D1*
X1751852Y2490864D1*
X1747932Y2488866D1*
X1743748Y2487507D1*
X1739404Y2486819D1*
X1735005D1*
X1730661Y2487507D1*
X1726478Y2488866D1*
X1722558Y2490864D1*
X1719000Y2493449D1*
X1715890Y2496559D1*
X1713304Y2500117D1*
X1711307Y2504037D1*
X1709948Y2508220D1*
X1709260Y2512564D1*
Y2516963D1*
X1709948Y2521307D1*
X1711307Y2525491D1*
X1713304Y2529411D1*
X1715890Y2532969D1*
X1719000Y2536079D1*
X1722558Y2538664D1*
X1726478Y2540661D1*
X1730661Y2542021D1*
X1735005Y2542709D1*
X1739404D1*
X1743748Y2542021D1*
X1747932Y2540661D1*
X1751852Y2538664D1*
X1755409Y2536079D1*
X1758547Y2532934D1*
X2483606Y2532969D1*
X2486717Y2536079D1*
X2490274Y2538664D1*
X2494194Y2540661D1*
X2498378Y2542021D1*
X2502722Y2542709D1*
X2507121D1*
X2511465Y2542021D1*
X2515648Y2540661D1*
X2519568Y2538664D1*
X2523126Y2536079D1*
X2526236Y2532969D1*
X2528822Y2529411D1*
X2530819Y2525491D1*
X2532178Y2521307D1*
X2532866Y2516963D1*
Y2512564D1*
X1601661Y2440491D2*
X1598524Y2437346D1*
X1594966Y2434761D1*
X1591046Y2432764D1*
X1586862Y2431404D1*
X1582518Y2430717D1*
X1578119D1*
X1573776Y2431404D1*
X1569592Y2432764D1*
X1565672Y2434761D1*
X1562114Y2437346D1*
X1559004Y2440457D1*
X1556419Y2444014D1*
X1554421Y2447934D1*
X1553062Y2452118D1*
X1552374Y2456462D1*
Y2460861D1*
X1553062Y2465205D1*
X1554421Y2469388D1*
X1556419Y2473308D1*
X1559004Y2476866D1*
X1562114Y2479976D1*
X1565672Y2482562D1*
X1569592Y2484559D1*
X1573776Y2485919D1*
X1578119Y2486606D1*
X1582518D1*
X1586862Y2485919D1*
X1591046Y2484559D1*
X1594966Y2482562D1*
X1598524Y2479976D1*
X1601661Y2476832D1*
X2574752Y2476866D1*
X2577862Y2479976D1*
X2581420Y2482562D1*
X2585340Y2484559D1*
X2589524Y2485919D1*
X2593867Y2486606D1*
X2598266D1*
X2602610Y2485919D1*
X2606794Y2484559D1*
X2610714Y2482562D1*
X2614272Y2479976D1*
X2617382Y2476866D1*
X2619967Y2473308D1*
X2621965Y2469388D1*
X2623324Y2465205D1*
X2624012Y2460861D1*
Y2456462D1*
X2623324Y2452118D1*
X2621965Y2447934D1*
X2619967Y2444014D1*
X2617382Y2440457D1*
X2614272Y2437346D1*
X2610714Y2434761D1*
X2606794Y2432764D1*
X2602610Y2431404D1*
X2598266Y2430717D1*
X2593867D1*
X2589524Y2431404D1*
X2585340Y2432764D1*
X2581420Y2434761D1*
X2577862Y2437346D1*
X2574724Y2440491D1*
X1601657Y2440472D1*
X1669398Y2383403D2*
X1666269Y2381520D1*
X1662206Y2379836D1*
X1657928Y2378810D1*
X1653543Y2378465D1*
X1649159Y2378810D1*
X1644881Y2379836D1*
X1640818Y2381520D1*
X1637067Y2383818D1*
X1633722Y2386675D1*
X1630865Y2390020D1*
X1628567Y2393770D1*
X1626883Y2397833D1*
X1625857Y2402112D1*
X1625512Y2406496D1*
X1625857Y2410881D1*
X1626883Y2415159D1*
X1628567Y2419222D1*
X1630865Y2422972D1*
X1633722Y2426318D1*
X1637067Y2429175D1*
X1640818Y2431472D1*
X1644881Y2433156D1*
X1649159Y2434182D1*
X1653543Y2434528D1*
X1657928Y2434182D1*
X1662206Y2433156D1*
X1666269Y2431472D1*
X1670020Y2429175D1*
X1673365Y2426318D1*
X1676222Y2422972D1*
X1678222Y2419755D1*
X2522976Y2419780D1*
X2526087Y2422890D1*
X2529644Y2425475D1*
X2533564Y2427472D1*
X2537748Y2428832D1*
X2542092Y2429520D1*
X2546491D1*
X2550835Y2428832D1*
X2555018Y2427472D1*
X2558938Y2425475D1*
X2562496Y2422890D1*
X2565606Y2419780D1*
X2568192Y2416222D1*
X2570189Y2412302D1*
X2571549Y2408118D1*
X2572236Y2403774D1*
Y2399375D1*
X2571549Y2395031D1*
X2570189Y2390848D1*
X2568192Y2386928D1*
X2565606Y2383370D1*
X2562496Y2380260D1*
X2558938Y2377675D1*
X2555018Y2375677D1*
X2550835Y2374318D1*
X2546491Y2373630D1*
X2542092D1*
X2537748Y2374318D1*
X2533564Y2375677D1*
X2529644Y2377675D1*
X2526087Y2380260D1*
X2522949Y2383404D1*
X1669423Y2383386D1*
X1031344Y2386352D2*
X1027850Y2386587D1*
X1024774Y2387325D1*
X1021853Y2388535D1*
X1019156Y2390188D1*
X1016751Y2392243D1*
X1008885Y2400196D1*
X1007025Y2402755D1*
X1005589Y2405573D1*
X1004612Y2408581D1*
X1004117Y2411706D1*
X1004055Y2413287D1*
D17*
X500000Y2200000D3*
D18*
X600000D3*
D19*
X800000Y3141535D3*
Y3208465D3*
X700000Y2491535D3*
Y2558465D3*
D20*
X841535Y2900000D3*
X908465D3*
D19*
X1250000Y2758465D3*
Y2691535D3*
D21*
X1094882Y2925000D3*
X1205118D3*
D19*
X1175000Y2433465D3*
Y2366535D3*
X1275000Y2433465D3*
Y2366535D3*
X1100000Y2333465D3*
Y2266535D3*
X800000D3*
Y2333465D3*
D21*
X294882Y2450000D3*
X405118D3*
D22*
X400000Y2955118D3*
Y2844882D3*
X575000Y2955118D3*
Y2844882D3*
D19*
X525000Y2666535D3*
Y2733465D3*
D17*
X1800000Y3450000D3*
D18*
X1900000D3*
X2000000D3*
X2100000D3*
X2200000D3*
X2300000D3*
X2400000D3*
D17*
X800000D3*
D18*
X900000D3*
X1000000D3*
X1100000D3*
X1200000D3*
D23*
X175000Y2598819D3*
Y2701181D3*
D24*
X452953Y3275000D3*
D25*
X197047D3*
D19*
X1150000Y1866535D3*
Y1933465D3*
X1650000Y1866535D3*
Y1933465D3*
X2150000Y1866535D3*
Y1933465D3*
X1150000Y1366535D3*
Y1433465D3*
X1650000Y1366535D3*
Y1433465D3*
X2150000Y1366535D3*
Y1433465D3*
X1150000Y866535D3*
Y933465D3*
X1650000Y866535D3*
Y933465D3*
X2150000Y866535D3*
Y933465D3*
X1150000Y366535D3*
Y433465D3*
X2150000Y366535D3*
Y433465D3*
X2650000Y1866535D3*
Y1933465D3*
Y1366535D3*
Y1433465D3*
Y866535D3*
Y933465D3*
Y366535D3*
Y433465D3*
X1650000Y366535D3*
Y433465D3*
X700000Y2733465D3*
Y2666535D3*
X650000Y3241535D3*
Y3308465D3*
X525000Y2491535D3*
Y2558465D3*
D27*
X1438587Y1956496D3*
X1261412D3*
X1261421Y1643504D3*
X1438577D3*
X1938587Y1956496D3*
X1761412D3*
X1761421Y1643504D3*
X1938577D3*
X2438587Y1956496D3*
X2261412D3*
X2261421Y1643504D3*
X2438577D3*
X1438587Y1456496D3*
X1261412D3*
X1261421Y1143504D3*
X1438577D3*
X1938587Y1456496D3*
X1761412D3*
X1761421Y1143504D3*
X1938577D3*
X2438587Y1456496D3*
X2261412D3*
X2261421Y1143504D3*
X2438577D3*
X1438587Y956496D3*
X1261412D3*
X1261421Y643504D3*
X1438577D3*
X1938587Y956496D3*
X1761412D3*
X1761421Y643504D3*
X1938577D3*
X2438587Y956496D3*
X2261412D3*
X2261421Y643504D3*
X2438577D3*
X1438587Y456496D3*
X1261412D3*
X1261421Y143504D3*
X1438577D3*
X2438587Y456496D3*
X2261412D3*
X2261421Y143504D3*
X2438577D3*
X2938587Y1956496D3*
X2761412D3*
X2761421Y1643504D3*
X2938577D3*
X2938587Y1456496D3*
X2761412D3*
X2761421Y1143504D3*
X2938577D3*
X2938587Y956496D3*
X2761412D3*
X2761421Y643504D3*
X2938577D3*
X2938587Y456496D3*
X2761412D3*
X2761421Y143504D3*
X2938577D3*
X1938587Y456496D3*
X1761412D3*
X1761421Y143504D3*
X1938577D3*
D29*
X943504Y3263587D3*
Y3086412D3*
X1256496Y3086421D3*
Y3263577D3*
D31*
X174803Y2270472D3*
Y2211417D3*
Y2388583D3*
D32*
X143307Y2442717D3*
X56693Y2157283D3*
Y2442717D3*
X143307Y2157283D3*
D34*
X866732Y2459646D3*
X886417D3*
X906102D3*
X925787D3*
X945472D3*
X965157D3*
X984843D3*
X1004528D3*
X1024213D3*
X1043898D3*
X1063583D3*
X1083268D3*
D35*
X1140354Y2516732D3*
Y2536417D3*
Y2556102D3*
Y2575787D3*
Y2595472D3*
Y2615157D3*
Y2634843D3*
Y2654528D3*
Y2674213D3*
Y2693898D3*
Y2713583D3*
Y2733268D3*
D34*
X1083268Y2790354D3*
X1063583D3*
X1043898D3*
X1024213D3*
X1004528D3*
X984843D3*
X965157D3*
X945472D3*
X925787D3*
X906102D3*
X886417D3*
X866732D3*
D35*
X809646Y2733268D3*
Y2713583D3*
Y2693898D3*
Y2674213D3*
Y2654528D3*
Y2634843D3*
Y2615157D3*
Y2595472D3*
Y2575787D3*
Y2556102D3*
Y2536417D3*
Y2516732D3*
D37*
X298819Y2689379D3*
Y2669694D3*
Y2650009D3*
Y2630324D3*
Y2610639D3*
X401181Y2610630D3*
Y2630324D3*
Y2650009D3*
Y2669694D3*
Y2689379D3*
D79*
X350000Y2650000D3*
D40*
X1022835Y2256693D3*
X877165D3*
Y2343307D3*
X1022835D3*
M02*
