G04 DipTrace Beta 3.0.9.0*
G04 TopMask.gbr*
%MOIN*%
G04 #@! TF.FileFunction,Soldermask,Top*
G04 #@! TF.Part,Single*
%AMOUTLINE1*
4,1,16,
-0.019685,0.066929,
-0.019685,0.047248,
-0.023512,0.047253,
-0.026511,0.043502,
-0.031496,0.036725,
-0.031496,-0.047244,
-0.019685,-0.047244,
-0.019685,-0.066929,
0.0,-0.066929,
0.019685,-0.066929,
0.019685,-0.047244,
0.031496,-0.047244,
0.031496,0.047244,
0.019685,0.047244,
0.019685,0.066929,
0.0,0.066929,
-0.019685,0.066929,
0*%
%ADD24R,0.074803X0.074803*%
%ADD25C,0.074803*%
%ADD43C,0.137795*%
%ADD44C,0.031496*%
%ADD47R,0.086614X0.055118*%
%ADD49R,0.031496X0.019685*%
%ADD51R,0.070866X0.019685*%
%ADD53R,0.019685X0.070866*%
%ADD55R,0.035433X0.047244*%
%ADD57R,0.055118X0.031496*%
%ADD59R,0.068898X0.059055*%
%ADD61R,0.059055X0.068898*%
%ADD63C,0.082677*%
%ADD64R,0.082677X0.082677*%
%ADD65R,0.145669X0.062992*%
%ADD67R,0.07874X0.070866*%
%ADD69R,0.070866X0.07874*%
%ADD71R,0.051181X0.047244*%
%ADD73R,0.047244X0.051181*%
%ADD80OUTLINE1*%
%FSLAX26Y26*%
G04*
G70*
G90*
G75*
G01*
G04 TopMask*
%LPD*%
D24*
X500000Y2200000D3*
D25*
X600000D3*
D43*
X550000Y1599606D3*
Y477559D3*
D73*
X800000Y3141535D3*
Y3208465D3*
X700000Y2491535D3*
Y2558465D3*
D71*
X841535Y2900000D3*
X908465D3*
D73*
X1250000Y2758465D3*
Y2691535D3*
D69*
X1094882Y2925000D3*
X1205118D3*
D73*
X1175000Y2433465D3*
Y2366535D3*
X1275000Y2433465D3*
Y2366535D3*
X1100000Y2333465D3*
Y2266535D3*
X800000D3*
Y2333465D3*
D69*
X294882Y2450000D3*
X405118D3*
D67*
X400000Y2955118D3*
Y2844882D3*
X575000Y2955118D3*
Y2844882D3*
D73*
X525000Y2666535D3*
Y2733465D3*
D24*
X1800000Y3450000D3*
D25*
X1900000D3*
X2000000D3*
X2100000D3*
X2200000D3*
X2300000D3*
X2400000D3*
D24*
X800000D3*
D25*
X900000D3*
X1000000D3*
X1100000D3*
X1200000D3*
D65*
X175000Y2598819D3*
Y2701181D3*
D64*
X452953Y3275000D3*
D63*
X197047D3*
D73*
X1150000Y1866535D3*
Y1933465D3*
X1650000Y1866535D3*
Y1933465D3*
X2150000Y1866535D3*
Y1933465D3*
X1150000Y1366535D3*
Y1433465D3*
X1650000Y1366535D3*
Y1433465D3*
X2150000Y1366535D3*
Y1433465D3*
X1150000Y866535D3*
Y933465D3*
X1650000Y866535D3*
Y933465D3*
X2150000Y866535D3*
Y933465D3*
X1150000Y366535D3*
Y433465D3*
X2150000Y366535D3*
Y433465D3*
X2650000Y1866535D3*
Y1933465D3*
Y1366535D3*
Y1433465D3*
Y866535D3*
Y933465D3*
Y366535D3*
Y433465D3*
X1650000Y366535D3*
Y433465D3*
X700000Y2733465D3*
Y2666535D3*
X650000Y3241535D3*
Y3308465D3*
X525000Y2491535D3*
Y2558465D3*
D61*
X1438587Y1956496D3*
X1261412D3*
X1261421Y1643504D3*
X1438577D3*
X1938587Y1956496D3*
X1761412D3*
X1761421Y1643504D3*
X1938577D3*
X2438587Y1956496D3*
X2261412D3*
X2261421Y1643504D3*
X2438577D3*
X1438587Y1456496D3*
X1261412D3*
X1261421Y1143504D3*
X1438577D3*
X1938587Y1456496D3*
X1761412D3*
X1761421Y1143504D3*
X1938577D3*
X2438587Y1456496D3*
X2261412D3*
X2261421Y1143504D3*
X2438577D3*
X1438587Y956496D3*
X1261412D3*
X1261421Y643504D3*
X1438577D3*
X1938587Y956496D3*
X1761412D3*
X1761421Y643504D3*
X1938577D3*
X2438587Y956496D3*
X2261412D3*
X2261421Y643504D3*
X2438577D3*
X1438587Y456496D3*
X1261412D3*
X1261421Y143504D3*
X1438577D3*
X2438587Y456496D3*
X2261412D3*
X2261421Y143504D3*
X2438577D3*
X2938587Y1956496D3*
X2761412D3*
X2761421Y1643504D3*
X2938577D3*
X2938587Y1456496D3*
X2761412D3*
X2761421Y1143504D3*
X2938577D3*
X2938587Y956496D3*
X2761412D3*
X2761421Y643504D3*
X2938577D3*
X2938587Y456496D3*
X2761412D3*
X2761421Y143504D3*
X2938577D3*
X1938587Y456496D3*
X1761412D3*
X1761421Y143504D3*
X1938577D3*
D59*
X943504Y3263587D3*
Y3086412D3*
X1256496Y3086421D3*
Y3263577D3*
D57*
X174803Y2270472D3*
Y2211417D3*
Y2388583D3*
D55*
X143307Y2442717D3*
X56693Y2157283D3*
Y2442717D3*
X143307Y2157283D3*
D44*
X100000Y2359055D3*
Y2240945D3*
D53*
X866732Y2459646D3*
X886417D3*
X906102D3*
X925787D3*
X945472D3*
X965157D3*
X984843D3*
X1004528D3*
X1024213D3*
X1043898D3*
X1063583D3*
X1083268D3*
D51*
X1140354Y2516732D3*
Y2536417D3*
Y2556102D3*
Y2575787D3*
Y2595472D3*
Y2615157D3*
Y2634843D3*
Y2654528D3*
Y2674213D3*
Y2693898D3*
Y2713583D3*
Y2733268D3*
D53*
X1083268Y2790354D3*
X1063583D3*
X1043898D3*
X1024213D3*
X1004528D3*
X984843D3*
X965157D3*
X945472D3*
X925787D3*
X906102D3*
X886417D3*
X866732D3*
D51*
X809646Y2733268D3*
Y2713583D3*
Y2693898D3*
Y2674213D3*
Y2654528D3*
Y2634843D3*
Y2615157D3*
Y2595472D3*
Y2575787D3*
Y2556102D3*
Y2536417D3*
Y2516732D3*
D49*
X298819Y2689379D3*
Y2669694D3*
Y2650009D3*
Y2630324D3*
Y2610639D3*
X401181Y2610630D3*
Y2630324D3*
Y2650009D3*
Y2669694D3*
Y2689379D3*
D80*
X350000Y2650000D3*
D47*
X1022835Y2256693D3*
X877165D3*
Y2343307D3*
X1022835D3*
M02*
